<?xml version="1.0" standalone="no"?>
<!DOCTYPE svg PUBLIC "-//W3C//DTD SVG 1.1//EN" "http://www.w3.org/Graphics/SVG/1.1/DTD/svg11.dtd" >
<svg xmlns="http://www.w3.org/2000/svg" xmlns:xlink="http://www.w3.org/1999/xlink" version="1.1">
<metadata>
Created by FontForge 20190801 at Wed Feb 26 01:57:32 2020
 By www-data
Copyright (c) 2020 by Alexander Slobzheninov. All rights reserved.
</metadata>
<defs>
<font id="RightGroteskTightMedium" horiz-adv-x="0" >
  <font-face 
    font-family="RightGroteskTightMedium"
    font-weight="500"
    font-stretch="extra-condensed"
    units-per-em="2048"
    panose-1="0 0 6 8 0 0 0 0 0 0"
    ascent="1638"
    descent="-410"
    x-height="1050"
    cap-height="1400"
    bbox="-433 -368 1520 1750"
    underline-thickness="99"
    underline-position="-199"
    unicode-range="U+0020-2BA7"
  />
<missing-glyph horiz-adv-x="875" 
d="M718 1400v-1750h-555v1750h555zM583 1283h-289v-58h114v-65h-116v-57h291v57h-116v65h116v58zM467 1057h-175v-182h291v60h-116v122zM408 998v-63h-58v63h58zM583 828h-291v-58h116v-65h-116v-57h175v122h116v58zM583 723h-58v-116h-233v-59h291v175zM583 509h-175v-98
h59v41h58v-83h-175v140h-58v-197h291v197zM583 207h-291v-198h291v198zM525 149v-82h-175v82h175zM583 -32h-291v-57h123l-123 -83v-57h291v57h-179l123 83h56v57z" />
    <glyph glyph-name=".notdef" horiz-adv-x="875" 
d="M718 1400v-1750h-555v1750h555zM583 1283h-289v-58h114v-65h-116v-57h291v57h-116v65h116v58zM467 1057h-175v-182h291v60h-116v122zM408 998v-63h-58v63h58zM583 828h-291v-58h116v-65h-116v-57h175v122h116v58zM583 723h-58v-116h-233v-59h291v175zM583 509h-175v-98
h59v41h58v-83h-175v140h-58v-197h291v197zM583 207h-291v-198h291v198zM525 149v-82h-175v82h175zM583 -32h-291v-57h123l-123 -83v-57h291v57h-179l123 83h56v57z" />
    <glyph glyph-name=".null" 
 />
    <glyph glyph-name="nonmarkingreturn" horiz-adv-x="682" 
 />
    <glyph glyph-name="space" unicode=" " horiz-adv-x="195" 
 />
    <glyph glyph-name="exclam" unicode="!" horiz-adv-x="295" 
d="M56 1400h183l-22 -1092h-139zM47 187h201v-187h-201v187z" />
    <glyph glyph-name="quotedbl" unicode="&#x22;" horiz-adv-x="428" 
d="M64 904l-25 496h151l-25 -496h-101zM262 904l-25 496h152l-25 -496h-102z" />
    <glyph glyph-name="numbersign" unicode="#" horiz-adv-x="729" 
d="M713 823h-128l-21 -245h114v-124h-124l-38 -454h-148l38 454h-124l-38 -454h-148l38 454h-118v124h128l21 245h-114v125h124l38 452h148l-38 -452h125l38 452h147l-38 -452h118v-125zM417 578l20 245h-124l-21 -245h125z" />
    <glyph glyph-name="dollar" unicode="$" horiz-adv-x="608" 
d="M573 267q0 -240 -194 -278v-153h-153v156q-191 45 -191 319v139l162 31v-165q0 -111 27 -158.5t87 -47.5q47 0 73 35t26 99q0 81 -31 167.5t-100 199.5l-89 149q-75 122 -110 211.5t-34 183.5q0 220 178 255v164h153v-166q175 -41 175 -287v-128l-157 -30v152
q0 94 -24.5 135t-76.5 41q-43 0 -66 -28.5t-23 -81.5q0 -72 27 -149t94 -184l90 -147q78 -126 117.5 -226t39.5 -208z" />
    <glyph glyph-name="percent" unicode="%" horiz-adv-x="1074" 
d="M258 709q-212 0 -212 224v259q0 225 212 225q104 0 158.5 -56.5t54.5 -168.5v-259q0 -224 -213 -224zM217 0l484 1400h155l-484 -1400h-155zM258 824q30 0 47 26t17 76v273q0 103 -64 103q-30 0 -47 -26t-17 -77v-273q0 -50 17.5 -76t46.5 -26zM815 -10q-212 0 -212 225
v258q0 225 212 225q213 0 213 -225v-258q0 -225 -213 -225zM816 106q29 0 46.5 25.5t17.5 75.5v274q0 50 -17 76t-47 26q-64 0 -64 -102v-274q0 -101 64 -101z" />
    <glyph glyph-name="ampersand" unicode="&#x26;" horiz-adv-x="705" 
d="M273 -14q-227 0 -227 289q0 243 155 455q-60 140 -85 232.5t-25 173.5q0 278 245 278q248 0 248 -258q0 -98 -47.5 -195t-167.5 -244l114 -331q28 182 24 363l135 -44q-6 -276 -80 -475l97 -230h-155l-35 95q-69 -109 -196 -109zM308 849q68 88 95 150.5t27 136.5
q0 144 -91 144q-48 0 -71 -36t-23 -115q0 -123 63 -280zM299 127q68 0 104 94l-136 370q-69 -124 -69 -271q0 -193 101 -193z" />
    <glyph glyph-name="quotesingle" unicode="'" horiz-adv-x="229" 
d="M64 904l-25 496h151l-25 -496h-101z" />
    <glyph glyph-name="parenleft" unicode="(" horiz-adv-x="362" 
d="M357 1450q-70 -143 -107 -356.5t-37 -468.5t37 -468.5t107 -356.5h-164q-69 143 -106 357t-37 468t37 468t106 357h164z" />
    <glyph glyph-name="parenright" unicode=")" horiz-adv-x="362" 
d="M5 1450h164q69 -143 106 -357t37 -468t-37 -468t-106 -357h-164q70 143 107 356.5t37 468.5t-37 468.5t-107 356.5z" />
    <glyph glyph-name="asterisk" unicode="*" horiz-adv-x="560" 
d="M182 894l-107 77l135 148l-196 40l41 125l182 -83l-23 199h132l-23 -199l182 83l41 -125l-196 -40l135 -148l-107 -77l-98 174z" />
    <glyph glyph-name="plus" unicode="+" horiz-adv-x="562" 
d="M217 451v205h-183v127h183v204h130v-204h182v-127h-182v-205h-130z" />
    <glyph glyph-name="comma" unicode="," horiz-adv-x="280" 
d="M39 187h202v-157q0 -129 -50.5 -189t-162.5 -84l-16 92q64 18 88 50.5t23 100.5h-84v187z" />
    <glyph glyph-name="hyphen" unicode="-" horiz-adv-x="414" 
d="M34 614h346v-137h-346v137z" />
    <glyph glyph-name="period" unicode="." horiz-adv-x="280" 
d="M39 187h202v-187h-202v187z" />
    <glyph glyph-name="slash" unicode="/" horiz-adv-x="383" 
d="M0 -200l223 1650h160l-223 -1650h-160z" />
    <glyph glyph-name="zero" unicode="0" horiz-adv-x="638" 
d="M319 -17q-269 0 -269 324v786q0 324 269 324q270 0 270 -324v-786q0 -324 -270 -324zM319 115q104 0 104 178v814q0 179 -104 179q-103 0 -103 -179v-814q0 -178 103 -178z" />
    <glyph glyph-name="one" unicode="1" horiz-adv-x="402" 
d="M177 0v1088h-159v114q44 3 68 6t47.5 12t33.5 20t20 34.5t13.5 51t7.5 74.5h134v-1400h-165z" />
    <glyph glyph-name="two" unicode="2" horiz-adv-x="585" 
d="M31 0v102q180 313 263 568t83 487q0 130 -79 130q-48 0 -69.5 -43.5t-20.5 -155.5v-205l-162 29v186q-1 168 62 243.5t191 75.5q122 0 182.5 -64t60.5 -199q0 -232 -76 -472.5t-241 -537.5l5 -9q32 3 87 3h235v-138h-521z" />
    <glyph glyph-name="three" unicode="3" horiz-adv-x="614" 
d="M314 -17q-137 0 -203.5 74.5t-66.5 233.5v207l166 29v-224q0 -98 25 -143.5t79 -45.5q88 0 88 127v298q0 117 -106 123l-65 3v127l63 3q100 4 100 114v258q0 122 -85 122q-95 0 -95 -178v-197l-162 28v179q0 152 64.5 224t194.5 72q244 0 244 -249v-240q0 -154 -132 -187
v-21q146 -32 146 -209v-269q0 -259 -255 -259z" />
    <glyph glyph-name="four" unicode="4" horiz-adv-x="616" 
d="M346 0v271h-323v106l238 1023h250v-1001h83v-128h-83v-271h-165zM179 399h167l2 475q0 81 6 335l-19 1q-24 -193 -49 -317z" />
    <glyph glyph-name="five" unicode="5" horiz-adv-x="603" 
d="M304 -17q-132 0 -198.5 65t-66.5 206v159l165 29v-177q0 -152 100 -152q92 0 92 137v401q0 125 -88 125q-47 0 -70 -40t-35 -153l-154 14l26 803h468v-139h-308l-17 -401q58 48 141 48q100 0 151.5 -57t51.5 -170v-431q0 -267 -258 -267z" />
    <glyph glyph-name="six" unicode="6" horiz-adv-x="622" 
d="M311 1417q259 0 259 -278v-137l-165 -31v156q0 159 -95 159q-51 0 -75 -41.5t-24 -135.5v-283q59 50 152 50q206 0 206 -248v-372q0 -138 -64.5 -205.5t-195.5 -67.5q-133 0 -197.5 74.5t-64.5 226.5v805q0 169 64.5 248.5t199.5 79.5zM310 750q-95 0 -95 -120v-378
q0 -71 23.5 -104.5t71.5 -33.5q49 0 71.5 33t22.5 107v368q0 67 -23 97.5t-71 30.5z" />
    <glyph glyph-name="seven" unicode="7" horiz-adv-x="492" 
d="M154 0q4 459 39.5 735.5t118.5 526.5h-292v138h452v-114q-85 -248 -118 -529.5t-30 -756.5h-170z" />
    <glyph glyph-name="eight" unicode="8" horiz-adv-x="632" 
d="M316 -17q-139 0 -205 60t-66 185v280q0 176 146 212v21q-130 35 -130 188v250q0 122 61.5 180t193.5 58t193.5 -58t61.5 -180v-250q0 -153 -130 -188v-21q146 -36 146 -212v-280q0 -125 -66 -185t-205 -60zM316 790q93 0 93 107v285q0 108 -93 108q-92 0 -92 -108v-285
q0 -107 92 -107zM316 111q101 0 101 114v328q0 113 -101 113t-101 -113v-328q0 -114 101 -114z" />
    <glyph glyph-name="nine" unicode="9" horiz-adv-x="625" 
d="M311 -17q-258 0 -258 278v137l165 31v-156q0 -159 95 -159q51 0 75 42t24 135v283q-59 -50 -153 -50q-206 0 -206 248v372q0 138 64.5 205.5t195.5 67.5q133 0 198 -74.5t65 -226.5v-805q0 -169 -64.5 -248.5t-200.5 -79.5zM313 650q95 0 95 120v378q0 71 -23.5 104.5
t-71.5 33.5q-50 0 -72.5 -33t-22.5 -107v-368q0 -67 23 -97.5t72 -30.5z" />
    <glyph glyph-name="colon" unicode=":" horiz-adv-x="280" 
d="M39 1050h202v-187h-202v187zM39 187h202v-187h-202v187z" />
    <glyph glyph-name="semicolon" unicode=";" horiz-adv-x="280" 
d="M39 1050h202v-187h-202v187zM39 187h202v-157q0 -129 -50.5 -189t-162.5 -84l-16 92q64 18 88 50.5t23 100.5h-84v187z" />
    <glyph glyph-name="less" unicode="&#x3c;" horiz-adv-x="545" 
d="M512 474l-478 133v187l478 133v-145l-183 -41q-74 -17 -173 -30v-20q88 -13 173 -31l183 -41v-145z" />
    <glyph glyph-name="equal" unicode="=" horiz-adv-x="539" 
d="M34 757v135h472v-135h-472zM34 510v135h472v-135h-472z" />
    <glyph glyph-name="greater" unicode="&#x3e;" horiz-adv-x="546" 
d="M34 474v145l182 41q86 18 174 31v20q-99 13 -174 30l-182 41v145l478 -133v-187z" />
    <glyph glyph-name="question" unicode="?" horiz-adv-x="535" 
d="M183 308q-19 46 -23.5 96.5t5 106t23.5 103t37 111.5l52 144q67 180 67 313q0 108 -72 108q-42 0 -60 -38t-18 -123v-160l-166 29v136q0 144 60.5 213.5t184.5 69.5q235 0 235 -240q0 -159 -89 -387l-58 -149q-31 -81 -43.5 -137t-6 -102.5t36.5 -80.5l-5 -13h-160z
M172 187h201v-187h-201v187z" />
    <glyph glyph-name="at" unicode="@" horiz-adv-x="1108" 
d="M564 -255q-250 0 -382.5 128.5t-132.5 372.5v548q0 245 133.5 378t378.5 133q238 0 368 -133.5t130 -378.5v-512q0 -136 -58 -216.5t-179 -80.5q-161 0 -153 170l-17 3q-37 -173 -184 -173q-78 0 -119.5 54t-41.5 155v74q0 66 14.5 117.5t44.5 89t61 63t78 52.5l109 64
v203q0 89 -63 89q-37 0 -53.5 -28t-15.5 -90v-177l-159 25v158q-5 234 229 234q225 0 225 -212v-657q0 -85 50 -85q80 0 80 167v513q0 181 -90.5 278.5t-255.5 97.5q-172 0 -266 -97.5t-94 -277.5v-548q0 -177 97.5 -270.5t280.5 -93.5q150 0 295 54l29 -132
q-156 -59 -339 -59zM528 112q40 0 63.5 40t23.5 115v244l-53 -32q-44 -27 -68 -68t-24 -114v-75q0 -110 58 -110z" />
    <glyph glyph-name="A" unicode="A" horiz-adv-x="626" 
d="M13 0l192 1400h213l195 -1400h-174l-31 255h-200l-31 -255h-164zM224 378h168l-42 343q-22 240 -33 429h-18q-11 -199 -33 -429z" />
    <glyph glyph-name="B" unicode="B" horiz-adv-x="626" 
d="M59 0v1400h270q125 0 184 -64t59 -198v-186q0 -173 -148 -208v-21q167 -35 167 -250v-199q0 -139 -62 -206.5t-188 -67.5h-282zM228 794h70q59 0 84.5 30t25.5 100v207q0 71 -25.5 103t-84.5 32h-70v-472zM228 134h76q59 0 87 34.5t28 109.5v235q0 81 -28 117.5t-87 36.5
h-76v-533z" />
    <glyph glyph-name="C" unicode="C" horiz-adv-x="648" 
d="M328 -17q-278 0 -278 328v778q0 328 277 328q136 0 204.5 -77t68.5 -243v-188l-166 -32v208q0 110 -25.5 156.5t-79.5 46.5q-110 0 -110 -183v-808q0 -183 110 -183q54 0 81 48t27 161v233l167 -36v-214q0 -323 -276 -323z" />
    <glyph glyph-name="D" unicode="D" horiz-adv-x="649" 
d="M59 0v1400h247q150 0 221.5 -85.5t71.5 -262.5v-706q0 -176 -71.5 -261t-221.5 -85h-247zM228 134h69q70 0 101.5 45.5t31.5 142.5v754q0 99 -31.5 144.5t-101.5 45.5h-69v-1132z" />
    <glyph glyph-name="E" unicode="E" horiz-adv-x="515" 
d="M228 139h257v-139h-426v1400h414v-139h-245v-450h218v-130h-218v-542z" />
    <glyph glyph-name="F" unicode="F" horiz-adv-x="485" 
d="M59 0v1400h399v-139h-230v-466h203v-132h-203v-663h-169z" />
    <glyph glyph-name="G" unicode="G" horiz-adv-x="663" 
d="M265 -12q-215 0 -215 319v783q0 327 281 327q270 0 270 -298v-176l-166 -34v197q0 99 -25.5 140.5t-77.5 41.5q-113 0 -113 -185v-799q0 -187 96 -187q127 0 140 504h-138v132h291v-753h-137q-4 75 34 253l-21 6q-35 -147 -85.5 -209t-133.5 -62z" />
    <glyph glyph-name="H" unicode="H" horiz-adv-x="658" 
d="M431 1400h168v-1400h-168v680h-203v-680h-169v1400h169v-584h203v584z" />
    <glyph glyph-name="I" unicode="I" horiz-adv-x="287" 
d="M59 1400h169v-1400h-169v1400z" />
    <glyph glyph-name="J" unicode="J" horiz-adv-x="582" 
d="M277 -17q-126 0 -188.5 70t-62.5 222v129l168 28v-147q0 -94 20 -133t64 -39q77 0 77 117v1170h169v-1175q0 -242 -247 -242z" />
    <glyph glyph-name="K" unicode="K" horiz-adv-x="626" 
d="M59 0v1400h169v-227q0 -170 -27 -387l18 -5l225 619h167l-197 -502l196 -898h-176l-135 702l-71 -171v-531h-169z" />
    <glyph glyph-name="L" unicode="L" horiz-adv-x="476" 
d="M59 0v1400h169v-1261h226v-139h-395z" />
    <glyph glyph-name="M" unicode="M" horiz-adv-x="943" 
d="M59 0v1400h247l104 -617q32 -258 52 -521h15q18 248 50 521l104 617h253v-1400h-167l2 684q0 203 15 442l-21 1l-165 -1127h-162l-160 1128l-21 -1q12 -233 12 -443l1 -684h-159z" />
    <glyph glyph-name="N" unicode="N" horiz-adv-x="725" 
d="M59 0v1400h221l175 -808q28 -142 51 -312l21 1q-25 315 -25 506l-1 613h164v-1400h-219l-169 784q-34 171 -58 343l-21 -1q24 -300 24 -514l1 -612h-164z" />
    <glyph glyph-name="O" unicode="O" horiz-adv-x="667" 
d="M333 -17q-283 0 -283 327v778q0 329 283 329q284 0 284 -329v-778q0 -327 -284 -327zM334 115q114 0 114 181v805q0 185 -114 185q-115 0 -115 -185v-805q0 -181 115 -181z" />
    <glyph glyph-name="P" unicode="P" horiz-adv-x="611" 
d="M312 1400q136 0 202 -72.5t66 -220.5v-302q0 -290 -268 -290h-84v-515h-169v1400h253zM300 648q59 0 85.5 33.5t26.5 107.5v336q0 75 -26.5 108.5t-85.5 33.5h-72v-619h72z" />
    <glyph glyph-name="Q" unicode="Q" horiz-adv-x="667" 
d="M617 310q0 -298 -236 -325q-10 -47 12 -71.5t79 -28.5l74 -6l-40 -154q-237 29 -231 262q-225 30 -225 323v778q0 329 283 329q284 0 284 -329v-778zM219 296q0 -181 115 -181q114 0 114 181v805q0 185 -114 185q-115 0 -115 -185v-805z" />
    <glyph glyph-name="R" unicode="R" horiz-adv-x="637" 
d="M59 0v1400h256q267 0 267 -279v-137q0 -214 -170 -247v-13q68 -17 97.5 -66t41.5 -178l15 -177q11 -131 24.5 -193.5t35.5 -88.5l-3 -21h-185q-24 77 -39 299l-12 168q-6 84 -18.5 126.5t-33.5 57t-61 14.5h-46v-665h-169zM228 797h69q60 0 88.5 33.5t28.5 107.5v185
q0 76 -28 109.5t-89 33.5h-69v-469z" />
    <glyph glyph-name="S" unicode="S" horiz-adv-x="608" 
d="M308 -17q-273 0 -273 328v139l162 31v-165q0 -111 27 -158.5t87 -47.5q47 0 73 35t26 99q0 81 -31 167.5t-100 199.5l-89 149q-75 122 -110 211.5t-34 183.5q0 262 250 262q128 0 192 -72.5t64 -223.5v-128l-157 -30v152q0 94 -24.5 135t-76.5 41q-43 0 -66 -28.5
t-23 -81.5q0 -72 27 -149t94 -184l90 -147q78 -126 117.5 -226t39.5 -208q0 -139 -67.5 -211.5t-197.5 -72.5z" />
    <glyph glyph-name="T" unicode="T" horiz-adv-x="557" 
d="M194 0v1261h-184v139h537v-139h-184v-1261h-169z" />
    <glyph glyph-name="U" unicode="U" horiz-adv-x="653" 
d="M426 1400h168v-1153q0 -136 -66 -200t-201 -64q-137 0 -203 64t-66 200v1153h169v-1150q0 -71 24.5 -104t75.5 -33t75 33t24 104v1150z" />
    <glyph glyph-name="V" unicode="V" horiz-adv-x="615" 
d="M206 0l-193 1400h176l84 -706q21 -227 30 -432h19q10 214 31 432l83 706h166l-188 -1400h-208z" />
    <glyph glyph-name="W" unicode="W" horiz-adv-x="971" 
d="M187 0l-173 1400h168l73 -741q18 -193 26 -398h20q8 225 25 398l71 741h182l72 -741q16 -185 23 -398h20q11 218 28 398l73 741h162l-169 -1400h-198l-61 659q-23 254 -32 427h-20q-12 -213 -32 -427l-62 -659h-196z" />
    <glyph glyph-name="X" unicode="X" horiz-adv-x="605" 
d="M8 0l176 736l-160 664h174l73 -358q12 -72 21 -162h19q10 89 24 162l77 358h166l-168 -654l188 -746h-181l-88 447q-17 97 -24 156h-18q-7 -70 -22 -156l-90 -447h-167z" />
    <glyph glyph-name="Y" unicode="Y" horiz-adv-x="603" 
d="M592 1400l-206 -886v-514h-169v514l-206 886h174l74 -382q21 -121 37 -292h17q14 154 37 292l72 382h170z" />
    <glyph glyph-name="Z" unicode="Z" horiz-adv-x="502" 
d="M12 0l-3 7l245 1130q19 78 37 121l-7 9q-34 -2 -93 -2h-162v135h449l2 -7l-233 -1133q-16 -65 -37 -118l6 -9q30 2 86 2h189v-135h-479z" />
    <glyph glyph-name="bracketleft" unicode="[" horiz-adv-x="352" 
d="M340 1315h-117v-1380h117v-135h-281v1650h281v-135z" />
    <glyph glyph-name="backslash" unicode="\" horiz-adv-x="383" 
d="M383 -200h-160l-223 1650h160z" />
    <glyph glyph-name="bracketright" unicode="]" horiz-adv-x="352" 
d="M12 1315v135h281v-1650h-281v135h117v1380h-117z" />
    <glyph glyph-name="asciicircum" unicode="^" horiz-adv-x="640" 
d="M59 978l181 422h160l180 -422h-162l-49 114q-25 73 -41 153h-16q-16 -80 -41 -153l-49 -114h-163z" />
    <glyph glyph-name="underscore" unicode="_" horiz-adv-x="356" 
d="M0 -60h356v-122h-356v122z" />
    <glyph glyph-name="grave" unicode="`" horiz-adv-x="237" 
d="M152 1400l85 -268h-123l-114 268h152z" />
    <glyph glyph-name="a" unicode="a" horiz-adv-x="582" 
d="M196 -17q-78 0 -120 55t-42 155v70q0 67 15 119.5t44.5 90t61.5 63t78 52.5l109 63v203q0 90 -62 90q-38 0 -54 -31.5t-15 -106.5v-156l-160 25v139q-3 253 229 253q224 0 224 -213v-670q0 -38 9.5 -50t36.5 -13l20 -1l-20 -131q-20 -6 -45 -6q-76 0 -101 40.5t-8 130.5
l-17 4q-40 -175 -183 -175zM257 113q39 0 62 40t23 117v243l-52 -32q-44 -26 -68 -68.5t-24 -116.5v-72q0 -111 59 -111z" />
    <glyph glyph-name="b" unicode="b" horiz-adv-x="587" 
d="M372 -12q-68 0 -109.5 39.5t-72.5 125.5l-19 -6q35 -108 33 -147h-150v1400h164v-261q0 -108 -43 -236l18 -7q28 85 70.5 125.5t111.5 40.5q80 0 123 -63.5t43 -184.5v-582q0 -120 -43.5 -182t-125.5 -62zM307 111q70 0 70 137v554q0 137 -70 137q-43 0 -66 -54.5
t-23 -155.5v-409q0 -99 23.5 -154t65.5 -55z" />
    <glyph glyph-name="c" unicode="c" horiz-adv-x="571" 
d="M288 -17q-242 0 -242 278v531q0 275 243 275q238 0 238 -262v-140l-162 -26v153q0 82 -18.5 117t-56.5 35q-79 0 -79 -137v-562q0 -138 79 -138q76 0 76 131v178l164 -25v-141q0 -267 -242 -267z" />
    <glyph glyph-name="d" unicode="d" horiz-adv-x="587" 
d="M215 -12q-82 0 -125.5 62t-43.5 182v582q0 121 43 184.5t123 63.5q69 0 111.5 -40.5t70.5 -125.5l18 7q-43 128 -43 236v261h164v-1400h-150q-2 39 33 147l-19 6q-31 -86 -72.5 -125.5t-109.5 -39.5zM280 111q42 0 65.5 55t23.5 154v409q0 101 -23 155.5t-66 54.5
q-70 0 -70 -137v-554q0 -137 70 -137z" />
    <glyph glyph-name="e" unicode="e" horiz-adv-x="577" 
d="M373 245v135l157 -23v-122q0 -128 -62.5 -190t-178.5 -62q-243 0 -243 270v543q0 271 247 271q237 0 237 -258q0 -228 -1 -326h-320v-243q0 -69 19 -101.5t61 -32.5q84 0 84 139zM291 944q-82 0 -82 -134v-203h158v217q0 120 -76 120z" />
    <glyph glyph-name="f" unicode="f" horiz-adv-x="409" 
d="M105 0v920h-93v130h93v66q0 134 66 206t207 95l25 -149l-61 -4q-45 -2 -60.5 -22t-15.5 -75v-117h132v-130h-130v-920h-163z" />
    <glyph glyph-name="g" unicode="g" horiz-adv-x="530" 
d="M330 219q29 -12 52 -25.5t50.5 -39t46 -56.5t31 -79t12.5 -107q0 -279 -263 -279q-251 0 -251 258q0 102 29 158.5t93 85.5v19q-93 54 -93 143q0 87 84 113v17q-83 77 -83 295q0 180 55.5 261t173.5 81q37 0 65 -7q-27 107 11.5 174.5t141.5 87.5l28 -167l-53 -9
q-44 -7 -62.5 -30.5t-9.5 -80.5q103 -68 103 -310q0 -181 -54.5 -263t-169.5 -82q-43 0 -76 10q-45 -12 -45 -45q0 -26 21 -44t83 -45zM266 948q-39 0 -54.5 -49t-15.5 -177q0 -130 15.5 -179t55.5 -49q37 0 52 49t15 179q0 128 -15 177t-53 49zM264 -241q117 0 117 148
q0 80 -32.5 124t-94.5 69l-46 19q-39 -28 -55.5 -74.5t-16.5 -125.5q0 -160 128 -160z" />
    <glyph glyph-name="h" unicode="h" horiz-adv-x="583" 
d="M54 0v1400h164v-299q0 -88 -38 -206l17 -7q32 91 79 132.5t115 41.5q139 0 139 -158v-904h-163v869q0 68 -50 68q-44 0 -71.5 -69.5t-27.5 -180.5v-687h-164z" />
    <glyph glyph-name="i" unicode="i" horiz-adv-x="272" 
d="M44 1169v183h185v-183h-185zM54 0v1050h164v-1050h-164z" />
    <glyph glyph-name="j" unicode="j" horiz-adv-x="274" 
d="M45 1169v183h185v-183h-185zM-65 -367l-36 166l58 7q58 7 78.5 29.5t20.5 82.5v1132h163v-1007q0 -186 -69 -284.5t-215 -125.5z" />
    <glyph glyph-name="k" unicode="k" horiz-adv-x="557" 
d="M54 0v1400h164v-367q0 -183 -28 -357l13 -6l180 380h164l-160 -324l159 -726h-167l-107 583l-54 -106v-477h-164z" />
    <glyph glyph-name="l" unicode="l" horiz-adv-x="272" 
d="M54 1400h164v-1400h-164v1400z" />
    <glyph glyph-name="m" unicode="m" horiz-adv-x="873" 
d="M54 0v1050h160q3 -39 -34 -154l17 -7q36 92 79.5 132.5t105.5 40.5q66 0 91.5 -44.5t7.5 -125.5l17 -6q33 92 78 134t110 42q134 0 134 -159v-903h-163v871q0 65 -47 65q-42 0 -66.5 -68t-24.5 -178v-690h-163v870q0 67 -46 67q-41 0 -66.5 -69t-25.5 -180v-688h-164z
" />
    <glyph glyph-name="n" unicode="n" horiz-adv-x="583" 
d="M54 0v1050h160q1 -45 -34 -155l17 -7q32 91 79 132.5t115 41.5q139 0 139 -159v-903h-163v870q0 67 -50 67q-44 0 -71.5 -69.5t-27.5 -180.5v-687h-164z" />
    <glyph glyph-name="o" unicode="o" horiz-adv-x="580" 
d="M290 -17q-244 0 -244 273v537q0 274 244 274q121 0 183 -69.5t62 -204.5v-537q0 -135 -62 -204t-183 -69zM290 109q80 0 80 136v559q0 138 -80 138q-79 0 -79 -138v-559q0 -136 79 -136z" />
    <glyph glyph-name="p" unicode="p" horiz-adv-x="587" 
d="M372 1062q82 0 125.5 -62t43.5 -182v-582q0 -121 -43 -184.5t-123 -63.5q-69 0 -111.5 40.5t-70.5 125.5l-18 -7q43 -128 43 -236v-261h-164v1400h150q2 -39 -33 -147l19 -6q31 86 72.5 125.5t109.5 39.5zM307 939q-42 0 -65.5 -55t-23.5 -154v-409q0 -101 23 -155.5
t66 -54.5q70 0 70 137v554q0 137 -70 137z" />
    <glyph glyph-name="q" unicode="q" horiz-adv-x="587" 
d="M215 1062q68 0 109.5 -39.5t72.5 -125.5l19 6q-35 108 -33 147h150v-1400h-164v261q0 108 43 236l-18 7q-28 -85 -70.5 -125.5t-111.5 -40.5q-80 0 -123 63.5t-43 184.5v582q0 120 43.5 182t125.5 62zM280 939q-70 0 -70 -137v-554q0 -137 70 -137q43 0 66 54.5t23 155.5
v409q0 99 -23.5 154t-65.5 55z" />
    <glyph glyph-name="r" unicode="r" horiz-adv-x="435" 
d="M54 0v1050h164q3 -53 -33 -162l17 -7q38 102 79.5 141.5t116.5 47.5l25 -159l-52 -8q-86 -14 -119.5 -78t-33.5 -219v-606h-164z" />
    <glyph glyph-name="s" unicode="s" horiz-adv-x="517" 
d="M261 -16q-233 0 -233 264v80l154 37v-112q0 -78 19 -112.5t60 -34.5q69 0 69 98q0 62 -24 120.5t-81 131.5l-74 96q-117 151 -117 286q0 228 215 228q224 0 224 -239v-71l-155 -35v105q0 65 -16.5 92t-51.5 27q-64 0 -64 -79q0 -55 21.5 -105.5t76.5 -119.5l74 -93
q64 -81 97.5 -155t33.5 -168q0 -120 -58 -180.5t-170 -60.5z" />
    <glyph glyph-name="t" unicode="t" horiz-adv-x="434" 
d="M282 -13q-89 0 -132.5 46.5t-43.5 146.5v740h-94v130h94v240l163 60v-300h149v-130h-149v-727q0 -37 14.5 -53.5t45.5 -16.5q35 0 90 21l-13 -127q-51 -30 -124 -30z" />
    <glyph glyph-name="u" unicode="u" horiz-adv-x="584" 
d="M529 1050v-1050h-159q-2 48 34 155l-17 7q-33 -91 -80 -132.5t-115 -41.5q-139 0 -139 159v903h164v-870q0 -67 49 -67q45 0 72.5 69.5t27.5 180.5v687h163z" />
    <glyph glyph-name="v" unicode="v" horiz-adv-x="531" 
d="M170 0l-162 1050h168l54 -446q22 -177 30 -349h18q10 176 31 349l54 446h160l-162 -1050h-191z" />
    <glyph glyph-name="w" unicode="w" horiz-adv-x="840" 
d="M149 0l-140 1050h165l52 -533q12 -133 18 -262h16q7 144 20 262l57 533h171l58 -533q13 -118 20 -262h15q7 156 18 262l53 533h159l-138 -1050h-188l-53 485q-15 145 -23 298h-15q-8 -155 -23 -298l-54 -485h-188z" />
    <glyph glyph-name="x" unicode="x" horiz-adv-x="549" 
d="M7 0l163 547l-151 503h170l58 -250q12 -58 19 -122h16q7 51 21 122l65 250h161l-160 -495l174 -555h-176l-70 298q-13 58 -21 123h-16q-6 -60 -20 -123l-71 -298h-162z" />
    <glyph glyph-name="y" unicode="y" horiz-adv-x="525" 
d="M34 -367l-31 166l75 10q53 7 75 34t21 87l-3 81l-166 1039h168l66 -638q13 -121 22 -297h16q8 170 21 297l62 638h157l-144 -994q-29 -200 -107.5 -298t-231.5 -125z" />
    <glyph glyph-name="z" unicode="z" horiz-adv-x="466" 
d="M16 0l-4 10l215 829q6 23 24 74l-5 9q-44 -2 -65 -2h-146v130h407l5 -10l-206 -839q-11 -33 -23 -63l5 -10q22 2 62 2h170v-130h-439z" />
    <glyph glyph-name="braceleft" unicode="{" horiz-adv-x="416" 
d="M404 1315h-39q-75 0 -75 -82v-400q0 -154 -111 -198v-20q111 -44 111 -198v-400q0 -82 75 -82h39v-135h-92q-185 0 -185 193v402q0 132 -97 159v142q97 27 97 159v402q0 193 178 193h99v-135z" />
    <glyph glyph-name="bar" unicode="|" horiz-adv-x="277" 
d="M59 -200v1650h159v-1650h-159z" />
    <glyph glyph-name="braceright" unicode="}" horiz-adv-x="417" 
d="M12 1315v135h100q178 0 178 -193v-402q0 -132 96 -159v-142q-96 -27 -96 -159v-402q0 -193 -185 -193h-93v135h40q74 0 74 82v400q0 154 111 198v20q-111 44 -111 198v400q0 82 -74 82h-40z" />
    <glyph glyph-name="asciitilde" unicode="~" horiz-adv-x="547" 
d="M383 593q-38 0 -78.5 21.5t-73 43.5t-52.5 22q-44 0 -47 -84h-98q7 214 137 214q36 0 75.5 -22t72 -43.5t51.5 -21.5q42 0 45 80h98q-7 -210 -130 -210z" />
    <glyph glyph-name="exclamdown" unicode="&#xa1;" horiz-adv-x="295" 
d="M248 863h-201v187h201v-187zM239 -350h-183l22 1092h139z" />
    <glyph glyph-name="cent" unicode="&#xa2;" horiz-adv-x="571" 
d="M366 416l164 -25v-141q0 -220 -165 -259v-155h-149v154q-170 37 -170 271v531q0 231 170 268v160h149v-161q162 -37 162 -254v-140l-162 -26v153q0 82 -18.5 117t-56.5 35q-79 0 -79 -137v-562q0 -138 79 -138q76 0 76 131v178z" />
    <glyph glyph-name="sterling" unicode="&#xa3;" horiz-adv-x="663" 
d="M24 0v99q57 50 77 125t20 214v164h-95v128h95v436q0 251 250 251q126 0 185 -66t59 -209v-181l-158 -30v201q0 86 -20.5 122.5t-66.5 36.5q-83 0 -83 -121v-440h272v-128h-272v-121q0 -132 -16.5 -204t-64.5 -131l4 -11q76 3 133 3h289v-138h-608z" />
    <glyph glyph-name="currency" unicode="&#xa4;" horiz-adv-x="781" 
d="M117 326l-101 100l132 132q-38 65 -38 143t38 141l-132 132l101 100l132 -131q64 37 140 37q79 0 143 -39l133 133l100 -100l-133 -133q36 -63 36 -140q0 -79 -37 -141l134 -134l-100 -100l-135 134q-63 -38 -141 -38q-77 0 -140 36zM389 557q63 0 103.5 40.5t40.5 103.5
q0 62 -40.5 103t-103.5 41t-103.5 -41t-40.5 -103q0 -63 40.5 -103.5t103.5 -40.5z" />
    <glyph glyph-name="yen" unicode="&#xa5;" horiz-adv-x="603" 
d="M592 1400l-194 -834h119v-113h-131v-71h131v-112h-131v-270h-169v270h-130v112h130v71h-130v113h118l-194 834h174l74 -382q21 -121 37 -292h17q14 154 37 292l72 382h170z" />
    <glyph glyph-name="brokenbar" unicode="&#xa6;" horiz-adv-x="277" 
d="M59 705v745h159v-745h-159zM218 545v-745h-159v745h159z" />
    <glyph glyph-name="section" unicode="&#xa7;" horiz-adv-x="578" 
d="M292 -17q-130 0 -194 63.5t-64 193.5v85l159 22v-99q0 -75 24.5 -110.5t76.5 -35.5q41 0 63 23.5t22 62.5q0 58 -25 101t-89 100l-82 74q-67 60 -98 113.5t-31 127.5q0 160 150 197v9q-84 93 -115.5 154.5t-31.5 140.5q0 212 238 212q122 0 181 -57.5t59 -175.5v-81
l-154 -23v97q0 123 -89 123q-38 0 -58 -22t-20 -61q0 -60 24.5 -104t85.5 -95l82 -67q67 -56 102 -115t35 -136q0 -78 -37.5 -128t-110.5 -64v-12q82 -88 115 -153t33 -143q0 -104 -63.5 -160.5t-187.5 -56.5zM300 576q40 8 62.5 37t22.5 75q0 43 -20.5 75t-75.5 67
q-83 -18 -83 -112q0 -42 20.5 -74t73.5 -68z" />
    <glyph glyph-name="dieresis" unicode="&#xa8;" horiz-adv-x="361" 
d="M0 1169v183h146v-183h-146zM216 1169v183h145v-183h-145z" />
    <glyph glyph-name="copyright" unicode="&#xa9;" horiz-adv-x="1119" 
d="M560 -254q-244 0 -377 132t-133 373v540q0 247 133 382t377 135t377 -135t133 -382v-540q0 -241 -133 -373t-377 -132zM560 -119q169 0 263 97t94 273v540q0 182 -93.5 282t-263.5 100t-264 -100t-94 -282v-540q0 -176 94 -273t264 -97zM559 -15q-242 0 -242 278v531
q0 275 243 275q238 0 238 -262v-140l-162 -26v153q0 82 -18.5 117t-56.5 35q-79 0 -79 -137v-562q0 -138 79 -138q76 0 76 131v178l164 -25v-141q0 -267 -242 -267z" />
    <glyph glyph-name="guillemotleft" unicode="&#xab;" horiz-adv-x="640" 
d="M204 100l-158 425l160 425h149l-151 -425l151 -425h-151zM442 100l-158 425l161 425h149l-151 -425l151 -425h-152z" />
    <glyph glyph-name="logicalnot" unicode="&#xac;" horiz-adv-x="539" 
d="M362 495v215h-328v135h472v-350h-144z" />
    <glyph glyph-name="registered" unicode="&#xae;" horiz-adv-x="771" 
d="M386 526q-158 0 -247 83t-89 230v259q0 147 89 230t247 83t247 -83t89 -230v-259q0 -147 -89 -230t-247 -83zM386 623q111 0 169 55t58 161v259q0 106 -58 161.5t-169 55.5q-112 0 -170 -55.5t-58 -161.5v-259q0 -106 58 -161t170 -55zM249 693v557h152q131 0 131 -111
v-54q0 -79 -78 -92v-12q31 -8 44.5 -27t17.5 -69l6 -71q6 -90 24 -109l-4 -12h-107q-9 31 -16 120l-5 63q-3 46 -12 59t-35 13h-13v-255h-105zM354 1035h30q48 0 48 44v47q0 39 -45 39h-33v-130z" />
    <glyph glyph-name="macron" unicode="&#xaf;" horiz-adv-x="365" 
d="M0 1165v123h365v-123h-365z" />
    <glyph glyph-name="degree" unicode="&#xb0;" horiz-adv-x="523" 
d="M262 835q-102 0 -159 58.5t-57 162.5v138q0 105 57 163.5t159 58.5q101 0 158 -58.5t57 -163.5v-138q0 -104 -57 -162.5t-158 -58.5zM262 959q36 0 57 25t21 68v146q0 44 -21 69.5t-57 25.5t-57.5 -25.5t-21.5 -69.5v-146q0 -43 21.5 -68t57.5 -25z" />
    <glyph glyph-name="plusminus" unicode="&#xb1;" horiz-adv-x="562" 
d="M217 601v150h-183v127h183v148h130v-148h182v-127h-182v-150h-130zM34 424v128h495v-128h-495z" />
    <glyph glyph-name="acute" unicode="&#xb4;" horiz-adv-x="237" 
d="M85 1400h152l-115 -268h-122z" />
    <glyph glyph-name="paragraph" unicode="&#xb6;" horiz-adv-x="1079" 
d="M447 -350l-2 965q-181 0 -288 107t-107 287q0 182 115 286.5t329 104.5h536v-141h-125v-1609h-156v1609h-146v-1609h-156z" />
    <glyph glyph-name="periodcentered" unicode="&#xb7;" horiz-adv-x="280" 
d="M39 629h202v-187h-202v187z" />
    <glyph glyph-name="cedilla" unicode="&#xb8;" horiz-adv-x="255" 
d="M108 -368q-61 0 -108 29l16 91q38 -23 77 -23q27 0 42.5 16t15.5 44q0 70 -113 90l20 131h103l-15 -86q109 -40 109 -146q0 -69 -38.5 -107.5t-108.5 -38.5z" />
    <glyph glyph-name="guillemotright" unicode="&#xbb;" horiz-adv-x="640" 
d="M198 100h-152l151 425l-151 425h149l161 -425zM436 100h-151l151 425l-151 425h149l160 -425z" />
    <glyph glyph-name="onequarter" unicode="&#xbc;" horiz-adv-x="1212" 
d="M26 554v114h159v500h-150v99q110 6 139.5 27.5t37.5 105.5h117v-732h130v-114h-433zM367 0l390 1400h138l-390 -1400h-138zM983 0v125h-241v96l155 625h230v-613h61v-108h-61v-125h-144zM869 233h114l2 252q0 91 6 229h-18q-15 -113 -38 -223z" />
    <glyph glyph-name="onehalf" unicode="&#xbd;" horiz-adv-x="1249" 
d="M26 554v114h159v500h-150v99q110 6 139.5 27.5t37.5 105.5h117v-732h130v-114h-433zM367 0l390 1400h138l-390 -1400h-138zM796 0v81q144 199 203.5 333t58.5 258q-1 77 -53 77q-31 0 -44 -27.5t-13 -92.5v-97l-142 22v76q0 119 48.5 173t155.5 54q96 0 143.5 -45.5
t47.5 -140.5q1 -126 -49.5 -249.5t-173.5 -302.5l5 -8q27 3 69 3h158v-114h-414z" />
    <glyph glyph-name="threequarters" unicode="&#xbe;" horiz-adv-x="1198" 
d="M247 540q-103 0 -154 52t-51 163v93l143 22v-110q0 -62 16 -88t48 -26q56 0 56 82v127q0 77 -71 82l-47 3v107l46 1q66 3 66 75v104q0 78 -56 78q-31 0 -45.5 -25t-14.5 -81v-87l-141 22v69q0 106 50 156.5t151 50.5q197 0 197 -183v-93q0 -59 -24.5 -90t-74.5 -41v-15
q56 -11 82.5 -44.5t26.5 -98.5v-117q0 -188 -203 -188zM353 0l390 1400h138l-390 -1400h-138zM969 0v125h-241v96l155 625h230v-613h61v-108h-61v-125h-144zM855 233h114l2 252q0 91 6 229h-18q-15 -113 -38 -223z" />
    <glyph glyph-name="questiondown" unicode="&#xbf;" horiz-adv-x="536" 
d="M365 863h-202v187h202v-187zM354 742q18 -46 22.5 -96.5t-5 -106t-23.5 -103t-37 -111.5l-52 -144q-66 -182 -66 -313q0 -108 71 -108q42 0 60 38t18 123v160l167 -29v-136q0 -144 -60.5 -213.5t-184.5 -69.5q-235 0 -235 240q0 161 88 387l59 149q31 81 43.5 137
t5.5 102.5t-37 80.5l5 13h161z" />
    <glyph glyph-name="Agrave" unicode="&#xc0;" horiz-adv-x="626" 
d="M376 1482h-125l-109 198h157zM13 0l192 1400h213l195 -1400h-174l-31 255h-200l-31 -255h-164zM224 378h168l-42 343q-22 240 -33 429h-18q-11 -199 -33 -429z" />
    <glyph glyph-name="Aacute" unicode="&#xc1;" horiz-adv-x="626" 
d="M251 1482l77 198h157l-109 -198h-125zM13 0l192 1400h213l195 -1400h-174l-31 255h-200l-31 -255h-164zM224 378h168l-42 343q-22 240 -33 429h-18q-11 -199 -33 -429z" />
    <glyph glyph-name="Acircumflex" unicode="&#xc2;" horiz-adv-x="626" 
d="M124 1482l109 198h162l109 -198h-124l-66 98l-65 -98h-125zM13 0l192 1400h213l195 -1400h-174l-31 255h-200l-31 -255h-164zM224 378h168l-42 343q-22 240 -33 429h-18q-11 -199 -33 -429z" />
    <glyph glyph-name="Atilde" unicode="&#xc3;" horiz-adv-x="626" 
d="M396 1485q-33 0 -63.5 16.5t-53 33.5t-35.5 17q-17 0 -25 -14t-9 -47h-90q6 175 119 175q31 0 61 -17t52 -33.5t35 -16.5q29 0 30 61h91q-7 -175 -112 -175zM13 0l192 1400h213l195 -1400h-174l-31 255h-200l-31 -255h-164zM224 378h168l-42 343q-22 240 -33 429h-18
q-11 -199 -33 -429z" />
    <glyph glyph-name="Adieresis" unicode="&#xc4;" horiz-adv-x="626" 
d="M133 1493v183h146v-183h-146zM349 1493v183h145v-183h-145zM13 0l192 1400h213l195 -1400h-174l-31 255h-200l-31 -255h-164zM224 378h168l-42 343q-22 240 -33 429h-18q-11 -199 -33 -429z" />
    <glyph glyph-name="Aring" unicode="&#xc5;" horiz-adv-x="626" 
d="M314 1454q-69 0 -111 37.5t-42 98.5t42 98.5t111 37.5q68 0 110.5 -37.5t42.5 -98.5t-42.5 -98.5t-110.5 -37.5zM314 1539q25 0 40 14t15 37t-15 37t-40 14t-40 -14t-15 -37t15 -37t40 -14zM13 0l192 1400h213l195 -1400h-174l-31 255h-200l-31 -255h-164zM224 378h168
l-42 343q-22 240 -33 429h-18q-11 -199 -33 -429z" />
    <glyph glyph-name="AE" unicode="&#xc6;" horiz-adv-x="834" 
d="M13 0l247 1400h532v-139h-239v-450h213v-130h-213v-542h252v-139h-421v253h-162l-46 -253h-163zM243 384h141v874h-18q-12 -146 -32 -306z" />
    <glyph glyph-name="Ccedilla" unicode="&#xc7;" horiz-adv-x="648" 
d="M437 556l167 -36v-214q0 -294 -229 -321l-11 -61q109 -40 109 -146q0 -69 -38.5 -107.5t-108.5 -38.5q-61 0 -108 29l16 91q38 -23 77 -23q27 0 42.5 16t15.5 44q0 70 -113 90l16 108q-222 30 -222 324v778q0 328 277 328q136 0 204.5 -77t68.5 -243v-188l-166 -32v208
q0 110 -25.5 156.5t-79.5 46.5q-110 0 -110 -183v-808q0 -183 110 -183q54 0 81 48t27 161v233z" />
    <glyph glyph-name="Egrave" unicode="&#xc8;" horiz-adv-x="515" 
d="M334 1482h-125l-109 198h157zM228 139h257v-139h-426v1400h414v-139h-245v-450h218v-130h-218v-542z" />
    <glyph glyph-name="Eacute" unicode="&#xc9;" horiz-adv-x="515" 
d="M209 1482l77 198h157l-109 -198h-125zM228 139h257v-139h-426v1400h414v-139h-245v-450h218v-130h-218v-542z" />
    <glyph glyph-name="Ecircumflex" unicode="&#xca;" horiz-adv-x="515" 
d="M81 1482l109 198h162l109 -198h-124l-66 98l-65 -98h-125zM228 139h257v-139h-426v1400h414v-139h-245v-450h218v-130h-218v-542z" />
    <glyph glyph-name="Edieresis" unicode="&#xcb;" horiz-adv-x="515" 
d="M91 1493v183h146v-183h-146zM307 1493v183h145v-183h-145zM228 139h257v-139h-426v1400h414v-139h-245v-450h218v-130h-218v-542z" />
    <glyph glyph-name="Igrave" unicode="&#xcc;" horiz-adv-x="287" 
d="M206 1482h-125l-109 198h157zM59 1400h169v-1400h-169v1400z" />
    <glyph glyph-name="Iacute" unicode="&#xcd;" horiz-adv-x="287" 
d="M81 1482l77 198h157l-109 -198h-125zM59 1400h169v-1400h-169v1400z" />
    <glyph glyph-name="Icircumflex" unicode="&#xce;" horiz-adv-x="287" 
d="M4 1482l73 198h134l73 -198h-94l-46 105l-46 -105h-94zM59 1400h169v-1400h-169v1400z" />
    <glyph glyph-name="Idieresis" unicode="&#xcf;" horiz-adv-x="287" 
d="M13 1483v204h108v-204h-108zM167 1483v204h108v-204h-108zM59 1400h169v-1400h-169v1400z" />
    <glyph glyph-name="Eth" unicode="&#xd0;" horiz-adv-x="653" 
d="M310 1400q150 0 221.5 -85.5t71.5 -262.5v-706q0 -176 -71.5 -261t-221.5 -85h-247v691h-53v130h53v579h247zM434 322v754q0 99 -31.5 144.5t-101.5 45.5h-69v-445h113v-130h-113v-557h69q70 0 101.5 45.5t31.5 142.5z" />
    <glyph glyph-name="Ntilde" unicode="&#xd1;" horiz-adv-x="725" 
d="M443 1485q-33 0 -63.5 16.5t-53 33.5t-35.5 17q-17 0 -25 -14t-9 -47h-90q6 175 119 175q31 0 61 -17t52 -33.5t35 -16.5q29 0 30 61h91q-7 -175 -112 -175zM59 0v1400h221l175 -808q28 -142 51 -312l21 1q-25 315 -25 506l-1 613h164v-1400h-219l-169 784
q-34 171 -58 343l-21 -1q24 -300 24 -514l1 -612h-164z" />
    <glyph glyph-name="Ograve" unicode="&#xd2;" horiz-adv-x="667" 
d="M396 1482h-125l-109 198h157zM333 -17q-283 0 -283 327v778q0 329 283 329q284 0 284 -329v-778q0 -327 -284 -327zM334 115q114 0 114 181v805q0 185 -114 185q-115 0 -115 -185v-805q0 -181 115 -181z" />
    <glyph glyph-name="Oacute" unicode="&#xd3;" horiz-adv-x="667" 
d="M271 1482l77 198h157l-109 -198h-125zM333 -17q-283 0 -283 327v778q0 329 283 329q284 0 284 -329v-778q0 -327 -284 -327zM334 115q114 0 114 181v805q0 185 -114 185q-115 0 -115 -185v-805q0 -181 115 -181z" />
    <glyph glyph-name="Ocircumflex" unicode="&#xd4;" horiz-adv-x="667" 
d="M144 1482l109 198h162l109 -198h-124l-66 98l-65 -98h-125zM333 -17q-283 0 -283 327v778q0 329 283 329q284 0 284 -329v-778q0 -327 -284 -327zM334 115q114 0 114 181v805q0 185 -114 185q-115 0 -115 -185v-805q0 -181 115 -181z" />
    <glyph glyph-name="Otilde" unicode="&#xd5;" horiz-adv-x="667" 
d="M416 1485q-33 0 -63.5 16.5t-53 33.5t-35.5 17q-17 0 -25 -14t-9 -47h-90q6 175 119 175q31 0 61 -17t52 -33.5t35 -16.5q29 0 30 61h91q-7 -175 -112 -175zM333 -17q-283 0 -283 327v778q0 329 283 329q284 0 284 -329v-778q0 -327 -284 -327zM334 115q114 0 114 181
v805q0 185 -114 185q-115 0 -115 -185v-805q0 -181 115 -181z" />
    <glyph glyph-name="Odieresis" unicode="&#xd6;" horiz-adv-x="667" 
d="M153 1493v183h146v-183h-146zM369 1493v183h145v-183h-145zM333 -17q-283 0 -283 327v778q0 329 283 329q284 0 284 -329v-778q0 -327 -284 -327zM334 115q114 0 114 181v805q0 185 -114 185q-115 0 -115 -185v-805q0 -181 115 -181z" />
    <glyph glyph-name="multiply" unicode="&#xd7;" horiz-adv-x="574" 
d="M134 460l-88 88l153 153l-152 151l87 89l153 -153l153 153l88 -88l-153 -152l152 -152l-88 -88l-152 152z" />
    <glyph glyph-name="Oslash" unicode="&#xd8;" horiz-adv-x="676" 
d="M637 1500l-60 -197q49 -79 49 -215v-778q0 -327 -288 -327q-91 0 -153 32l-35 -115h-111l60 196q-49 79 -49 214v778q0 329 288 329q90 0 153 -33l35 116h111zM219 1097v-606l220 725q-27 70 -101 70q-119 0 -119 -189zM457 299v610l-221 -725q28 -70 102 -70
q119 0 119 185z" />
    <glyph glyph-name="Ugrave" unicode="&#xd9;" horiz-adv-x="653" 
d="M389 1482h-125l-109 198h157zM426 1400h168v-1153q0 -136 -66 -200t-201 -64q-137 0 -203 64t-66 200v1153h169v-1150q0 -71 24.5 -104t75.5 -33t75 33t24 104v1150z" />
    <glyph glyph-name="Uacute" unicode="&#xda;" horiz-adv-x="653" 
d="M264 1482l77 198h157l-109 -198h-125zM426 1400h168v-1153q0 -136 -66 -200t-201 -64q-137 0 -203 64t-66 200v1153h169v-1150q0 -71 24.5 -104t75.5 -33t75 33t24 104v1150z" />
    <glyph glyph-name="Ucircumflex" unicode="&#xdb;" horiz-adv-x="653" 
d="M136 1482l109 198h162l109 -198h-124l-66 98l-65 -98h-125zM426 1400h168v-1153q0 -136 -66 -200t-201 -64q-137 0 -203 64t-66 200v1153h169v-1150q0 -71 24.5 -104t75.5 -33t75 33t24 104v1150z" />
    <glyph glyph-name="Udieresis" unicode="&#xdc;" horiz-adv-x="653" 
d="M146 1493v183h146v-183h-146zM362 1493v183h145v-183h-145zM426 1400h168v-1153q0 -136 -66 -200t-201 -64q-137 0 -203 64t-66 200v1153h169v-1150q0 -71 24.5 -104t75.5 -33t75 33t24 104v1150z" />
    <glyph glyph-name="Yacute" unicode="&#xdd;" horiz-adv-x="603" 
d="M240 1482l77 198h157l-109 -198h-125zM592 1400l-206 -886v-514h-169v514l-206 886h174l74 -382q21 -121 37 -292h17q14 154 37 292l72 382h170z" />
    <glyph glyph-name="Thorn" unicode="&#xde;" horiz-adv-x="611" 
d="M59 0v1400h169v-251h84q136 0 202 -72.5t66 -220.5v-302q0 -290 -268 -290h-84v-264h-169zM228 397h70q58 0 86 34.5t28 107.5v332q0 75 -28 110t-86 35h-70v-619z" />
    <glyph glyph-name="germandbls" unicode="&#xdf;" horiz-adv-x="600" 
d="M377 -9q-77 0 -123 41l35 122q32 -35 67 -35q61 0 61 102q0 89 -54 243l-33 95q-48 140 -48 226q0 52 19 107t42 95t42 91t19 95q0 55 -23 86.5t-68 31.5q-96 0 -96 -144v-1147h-163v1137q0 135 67.5 207.5t195.5 72.5q116 0 175.5 -63.5t59.5 -181.5q0 -52 -18 -106.5
t-40 -94t-40 -88.5t-18 -90q0 -70 45 -194l34 -92q57 -162 57 -291q0 -112 -50 -168.5t-145 -56.5z" />
    <glyph glyph-name="agrave" unicode="&#xe0;" horiz-adv-x="582" 
d="M254 1400l85 -268h-123l-114 268h152zM196 -17q-78 0 -120 55t-42 155v70q0 67 15 119.5t44.5 90t61.5 63t78 52.5l109 63v203q0 90 -62 90q-38 0 -54 -31.5t-15 -106.5v-156l-160 25v139q-3 253 229 253q224 0 224 -213v-670q0 -38 9.5 -50t36.5 -13l20 -1l-20 -131
q-20 -6 -45 -6q-76 0 -101 40.5t-8 130.5l-17 4q-40 -175 -183 -175zM257 113q39 0 62 40t23 117v243l-52 -32q-44 -26 -68 -68.5t-24 -116.5v-72q0 -111 59 -111z" />
    <glyph glyph-name="aacute" unicode="&#xe1;" horiz-adv-x="582" 
d="M303 1400h152l-115 -268h-122zM196 -17q-78 0 -120 55t-42 155v70q0 67 15 119.5t44.5 90t61.5 63t78 52.5l109 63v203q0 90 -62 90q-38 0 -54 -31.5t-15 -106.5v-156l-160 25v139q-3 253 229 253q224 0 224 -213v-670q0 -38 9.5 -50t36.5 -13l20 -1l-20 -131
q-20 -6 -45 -6q-76 0 -101 40.5t-8 130.5l-17 4q-40 -175 -183 -175zM257 113q39 0 62 40t23 117v243l-52 -32q-44 -26 -68 -68.5t-24 -116.5v-72q0 -111 59 -111z" />
    <glyph glyph-name="acircumflex" unicode="&#xe2;" horiz-adv-x="582" 
d="M95 1132l107 268h153l106 -268h-116l-67 139l-67 -139h-116zM196 -17q-78 0 -120 55t-42 155v70q0 67 15 119.5t44.5 90t61.5 63t78 52.5l109 63v203q0 90 -62 90q-38 0 -54 -31.5t-15 -106.5v-156l-160 25v139q-3 253 229 253q224 0 224 -213v-670q0 -38 9.5 -50
t36.5 -13l20 -1l-20 -131q-20 -6 -45 -6q-76 0 -101 40.5t-8 130.5l-17 4q-40 -175 -183 -175zM257 113q39 0 62 40t23 117v243l-52 -32q-44 -26 -68 -68.5t-24 -116.5v-72q0 -111 59 -111z" />
    <glyph glyph-name="atilde" unicode="&#xe3;" horiz-adv-x="582" 
d="M362 1148q-31 0 -61.5 17t-53.5 34t-37 17q-33 0 -34 -62h-91q3 93 31.5 136.5t84.5 43.5q39 0 88 -34.5t62 -34.5q29 0 30 62h91q-6 -179 -110 -179zM196 -17q-78 0 -120 55t-42 155v70q0 67 15 119.5t44.5 90t61.5 63t78 52.5l109 63v203q0 90 -62 90q-38 0 -54 -31.5
t-15 -106.5v-156l-160 25v139q-3 253 229 253q224 0 224 -213v-670q0 -38 9.5 -50t36.5 -13l20 -1l-20 -131q-20 -6 -45 -6q-76 0 -101 40.5t-8 130.5l-17 4q-40 -175 -183 -175zM257 113q39 0 62 40t23 117v243l-52 -32q-44 -26 -68 -68.5t-24 -116.5v-72q0 -111 59 -111z
" />
    <glyph glyph-name="adieresis" unicode="&#xe4;" horiz-adv-x="582" 
d="M98 1169v183h146v-183h-146zM314 1169v183h145v-183h-145zM196 -17q-78 0 -120 55t-42 155v70q0 67 15 119.5t44.5 90t61.5 63t78 52.5l109 63v203q0 90 -62 90q-38 0 -54 -31.5t-15 -106.5v-156l-160 25v139q-3 253 229 253q224 0 224 -213v-670q0 -38 9.5 -50t36.5 -13
l20 -1l-20 -131q-20 -6 -45 -6q-76 0 -101 40.5t-8 130.5l-17 4q-40 -175 -183 -175zM257 113q39 0 62 40t23 117v243l-52 -32q-44 -26 -68 -68.5t-24 -116.5v-72q0 -111 59 -111z" />
    <glyph glyph-name="aring" unicode="&#xe5;" horiz-adv-x="582" 
d="M278 1118q-72 0 -118 44t-46 114q0 69 46 113t118 44q73 0 119 -44t46 -113q0 -70 -46 -114t-119 -44zM278 1216q26 0 43 17t17 43t-17 42.5t-43 16.5t-42.5 -16.5t-16.5 -42.5t16.5 -43t42.5 -17zM196 -17q-78 0 -120 55t-42 155v70q0 67 15 119.5t44.5 90t61.5 63
t78 52.5l109 63v203q0 90 -62 90q-38 0 -54 -31.5t-15 -106.5v-156l-160 25v139q-3 253 229 253q224 0 224 -213v-670q0 -38 9.5 -50t36.5 -13l20 -1l-20 -131q-20 -6 -45 -6q-76 0 -101 40.5t-8 130.5l-17 4q-40 -175 -183 -175zM257 113q39 0 62 40t23 117v243l-52 -32
q-44 -26 -68 -68.5t-24 -116.5v-72q0 -111 59 -111z" />
    <glyph glyph-name="ae" unicode="&#xe6;" horiz-adv-x="866" 
d="M818 489h-314v-250q0 -133 77 -133t77 139v135l157 -23v-122q0 -127 -61 -189.5t-174 -62.5q-85 0 -132 43.5t-53 123.5h-17q-35 -167 -182 -167q-78 0 -120 55t-42 155v72q0 66 15 118t44.5 90t61.5 63t78 52l109 63v203q0 90 -62 90q-38 0 -54.5 -31t-16.5 -107v-156
l-160 26v138q0 129 55.5 191t168.5 62q110 0 160 -79q59 79 168 79q106 0 162.5 -64t56.5 -190q0 -130 -2 -324zM584 944q-80 0 -80 -133v-204h155v217q0 120 -75 120zM342 270v243l-52 -32q-43 -27 -67 -69t-24 -116v-72q0 -111 58 -111q39 0 62 40t23 117z" />
    <glyph glyph-name="ccedilla" unicode="&#xe7;" horiz-adv-x="571" 
d="M366 416l164 -25v-141q0 -239 -194 -264l-11 -62q109 -40 109 -146q0 -69 -38.5 -107.5t-108.5 -38.5q-61 0 -108 29l16 91q38 -23 77 -23q27 0 42.5 16t15.5 44q0 70 -113 90l16 108q-187 28 -187 274v531q0 275 243 275q238 0 238 -262v-140l-162 -26v153
q0 82 -18.5 117t-56.5 35q-79 0 -79 -137v-562q0 -138 79 -138q76 0 76 131v178z" />
    <glyph glyph-name="egrave" unicode="&#xe8;" horiz-adv-x="577" 
d="M351 1132h-123l-114 268h152zM373 245v135l157 -23v-122q0 -128 -62.5 -190t-178.5 -62q-243 0 -243 270v543q0 271 247 271q237 0 237 -258q0 -228 -1 -326h-320v-243q0 -69 19 -101.5t61 -32.5q84 0 84 139zM291 944q-82 0 -82 -134v-203h158v217q0 120 -76 120z" />
    <glyph glyph-name="eacute" unicode="&#xe9;" horiz-adv-x="577" 
d="M467 1400l-115 -268h-122l85 268h152zM373 245v135l157 -23v-122q0 -128 -62.5 -190t-178.5 -62q-243 0 -243 270v543q0 271 247 271q237 0 237 -258q0 -228 -1 -326h-320v-243q0 -69 19 -101.5t61 -32.5q84 0 84 139zM291 944q-82 0 -82 -134v-203h158v217
q0 120 -76 120z" />
    <glyph glyph-name="ecircumflex" unicode="&#xea;" horiz-adv-x="577" 
d="M290 1271l-67 -139h-116l107 268h153l106 -268h-116zM373 245v135l157 -23v-122q0 -128 -62.5 -190t-178.5 -62q-243 0 -243 270v543q0 271 247 271q237 0 237 -258q0 -228 -1 -326h-320v-243q0 -69 19 -101.5t61 -32.5q84 0 84 139zM291 944q-82 0 -82 -134v-203h158
v217q0 120 -76 120z" />
    <glyph glyph-name="edieresis" unicode="&#xeb;" horiz-adv-x="577" 
d="M256 1352v-183h-146v183h146zM471 1352v-183h-145v183h145zM373 245v135l157 -23v-122q0 -128 -62.5 -190t-178.5 -62q-243 0 -243 270v543q0 271 247 271q237 0 237 -258q0 -228 -1 -326h-320v-243q0 -69 19 -101.5t61 -32.5q84 0 84 139zM291 944q-82 0 -82 -134v-203
h158v217q0 120 -76 120z" />
    <glyph glyph-name="igrave" unicode="&#xec;" horiz-adv-x="272" 
d="M154 1400l48 -268h-123l-75 268h150zM54 0v1050h164v-1050h-164z" />
    <glyph glyph-name="iacute" unicode="&#xed;" horiz-adv-x="272" 
d="M119 1400h150l-75 -268h-123zM54 0v1050h164v-1050h-164z" />
    <glyph glyph-name="icircumflex" unicode="&#xee;" horiz-adv-x="272" 
d="M-4 1130l73 270h134l73 -270h-94l-46 143l-46 -143h-94zM54 0v1050h164v-1050h-164z" />
    <glyph glyph-name="idieresis" unicode="&#xef;" horiz-adv-x="272" 
d="M5 1165v204h108v-204h-108zM159 1165v204h108v-204h-108zM54 0v1050h164v-1050h-164z" />
    <glyph glyph-name="eth" unicode="&#xf0;" horiz-adv-x="578" 
d="M462 1201q70 -186 70 -426v-516q0 -139 -60.5 -207.5t-184.5 -68.5q-241 0 -241 272v552q0 124 44 188t127 64q66 0 104.5 -35.5t66.5 -112.5l17 6q-26 130 -85 251l-154 -35l-24 112l121 28q-31 50 -74 108l160 29q34 -47 64 -102l86 20l24 -113zM369 245v484
q0 210 -89 210q-70 0 -70 -137v-557q0 -136 77 -136q82 0 82 136z" />
    <glyph glyph-name="ntilde" unicode="&#xf1;" horiz-adv-x="583" 
d="M380 1148q-31 0 -61.5 17t-53.5 34t-37 17q-33 0 -34 -62h-91q3 93 31.5 136.5t84.5 43.5q39 0 88 -34.5t62 -34.5q29 0 30 62h91q-6 -179 -110 -179zM54 0v1050h160q1 -45 -34 -155l17 -7q32 91 79 132.5t115 41.5q139 0 139 -159v-903h-163v870q0 67 -50 67
q-44 0 -71.5 -69.5t-27.5 -180.5v-687h-164z" />
    <glyph glyph-name="ograve" unicode="&#xf2;" horiz-adv-x="580" 
d="M266 1400l85 -268h-123l-114 268h152zM290 -17q-244 0 -244 273v537q0 274 244 274q121 0 183 -69.5t62 -204.5v-537q0 -135 -62 -204t-183 -69zM290 109q80 0 80 136v559q0 138 -80 138q-79 0 -79 -138v-559q0 -136 79 -136z" />
    <glyph glyph-name="oacute" unicode="&#xf3;" horiz-adv-x="580" 
d="M314 1400h152l-115 -268h-122zM290 -17q-244 0 -244 273v537q0 274 244 274q121 0 183 -69.5t62 -204.5v-537q0 -135 -62 -204t-183 -69zM290 109q80 0 80 136v559q0 138 -80 138q-79 0 -79 -138v-559q0 -136 79 -136z" />
    <glyph glyph-name="ocircumflex" unicode="&#xf4;" horiz-adv-x="580" 
d="M107 1132l107 268h153l106 -268h-116l-67 139l-67 -139h-116zM290 -17q-244 0 -244 273v537q0 274 244 274q121 0 183 -69.5t62 -204.5v-537q0 -135 -62 -204t-183 -69zM290 109q80 0 80 136v559q0 138 -80 138q-79 0 -79 -138v-559q0 -136 79 -136z" />
    <glyph glyph-name="otilde" unicode="&#xf5;" horiz-adv-x="580" 
d="M373 1148q-31 0 -61.5 17t-53.5 34t-37 17q-33 0 -34 -62h-91q3 93 31.5 136.5t84.5 43.5q39 0 88 -34.5t62 -34.5q29 0 30 62h91q-6 -179 -110 -179zM290 -17q-244 0 -244 273v537q0 274 244 274q121 0 183 -69.5t62 -204.5v-537q0 -135 -62 -204t-183 -69zM290 109
q80 0 80 136v559q0 138 -80 138q-79 0 -79 -138v-559q0 -136 79 -136z" />
    <glyph glyph-name="odieresis" unicode="&#xf6;" horiz-adv-x="580" 
d="M109 1169v183h146v-183h-146zM325 1169v183h145v-183h-145zM290 -17q-244 0 -244 273v537q0 274 244 274q121 0 183 -69.5t62 -204.5v-537q0 -135 -62 -204t-183 -69zM290 109q80 0 80 136v559q0 138 -80 138q-79 0 -79 -138v-559q0 -136 79 -136z" />
    <glyph glyph-name="divide" unicode="&#xf7;" horiz-adv-x="592" 
d="M207 858v169h173v-169h-173zM34 658v123h525v-123h-525zM207 413v168h173v-168h-173z" />
    <glyph glyph-name="oslash" unicode="&#xf8;" horiz-adv-x="555" 
d="M462 999q64 -70 64 -206v-537q0 -135 -63 -204t-186 -69q-61 0 -103 16l-30 -103h-94l44 153q-65 70 -65 207v537q0 274 248 274q61 0 106 -16l29 102h94zM191 801v-415l150 522q-21 34 -64 34q-86 0 -86 -141zM277 109q87 0 87 139v412l-150 -519q23 -32 63 -32z" />
    <glyph glyph-name="ugrave" unicode="&#xf9;" horiz-adv-x="584" 
d="M267 1400l85 -268h-123l-114 268h152zM529 1050v-1050h-159q-2 48 34 155l-17 7q-33 -91 -80 -132.5t-115 -41.5q-139 0 -139 159v903h164v-870q0 -67 49 -67q45 0 72.5 69.5t27.5 180.5v687h163z" />
    <glyph glyph-name="uacute" unicode="&#xfa;" horiz-adv-x="584" 
d="M316 1400h152l-115 -268h-122zM529 1050v-1050h-159q-2 48 34 155l-17 7q-33 -91 -80 -132.5t-115 -41.5q-139 0 -139 159v903h164v-870q0 -67 49 -67q45 0 72.5 69.5t27.5 180.5v687h163z" />
    <glyph glyph-name="ucircumflex" unicode="&#xfb;" horiz-adv-x="584" 
d="M108 1132l107 268h153l106 -268h-116l-67 139l-67 -139h-116zM529 1050v-1050h-159q-2 48 34 155l-17 7q-33 -91 -80 -132.5t-115 -41.5q-139 0 -139 159v903h164v-870q0 -67 49 -67q45 0 72.5 69.5t27.5 180.5v687h163z" />
    <glyph glyph-name="udieresis" unicode="&#xfc;" horiz-adv-x="584" 
d="M110 1169v183h146v-183h-146zM326 1169v183h145v-183h-145zM529 1050v-1050h-159q-2 48 34 155l-17 7q-33 -91 -80 -132.5t-115 -41.5q-139 0 -139 159v903h164v-870q0 -67 49 -67q45 0 72.5 69.5t27.5 180.5v687h163z" />
    <glyph glyph-name="yacute" unicode="&#xfd;" horiz-adv-x="525" 
d="M293 1400h152l-115 -268h-122zM34 -367l-31 166l75 10q53 7 75 34t21 87l-3 81l-166 1039h168l66 -638q13 -121 22 -297h16q8 170 21 297l62 638h157l-144 -994q-29 -200 -107.5 -298t-231.5 -125z" />
    <glyph glyph-name="thorn" unicode="&#xfe;" horiz-adv-x="587" 
d="M54 -350v1746h164v-262q0 -103 -43 -231l18 -6q27 84 69.5 124.5t112.5 40.5q80 0 123 -63.5t43 -184.5v-582q0 -120 -43 -182t-123 -62q-69 0 -111 40t-71 125l-18 -6q43 -128 43 -236v-261h-164zM307 111q70 0 70 137v554q0 137 -70 137q-43 0 -66 -54.5t-23 -155.5
v-409q0 -99 23.5 -154t65.5 -55z" />
    <glyph glyph-name="ydieresis" unicode="&#xff;" horiz-adv-x="525" 
d="M88 1169v183h146v-183h-146zM304 1169v183h145v-183h-145zM34 -367l-31 166l75 10q53 7 75 34t21 87l-3 81l-166 1039h168l66 -638q13 -121 22 -297h16q8 170 21 297l62 638h157l-144 -994q-29 -200 -107.5 -298t-231.5 -125z" />
    <glyph glyph-name="Amacron" unicode="&#x100;" horiz-adv-x="626" 
d="M131 1475v124h365v-124h-365zM13 0l192 1400h213l195 -1400h-174l-31 255h-200l-31 -255h-164zM224 378h168l-42 343q-22 240 -33 429h-18q-11 -199 -33 -429z" />
    <glyph glyph-name="amacron" unicode="&#x101;" horiz-adv-x="582" 
d="M96 1165v123h365v-123h-365zM196 -17q-78 0 -120 55t-42 155v70q0 67 15 119.5t44.5 90t61.5 63t78 52.5l109 63v203q0 90 -62 90q-38 0 -54 -31.5t-15 -106.5v-156l-160 25v139q-3 253 229 253q224 0 224 -213v-670q0 -38 9.5 -50t36.5 -13l20 -1l-20 -131
q-20 -6 -45 -6q-76 0 -101 40.5t-8 130.5l-17 4q-40 -175 -183 -175zM257 113q39 0 62 40t23 117v243l-52 -32q-44 -26 -68 -68.5t-24 -116.5v-72q0 -111 59 -111z" />
    <glyph glyph-name="Abreve" unicode="&#x102;" horiz-adv-x="626" 
d="M384 1680h120q-3 -205 -190 -205t-190 205h120q2 -97 70 -97t70 97zM13 0l192 1400h213l195 -1400h-174l-31 255h-200l-31 -255h-164zM224 378h168l-42 343q-22 240 -33 429h-18q-11 -199 -33 -429z" />
    <glyph glyph-name="abreve" unicode="&#x103;" horiz-adv-x="582" 
d="M346 1401h120q-2 -141 -46 -204.5t-141 -63.5q-98 0 -142 63.5t-46 204.5h120q1 -82 16.5 -118t51.5 -36q35 0 50.5 36.5t16.5 117.5zM196 -17q-78 0 -120 55t-42 155v70q0 67 15 119.5t44.5 90t61.5 63t78 52.5l109 63v203q0 90 -62 90q-38 0 -54 -31.5t-15 -106.5v-156
l-160 25v139q-3 253 229 253q224 0 224 -213v-670q0 -38 9.5 -50t36.5 -13l20 -1l-20 -131q-20 -6 -45 -6q-76 0 -101 40.5t-8 130.5l-17 4q-40 -175 -183 -175zM257 113q39 0 62 40t23 117v243l-52 -32q-44 -26 -68 -68.5t-24 -116.5v-72q0 -111 59 -111z" />
    <glyph glyph-name="Aogonek" unicode="&#x104;" horiz-adv-x="626" 
d="M528 -104q0 -38 39 -38q20 0 41 6l-16 -118q-35 -11 -66 -11q-120 0 -120 114q0 92 94 151h-61l-31 255h-200l-31 -255h-164l192 1400h213l195 -1400q-85 -43 -85 -104zM224 378h168l-42 343q-22 240 -33 429h-18q-11 -199 -33 -429z" />
    <glyph glyph-name="aogonek" unicode="&#x105;" horiz-adv-x="582" 
d="M492 -17q-51 -37 -51 -82q0 -43 46 -43q19 0 41 6l-16 -118q-35 -11 -66 -11q-60 0 -92 29t-32 84q0 91 94 162q-40 37 -20 144l-17 4q-40 -175 -183 -175q-78 0 -120 55t-42 155v70q0 67 15 119.5t44.5 90t61.5 63t78 52.5l109 63v203q0 90 -62 90q-38 0 -54 -31.5
t-15 -106.5v-156l-160 25v139q-3 253 229 253q224 0 224 -213v-670q0 -38 9.5 -50t36.5 -13l20 -1l-20 -131q-20 -6 -45 -6h-13zM342 270v243l-52 -32q-44 -26 -68 -68.5t-24 -116.5v-72q0 -111 59 -111q39 0 62 40t23 117z" />
    <glyph glyph-name="Cacute" unicode="&#x106;" horiz-adv-x="648" 
d="M267 1482l77 198h157l-109 -198h-125zM328 -17q-278 0 -278 328v778q0 328 277 328q136 0 204.5 -77t68.5 -243v-188l-166 -32v208q0 110 -25.5 156.5t-79.5 46.5q-110 0 -110 -183v-808q0 -183 110 -183q54 0 81 48t27 161v233l167 -36v-214q0 -323 -276 -323z" />
    <glyph glyph-name="cacute" unicode="&#x107;" horiz-adv-x="571" 
d="M315 1400h152l-115 -268h-122zM288 -17q-242 0 -242 278v531q0 275 243 275q238 0 238 -262v-140l-162 -26v153q0 82 -18.5 117t-56.5 35q-79 0 -79 -137v-562q0 -138 79 -138q76 0 76 131v178l164 -25v-141q0 -267 -242 -267z" />
    <glyph glyph-name="Cdotaccent" unicode="&#x10a;" horiz-adv-x="648" 
d="M237 1493v183h185v-183h-185zM328 -17q-278 0 -278 328v778q0 328 277 328q136 0 204.5 -77t68.5 -243v-188l-166 -32v208q0 110 -25.5 156.5t-79.5 46.5q-110 0 -110 -183v-808q0 -183 110 -183q54 0 81 48t27 161v233l167 -36v-214q0 -323 -276 -323z" />
    <glyph glyph-name="cdotaccent" unicode="&#x10b;" horiz-adv-x="571" 
d="M198 1169v183h185v-183h-185zM288 -17q-242 0 -242 278v531q0 275 243 275q238 0 238 -262v-140l-162 -26v153q0 82 -18.5 117t-56.5 35q-79 0 -79 -137v-562q0 -138 79 -138q76 0 76 131v178l164 -25v-141q0 -267 -242 -267z" />
    <glyph glyph-name="Ccaron" unicode="&#x10c;" horiz-adv-x="648" 
d="M139 1680h125l65 -98l66 98h124l-109 -198h-162zM328 -17q-278 0 -278 328v778q0 328 277 328q136 0 204.5 -77t68.5 -243v-188l-166 -32v208q0 110 -25.5 156.5t-79.5 46.5q-110 0 -110 -183v-808q0 -183 110 -183q54 0 81 48t27 161v233l167 -36v-214q0 -323 -276 -323
z" />
    <glyph glyph-name="ccaron" unicode="&#x10d;" horiz-adv-x="571" 
d="M107 1400h116l67 -139l67 139h116l-106 -268h-153zM288 -17q-242 0 -242 278v531q0 275 243 275q238 0 238 -262v-140l-162 -26v153q0 82 -18.5 117t-56.5 35q-79 0 -79 -137v-562q0 -138 79 -138q76 0 76 131v178l164 -25v-141q0 -267 -242 -267z" />
    <glyph glyph-name="Dcaron" unicode="&#x10e;" horiz-adv-x="649" 
d="M116 1680h125l65 -98l66 98h124l-109 -198h-162zM59 0v1400h247q150 0 221.5 -85.5t71.5 -262.5v-706q0 -176 -71.5 -261t-221.5 -85h-247zM228 134h69q70 0 101.5 45.5t31.5 142.5v754q0 99 -31.5 144.5t-101.5 45.5h-69v-1132z" />
    <glyph glyph-name="dcaron" unicode="&#x10f;" horiz-adv-x="587" 
d="M215 -12q-82 0 -125.5 62t-43.5 182v582q0 121 43 184.5t123 63.5q69 0 111.5 -40.5t70.5 -125.5l18 7q-43 128 -43 236v261h164v-1400h-150q-2 39 33 147l-19 6q-31 -86 -72.5 -125.5t-109.5 -39.5zM584 1400h137v-109q0 -79 -27 -112t-99 -40l-12 64q36 2 49 17.5
t13 53.5h-61v126zM280 111q42 0 65.5 55t23.5 154v409q0 101 -23 155.5t-66 54.5q-70 0 -70 -137v-554q0 -137 70 -137z" />
    <glyph glyph-name="Dcroat" unicode="&#x110;" horiz-adv-x="653" 
d="M310 1400q150 0 221.5 -85.5t71.5 -262.5v-706q0 -176 -71.5 -261t-221.5 -85h-247v691h-53v130h53v579h247zM434 322v754q0 99 -31.5 144.5t-101.5 45.5h-69v-445h113v-130h-113v-557h69q70 0 101.5 45.5t31.5 142.5z" />
    <glyph glyph-name="dcroat" unicode="&#x111;" horiz-adv-x="583" 
d="M595 1276v-120h-62v-1156h-150q-2 39 33 147l-19 6q-31 -86 -72.5 -125.5t-109.5 -39.5q-82 0 -125.5 62t-43.5 182v582q0 121 43 184.5t123 63.5q69 0 111.5 -40.5t70.5 -125.5l18 7q-43 128 -43 236v17h-156v120h156v124h164v-124h62zM369 320v409q0 101 -23 155.5
t-66 54.5q-70 0 -70 -137v-554q0 -137 70 -137q42 0 65.5 55t23.5 154z" />
    <glyph glyph-name="Emacron" unicode="&#x112;" horiz-adv-x="515" 
d="M89 1475v124h365v-124h-365zM228 139h257v-139h-426v1400h414v-139h-245v-450h218v-130h-218v-542z" />
    <glyph glyph-name="emacron" unicode="&#x113;" horiz-adv-x="577" 
d="M472 1288v-123h-365v123h365zM373 245v135l157 -23v-122q0 -128 -62.5 -190t-178.5 -62q-243 0 -243 270v543q0 271 247 271q237 0 237 -258q0 -228 -1 -326h-320v-243q0 -69 19 -101.5t61 -32.5q84 0 84 139zM291 944q-82 0 -82 -134v-203h158v217q0 120 -76 120z" />
    <glyph glyph-name="Edotaccent" unicode="&#x116;" horiz-adv-x="515" 
d="M179 1493v183h185v-183h-185zM228 139h257v-139h-426v1400h414v-139h-245v-450h218v-130h-218v-542z" />
    <glyph glyph-name="edotaccent" unicode="&#x117;" horiz-adv-x="577" 
d="M383 1352v-183h-185v183h185zM373 245v135l157 -23v-122q0 -128 -62.5 -190t-178.5 -62q-243 0 -243 270v543q0 271 247 271q237 0 237 -258q0 -228 -1 -326h-320v-243q0 -69 19 -101.5t61 -32.5q84 0 84 139zM291 944q-82 0 -82 -134v-203h158v217q0 120 -76 120z" />
    <glyph glyph-name="Eogonek" unicode="&#x118;" horiz-adv-x="515" 
d="M485 0q-85 -43 -85 -104q0 -38 39 -38q20 0 41 6l-16 -118q-35 -11 -66 -11q-120 0 -120 114q0 92 94 151h-313v1400h414v-139h-245v-450h218v-130h-218v-542h257v-139z" />
    <glyph glyph-name="eogonek" unicode="&#x119;" horiz-adv-x="577" 
d="M373 245v135l157 -23v-122q0 -202 -158 -243q-65 -40 -65 -91q0 -43 46 -43q19 0 41 6l-16 -118q-35 -11 -66 -11q-60 0 -92 29t-32 84q0 75 65 137q-207 19 -207 268v543q0 271 247 271q237 0 237 -258q0 -228 -1 -326h-320v-243q0 -69 19 -101.5t61 -32.5q84 0 84 139z
M291 944q-82 0 -82 -134v-203h158v217q0 120 -76 120z" />
    <glyph glyph-name="Ecaron" unicode="&#x11a;" horiz-adv-x="515" 
d="M81 1680h125l65 -98l66 98h124l-109 -198h-162zM228 139h257v-139h-426v1400h414v-139h-245v-450h218v-130h-218v-542z" />
    <glyph glyph-name="ecaron" unicode="&#x11b;" horiz-adv-x="577" 
d="M367 1132h-153l-107 268h116l67 -139l67 139h116zM373 245v135l157 -23v-122q0 -128 -62.5 -190t-178.5 -62q-243 0 -243 270v543q0 271 247 271q237 0 237 -258q0 -228 -1 -326h-320v-243q0 -69 19 -101.5t61 -32.5q84 0 84 139zM291 944q-82 0 -82 -134v-203h158v217
q0 120 -76 120z" />
    <glyph glyph-name="Gbreve" unicode="&#x11e;" horiz-adv-x="663" 
d="M398 1680h120q-3 -205 -190 -205t-190 205h120q2 -97 70 -97t70 97zM265 -12q-215 0 -215 319v783q0 327 281 327q270 0 270 -298v-176l-166 -34v197q0 99 -25.5 140.5t-77.5 41.5q-113 0 -113 -185v-799q0 -187 96 -187q127 0 140 504h-138v132h291v-753h-137
q-4 75 34 253l-21 6q-35 -147 -85.5 -209t-133.5 -62z" />
    <glyph glyph-name="gbreve" unicode="&#x11f;" horiz-adv-x="530" 
d="M184 1103q-70 0 -99 51t-30 179h90q0 -68 9 -95.5t30 -27.5t29.5 27t9.5 96h90q-1 -128 -30 -179t-99 -51zM330 219q29 -12 52 -25.5t50.5 -39t46 -56.5t31 -79t12.5 -107q0 -279 -263 -279q-251 0 -251 258q0 102 29 158.5t93 85.5v19q-93 54 -93 143q0 87 84 113v17
q-83 77 -83 295q0 180 55.5 261t173.5 81q37 0 65 -7q-27 107 11.5 174.5t141.5 87.5l28 -167l-53 -9q-44 -7 -62.5 -30.5t-9.5 -80.5q103 -68 103 -310q0 -181 -54.5 -263t-169.5 -82q-43 0 -76 10q-45 -12 -45 -45q0 -26 21 -44t83 -45zM266 948q-39 0 -54.5 -49
t-15.5 -177q0 -130 15.5 -179t55.5 -49q37 0 52 49t15 179q0 128 -15 177t-53 49zM264 -241q117 0 117 148q0 80 -32.5 124t-94.5 69l-46 19q-39 -28 -55.5 -74.5t-16.5 -125.5q0 -160 128 -160z" />
    <glyph glyph-name="Gdotaccent" unicode="&#x120;" horiz-adv-x="663" 
d="M235 1493v183h185v-183h-185zM265 -12q-215 0 -215 319v783q0 327 281 327q270 0 270 -298v-176l-166 -34v197q0 99 -25.5 140.5t-77.5 41.5q-113 0 -113 -185v-799q0 -187 96 -187q127 0 140 504h-138v132h291v-753h-137q-4 75 34 253l-21 6q-35 -147 -85.5 -209
t-133.5 -62z" />
    <glyph glyph-name="gdotaccent" unicode="&#x121;" horiz-adv-x="530" 
d="M286 1345v-183h-166v183h166zM330 219q29 -12 52 -25.5t50.5 -39t46 -56.5t31 -79t12.5 -107q0 -279 -263 -279q-251 0 -251 258q0 102 29 158.5t93 85.5v19q-93 54 -93 143q0 87 84 113v17q-83 77 -83 295q0 180 55.5 261t173.5 81q37 0 65 -7q-27 107 11.5 174.5
t141.5 87.5l28 -167l-53 -9q-44 -7 -62.5 -30.5t-9.5 -80.5q103 -68 103 -310q0 -181 -54.5 -263t-169.5 -82q-43 0 -76 10q-45 -12 -45 -45q0 -26 21 -44t83 -45zM266 948q-39 0 -54.5 -49t-15.5 -177q0 -130 15.5 -179t55.5 -49q37 0 52 49t15 179q0 128 -15 177t-53 49z
M264 -241q117 0 117 148q0 80 -32.5 124t-94.5 69l-46 19q-39 -28 -55.5 -74.5t-16.5 -125.5q0 -160 128 -160z" />
    <glyph glyph-name="uni0122" unicode="&#x122;" horiz-adv-x="663" 
d="M265 -12q-215 0 -215 319v783q0 327 281 327q270 0 270 -298v-176l-166 -34v197q0 99 -25.5 140.5t-77.5 41.5q-113 0 -113 -185v-799q0 -187 96 -187q127 0 140 504h-138v132h291v-753h-137q-4 75 34 253l-21 6q-35 -147 -85.5 -209t-133.5 -62zM248 -75h160v-109
q0 -83 -33 -118.5t-116 -43.5l-12 64q43 3 59 20t16 61h-74v126z" />
    <glyph glyph-name="uni0123" unicode="&#x123;" horiz-adv-x="530" 
d="M272 1255v-128h-137v105q0 80 27.5 114.5t98.5 41.5l12 -63q-36 -3 -49 -18t-13 -52h61zM330 219q29 -12 52 -25.5t50.5 -39t46 -56.5t31 -79t12.5 -107q0 -279 -263 -279q-251 0 -251 258q0 102 29 158.5t93 85.5v19q-93 54 -93 143q0 87 84 113v17q-83 77 -83 295
q0 180 55.5 261t173.5 81q37 0 65 -7q-27 107 11.5 174.5t141.5 87.5l28 -167l-53 -9q-44 -7 -62.5 -30.5t-9.5 -80.5q103 -68 103 -310q0 -181 -54.5 -263t-169.5 -82q-43 0 -76 10q-45 -12 -45 -45q0 -26 21 -44t83 -45zM266 948q-39 0 -54.5 -49t-15.5 -177
q0 -130 15.5 -179t55.5 -49q37 0 52 49t15 179q0 128 -15 177t-53 49zM264 -241q117 0 117 148q0 80 -32.5 124t-94.5 69l-46 19q-39 -28 -55.5 -74.5t-16.5 -125.5q0 -160 128 -160z" />
    <glyph glyph-name="Hbar" unicode="&#x126;" horiz-adv-x="658" 
d="M648 1086v-130h-49v-956h-169v572h-202v-572h-169v956h-49v130h49v314h169v-314h202v314h169v-314h49zM430 707v249h-202v-249h202z" />
    <glyph glyph-name="hbar" unicode="&#x127;" horiz-adv-x="587" 
d="M395 1062q139 0 139 -158v-904h-163v869q0 68 -51 68q-44 0 -71 -69.5t-27 -180.5v-687h-164v1157h-70v120h70v123h164v-123h148v-120h-148v-56q0 -89 -39 -206l18 -7q32 91 79 132.5t115 41.5z" />
    <glyph glyph-name="Itilde" unicode="&#x128;" horiz-adv-x="287" 
d="M201 1496q-28 0 -59 25t-41 25q-24 0 -21 -46h-65q-15 164 75 164q26 0 57.5 -25t41.5 -25q22 0 19 46h65q13 -164 -72 -164zM59 1400h169v-1400h-169v1400z" />
    <glyph glyph-name="itilde" unicode="&#x129;" horiz-adv-x="272" 
d="M194 1146q-28 0 -59 25t-41 25q-24 0 -21 -46h-65q-15 164 75 164q26 0 57.5 -25t41.5 -25q22 0 19 46h65q13 -164 -72 -164zM54 0v1050h164v-1050h-164z" />
    <glyph glyph-name="Imacron" unicode="&#x12a;" horiz-adv-x="287" 
d="M14 1524v114h258v-114h-258zM59 1400h169v-1400h-169v1400z" />
    <glyph glyph-name="imacron" unicode="&#x12b;" horiz-adv-x="272" 
d="M7 1174v114h258v-114h-258zM54 0v1050h164v-1050h-164z" />
    <glyph glyph-name="Iogonek" unicode="&#x12e;" horiz-adv-x="287" 
d="M59 1400h169v-1400h-1q-85 -43 -85 -104q0 -38 39 -38q20 0 41 6l-16 -118q-35 -11 -66 -11q-120 0 -120 114q0 92 94 151h-55v1400z" />
    <glyph glyph-name="iogonek" unicode="&#x12f;" horiz-adv-x="272" 
d="M44 1352h185v-183h-185v183zM54 0v1050h164v-1050h-1q-85 -43 -85 -104q0 -38 39 -38q20 0 41 6l-16 -118q-35 -11 -66 -11q-120 0 -120 114q0 92 94 151h-50z" />
    <glyph glyph-name="Idotaccent" unicode="&#x130;" horiz-adv-x="287" 
d="M51 1493v183h185v-183h-185zM59 1400h169v-1400h-169v1400z" />
    <glyph glyph-name="dotlessi" unicode="&#x131;" horiz-adv-x="272" 
d="M54 0v1050h164v-1050h-164z" />
    <glyph glyph-name="IJ" unicode="&#x132;" horiz-adv-x="869" 
d="M59 1400h169v-1400h-169v1400zM564 -17q-126 0 -188.5 70t-62.5 222v129l168 28v-147q0 -94 20 -133t64 -39q77 0 77 117v1170h169v-1175q0 -242 -247 -242z" />
    <glyph glyph-name="ij" unicode="&#x133;" horiz-adv-x="546" 
d="M44 1169v183h185v-183h-185zM317 1169v183h185v-183h-185zM54 0v1050h164v-1050h-164zM207 -367l-36 166l58 7q58 7 78.5 29.5t20.5 82.5v1132h163v-1007q0 -186 -69 -284.5t-215 -125.5z" />
    <glyph glyph-name="uni0136" unicode="&#x136;" horiz-adv-x="626" 
d="M59 0v1400h169v-227q0 -170 -27 -387l18 -5l225 619h167l-197 -502l196 -898h-176l-135 702l-71 -171v-531h-169zM250 -75h160v-109q0 -83 -33 -118.5t-116 -43.5l-12 64q43 3 59 20t16 61h-74v126z" />
    <glyph glyph-name="uni0137" unicode="&#x137;" horiz-adv-x="557" 
d="M54 0v1400h164v-367q0 -183 -28 -357l13 -6l180 380h164l-160 -324l159 -726h-167l-107 583l-54 -106v-477h-164zM220 -75h160v-109q0 -83 -33 -118.5t-116 -43.5l-12 64q43 3 59 20t16 61h-74v126z" />
    <glyph glyph-name="Lacute" unicode="&#x139;" horiz-adv-x="476" 
d="M81 1482l77 198h157l-109 -198h-125zM59 0v1400h169v-1261h226v-139h-395z" />
    <glyph glyph-name="lacute" unicode="&#x13a;" horiz-adv-x="272" 
d="M74 1482l77 198h157l-109 -198h-125zM54 1400h164v-1400h-164v1400z" />
    <glyph glyph-name="uni013B" unicode="&#x13b;" horiz-adv-x="476" 
d="M59 0v1400h169v-1261h226v-139h-395zM177 -75h160v-109q0 -83 -33 -118.5t-116 -43.5l-12 64q43 3 59 20t16 61h-74v126z" />
    <glyph glyph-name="uni013C" unicode="&#x13c;" horiz-adv-x="272" 
d="M54 1400h164v-1400h-164v1400zM56 -75h160v-109q0 -83 -33 -118.5t-116 -43.5l-12 64q43 3 59 20t16 61h-74v126z" />
    <glyph glyph-name="Lcaron" unicode="&#x13d;" horiz-adv-x="476" 
d="M59 0v1400h169v-1261h226v-139h-395zM276 1400h139v-113q0 -82 -28 -118t-100 -43l-12 62q35 5 48.5 21t13.5 53h-61v138z" />
    <glyph glyph-name="lcaron" unicode="&#x13e;" horiz-adv-x="272" 
d="M54 1400h164v-1400h-164v1400zM273 1400h137v-109q0 -79 -27 -112t-99 -40l-12 64q36 2 49 17.5t13 53.5h-61v126z" />
    <glyph glyph-name="Ldot" unicode="&#x13f;" horiz-adv-x="577" 
d="M59 0v1400h169v-1261h226v-139h-395zM328 834h202v-187h-202v187z" />
    <glyph glyph-name="ldot" unicode="&#x140;" horiz-adv-x="544" 
d="M54 1400h164v-1400h-164v1400zM303 795h202v-188h-202v188z" />
    <glyph glyph-name="Lslash" unicode="&#x141;" horiz-adv-x="480" 
d="M232 139h226v-139h-395v640l-59 -17v130l59 17v630h169v-581l114 33v-129l-114 -33v-551z" />
    <glyph glyph-name="lslash" unicode="&#x142;" horiz-adv-x="387" 
d="M366 975v-144l-91 -41v-790h-163v716l-91 -41v144l91 41v540h163v-466z" />
    <glyph glyph-name="Nacute" unicode="&#x143;" horiz-adv-x="725" 
d="M299 1482l77 198h157l-109 -198h-125zM59 0v1400h221l175 -808q28 -142 51 -312l21 1q-25 315 -25 506l-1 613h164v-1400h-219l-169 784q-34 171 -58 343l-21 -1q24 -300 24 -514l1 -612h-164z" />
    <glyph glyph-name="nacute" unicode="&#x144;" horiz-adv-x="583" 
d="M321 1400h152l-115 -268h-122zM54 0v1050h160q1 -45 -34 -155l17 -7q32 91 79 132.5t115 41.5q139 0 139 -159v-903h-163v870q0 67 -50 67q-44 0 -71.5 -69.5t-27.5 -180.5v-687h-164z" />
    <glyph glyph-name="uni0145" unicode="&#x145;" horiz-adv-x="725" 
d="M59 0v1400h221l175 -808q28 -142 51 -312l21 1q-25 315 -25 506l-1 613h164v-1400h-219l-169 784q-34 171 -58 343l-21 -1q24 -300 24 -514l1 -612h-164zM281 -75h160v-109q0 -83 -33 -118.5t-116 -43.5l-12 64q43 3 59 20t16 61h-74v126z" />
    <glyph glyph-name="uni0146" unicode="&#x146;" horiz-adv-x="583" 
d="M54 0v1050h160q1 -45 -34 -155l17 -7q32 91 79 132.5t115 41.5q139 0 139 -159v-903h-163v870q0 67 -50 67q-44 0 -71.5 -69.5t-27.5 -180.5v-687h-164zM212 -75h160v-109q0 -83 -33 -118.5t-116 -43.5l-12 64q43 3 59 20t16 61h-74v126z" />
    <glyph glyph-name="Ncaron" unicode="&#x147;" horiz-adv-x="725" 
d="M171 1680h125l65 -98l66 98h124l-109 -198h-162zM59 0v1400h221l175 -808q28 -142 51 -312l21 1q-25 315 -25 506l-1 613h164v-1400h-219l-169 784q-34 171 -58 343l-21 -1q24 -300 24 -514l1 -612h-164z" />
    <glyph glyph-name="ncaron" unicode="&#x148;" horiz-adv-x="583" 
d="M113 1400h116l67 -139l67 139h116l-106 -268h-153zM54 0v1050h160q1 -45 -34 -155l17 -7q32 91 79 132.5t115 41.5q139 0 139 -159v-903h-163v870q0 67 -50 67q-44 0 -71.5 -69.5t-27.5 -180.5v-687h-164z" />
    <glyph glyph-name="Eng" unicode="&#x14a;" horiz-adv-x="725" 
d="M337 -367l-37 164l64 5q46 4 70.5 11t41.5 29t22.5 57.5t5.5 100.5l-206 722q-43 158 -79 405l-21 -1q24 -300 24 -514l1 -612h-164v1400h217l174 -673q25 -106 67 -336l21 2q-35 281 -36 490l-1 517h164v-1400q0 -151 -78.5 -243t-249.5 -124z" />
    <glyph glyph-name="eng" unicode="&#x14b;" horiz-adv-x="583" 
d="M391 1062q139 0 139 -159v-903q0 -151 -78 -243t-247 -124l-37 164l59 5q62 5 89 20t39 55t12 127v866q0 67 -50 67q-44 0 -71.5 -69.5t-27.5 -180.5v-687h-164v1050h160q1 -45 -34 -155l17 -7q32 91 79 132.5t115 41.5z" />
    <glyph glyph-name="Omacron" unicode="&#x14c;" horiz-adv-x="667" 
d="M151 1515v123h365v-123h-365zM333 -17q-283 0 -283 327v778q0 329 283 329q284 0 284 -329v-778q0 -327 -284 -327zM334 115q114 0 114 181v805q0 185 -114 185q-115 0 -115 -185v-805q0 -181 115 -181z" />
    <glyph glyph-name="omacron" unicode="&#x14d;" horiz-adv-x="580" 
d="M107 1165v123h365v-123h-365zM290 -17q-244 0 -244 273v537q0 274 244 274q121 0 183 -69.5t62 -204.5v-537q0 -135 -62 -204t-183 -69zM290 109q80 0 80 136v559q0 138 -80 138q-79 0 -79 -138v-559q0 -136 79 -136z" />
    <glyph glyph-name="Ohungarumlaut" unicode="&#x150;" horiz-adv-x="667" 
d="M170 1482l77 198h157l-109 -198h-125zM367 1482l77 198h157l-109 -198h-125zM333 -17q-283 0 -283 327v778q0 329 283 329q284 0 284 -329v-778q0 -327 -284 -327zM334 115q114 0 114 181v805q0 185 -114 185q-115 0 -115 -185v-805q0 -181 115 -181z" />
    <glyph glyph-name="ohungarumlaut" unicode="&#x151;" horiz-adv-x="580" 
d="M214 1400h152l-115 -268h-122zM410 1400h152l-115 -268h-122zM290 -17q-244 0 -244 273v537q0 274 244 274q121 0 183 -69.5t62 -204.5v-537q0 -135 -62 -204t-183 -69zM290 109q80 0 80 136v559q0 138 -80 138q-79 0 -79 -138v-559q0 -136 79 -136z" />
    <glyph glyph-name="OE" unicode="&#x152;" horiz-adv-x="898" 
d="M289 -17q-239 0 -239 327v778q0 329 239 329q112 0 171 -91v74h395v-139h-239v-450h213v-130h-213v-542h252v-139h-408v70q-60 -87 -171 -87zM333 115q115 0 115 181v805q0 185 -115 185q-114 0 -114 -185v-805q0 -181 114 -181z" />
    <glyph glyph-name="oe" unicode="&#x153;" horiz-adv-x="899" 
d="M694 244v140l158 -26v-123q0 -128 -60 -190t-171 -62q-116 0 -172 89q-54 -89 -173 -89q-113 0 -171.5 69t-58.5 204v537q0 135 59.5 204.5t173.5 69.5q109 0 172 -85q66 85 182 85q105 0 162 -66t57 -196q0 -110 -2 -322h-318v-241q0 -135 83 -135q79 0 79 137zM613 944
q-81 0 -81 -136v-201h156v216q0 121 -75 121zM367 245v559q0 138 -78 138t-78 -138v-559q0 -136 78 -136t78 136z" />
    <glyph glyph-name="Racute" unicode="&#x154;" horiz-adv-x="637" 
d="M235 1482l77 198h157l-109 -198h-125zM59 0v1400h256q267 0 267 -279v-137q0 -214 -170 -247v-13q68 -17 97.5 -66t41.5 -178l15 -177q11 -131 24.5 -193.5t35.5 -88.5l-3 -21h-185q-24 77 -39 299l-12 168q-6 84 -18.5 126.5t-33.5 57t-61 14.5h-46v-665h-169zM228 797
h69q60 0 88.5 33.5t28.5 107.5v185q0 76 -28 109.5t-89 33.5h-69v-469z" />
    <glyph glyph-name="racute" unicode="&#x155;" horiz-adv-x="435" 
d="M255 1400h152l-115 -268h-122zM54 0v1050h164q3 -53 -33 -162l17 -7q38 102 79.5 141.5t116.5 47.5l25 -159l-52 -8q-86 -14 -119.5 -78t-33.5 -219v-606h-164z" />
    <glyph glyph-name="uni0156" unicode="&#x156;" horiz-adv-x="637" 
d="M59 0v1400h256q267 0 267 -279v-137q0 -214 -170 -247v-13q68 -17 97.5 -66t41.5 -178l15 -177q11 -131 24.5 -193.5t35.5 -88.5l-3 -21h-185q-24 77 -39 299l-12 168q-6 84 -18.5 126.5t-33.5 57t-61 14.5h-46v-665h-169zM228 797h69q60 0 88.5 33.5t28.5 107.5v185
q0 76 -28 109.5t-89 33.5h-69v-469zM256 -75h160v-109q0 -83 -33 -118.5t-116 -43.5l-12 64q43 3 59 20t16 61h-74v126z" />
    <glyph glyph-name="uni0157" unicode="&#x157;" horiz-adv-x="435" 
d="M54 0v1050h164q3 -53 -33 -162l17 -7q38 102 79.5 141.5t116.5 47.5l25 -159l-52 -8q-86 -14 -119.5 -78t-33.5 -219v-606h-164zM56 -75h160v-109q0 -83 -33 -118.5t-116 -43.5l-12 64q43 3 59 20t16 61h-74v126z" />
    <glyph glyph-name="Rcaron" unicode="&#x158;" horiz-adv-x="637" 
d="M107 1680h125l65 -98l66 98h124l-109 -198h-162zM59 0v1400h256q267 0 267 -279v-137q0 -214 -170 -247v-13q68 -17 97.5 -66t41.5 -178l15 -177q11 -131 24.5 -193.5t35.5 -88.5l-3 -21h-185q-24 77 -39 299l-12 168q-6 84 -18.5 126.5t-33.5 57t-61 14.5h-46v-665h-169
zM228 797h69q60 0 88.5 33.5t28.5 107.5v185q0 76 -28 109.5t-89 33.5h-69v-469z" />
    <glyph glyph-name="rcaron" unicode="&#x159;" horiz-adv-x="435" 
d="M48 1400h116l67 -139l67 139h116l-106 -268h-153zM54 0v1050h164q3 -53 -33 -162l17 -7q38 102 79.5 141.5t116.5 47.5l25 -159l-52 -8q-86 -14 -119.5 -78t-33.5 -219v-606h-164z" />
    <glyph glyph-name="Sacute" unicode="&#x15a;" horiz-adv-x="608" 
d="M327 1750h152l-115 -268h-122zM308 -17q-273 0 -273 328v139l162 31v-165q0 -111 27 -158.5t87 -47.5q47 0 73 35t26 99q0 81 -31 167.5t-100 199.5l-89 149q-75 122 -110 211.5t-34 183.5q0 262 250 262q128 0 192 -72.5t64 -223.5v-128l-157 -30v152q0 94 -24.5 135
t-76.5 41q-43 0 -66 -28.5t-23 -81.5q0 -72 27 -149t94 -184l90 -147q78 -126 117.5 -226t39.5 -208q0 -139 -67.5 -211.5t-197.5 -72.5z" />
    <glyph glyph-name="sacute" unicode="&#x15b;" horiz-adv-x="517" 
d="M278 1400h152l-115 -268h-122zM261 -16q-233 0 -233 264v80l154 37v-112q0 -78 19 -112.5t60 -34.5q69 0 69 98q0 62 -24 120.5t-81 131.5l-74 96q-117 151 -117 286q0 228 215 228q224 0 224 -239v-71l-155 -35v105q0 65 -16.5 92t-51.5 27q-64 0 -64 -79
q0 -55 21.5 -105.5t76.5 -119.5l74 -93q64 -81 97.5 -155t33.5 -168q0 -120 -58 -180.5t-170 -60.5z" />
    <glyph glyph-name="Scedilla" unicode="&#x15e;" horiz-adv-x="608" 
d="M573 267q0 -127 -56.5 -199t-165.5 -83l-11 -61q109 -40 109 -146q0 -69 -38.5 -107.5t-108.5 -38.5q-61 0 -108 29l16 91q38 -23 77 -23q27 0 42.5 16t15.5 44q0 70 -113 90l17 108q-214 34 -214 324v139l162 31v-165q0 -111 27 -158.5t87 -47.5q47 0 73 35t26 99
q0 81 -31 167.5t-100 199.5l-89 149q-75 122 -110 211.5t-34 183.5q0 262 250 262q128 0 192 -72.5t64 -223.5v-128l-157 -30v152q0 94 -24.5 135t-76.5 41q-43 0 -66 -28.5t-23 -81.5q0 -72 27 -149t94 -184l90 -147q78 -126 117.5 -226t39.5 -208z" />
    <glyph glyph-name="scedilla" unicode="&#x15f;" horiz-adv-x="517" 
d="M489 225q0 -216 -186 -239l-11 -62q109 -40 109 -146q0 -69 -38.5 -107.5t-108.5 -38.5q-61 0 -108 29l16 91q38 -23 77 -23q27 0 42.5 16t15.5 44q0 70 -113 90l17 110q-173 31 -173 259v80l154 37v-112q0 -78 19 -112.5t60 -34.5q69 0 69 98q0 62 -24 120.5t-81 131.5
l-74 96q-117 151 -117 286q0 228 215 228q224 0 224 -239v-71l-155 -35v105q0 65 -16.5 92t-51.5 27q-64 0 -64 -79q0 -55 21.5 -105.5t76.5 -119.5l74 -93q64 -81 97.5 -155t33.5 -168z" />
    <glyph glyph-name="Scaron" unicode="&#x160;" horiz-adv-x="608" 
d="M112 1680h125l65 -98l66 98h124l-109 -198h-162zM308 -17q-273 0 -273 328v139l162 31v-165q0 -111 27 -158.5t87 -47.5q47 0 73 35t26 99q0 81 -31 167.5t-100 199.5l-89 149q-75 122 -110 211.5t-34 183.5q0 262 250 262q128 0 192 -72.5t64 -223.5v-128l-157 -30v152
q0 94 -24.5 135t-76.5 41q-43 0 -66 -28.5t-23 -81.5q0 -72 27 -149t94 -184l90 -147q78 -126 117.5 -226t39.5 -208q0 -139 -67.5 -211.5t-197.5 -72.5z" />
    <glyph glyph-name="scaron" unicode="&#x161;" horiz-adv-x="517" 
d="M70 1400h116l67 -139l67 139h116l-106 -268h-153zM261 -16q-233 0 -233 264v80l154 37v-112q0 -78 19 -112.5t60 -34.5q69 0 69 98q0 62 -24 120.5t-81 131.5l-74 96q-117 151 -117 286q0 228 215 228q224 0 224 -239v-71l-155 -35v105q0 65 -16.5 92t-51.5 27
q-64 0 -64 -79q0 -55 21.5 -105.5t76.5 -119.5l74 -93q64 -81 97.5 -155t33.5 -168q0 -120 -58 -180.5t-170 -60.5z" />
    <glyph glyph-name="uni0162" unicode="&#x162;" horiz-adv-x="557" 
d="M363 0h-36l-13 -76q109 -40 109 -146q0 -69 -38.5 -107.5t-108.5 -38.5q-61 0 -108 29l16 91q38 -23 77 -23q27 0 42.5 16t15.5 44q0 70 -113 90l18 121h-30v1261h-184v139h537v-139h-184v-1261z" />
    <glyph glyph-name="uni0163" unicode="&#x163;" horiz-adv-x="434" 
d="M298 -76q109 -40 109 -146q0 -69 -38.5 -107.5t-108.5 -38.5q-61 0 -108 29l16 91q38 -23 77 -23q27 0 42.5 16t15.5 44q0 70 -113 90l18 118q-102 33 -102 183v740h-94v130h94v240l163 60v-300h149v-130h-149v-727q0 -37 14.5 -53.5t45.5 -16.5q35 0 90 21l-13 -127
q-39 -23 -97 -29z" />
    <glyph glyph-name="Tcaron" unicode="&#x164;" horiz-adv-x="557" 
d="M88 1680h125l65 -98l66 98h124l-109 -198h-162zM194 0v1261h-184v139h537v-139h-184v-1261h-169z" />
    <glyph glyph-name="tcaron" unicode="&#x165;" horiz-adv-x="434" 
d="M310 1400h137v-109q0 -79 -27 -112t-99 -40l-12 64q36 2 49 17.5t13 53.5h-61v126zM282 -13q-89 0 -132.5 46.5t-43.5 146.5v740h-94v130h94v240l163 60v-300h149v-130h-149v-727q0 -37 14.5 -53.5t45.5 -16.5q35 0 90 21l-13 -127q-51 -30 -124 -30z" />
    <glyph glyph-name="Tbar" unicode="&#x166;" horiz-adv-x="557" 
d="M547 1261h-184v-451h102v-131h-102v-679h-169v679h-104v131h104v451h-184v139h537v-139z" />
    <glyph glyph-name="tbar" unicode="&#x167;" horiz-adv-x="434" 
d="M329 123q35 0 90 21l-13 -127q-51 -30 -124 -30q-89 0 -132.5 46.5t-43.5 146.5v381h-94v125h94v234h-94v130h94v240l163 60v-300h149v-130h-149v-234h148v-125h-148v-368q0 -37 14.5 -53.5t45.5 -16.5z" />
    <glyph glyph-name="Utilde" unicode="&#x168;" horiz-adv-x="653" 
d="M408 1485q-33 0 -63.5 16.5t-53 33.5t-35.5 17q-17 0 -25 -14t-9 -47h-90q6 175 119 175q31 0 61 -17t52 -33.5t35 -16.5q29 0 30 61h91q-7 -175 -112 -175zM426 1400h168v-1153q0 -136 -66 -200t-201 -64q-137 0 -203 64t-66 200v1153h169v-1150q0 -71 24.5 -104
t75.5 -33t75 33t24 104v1150z" />
    <glyph glyph-name="utilde" unicode="&#x169;" horiz-adv-x="584" 
d="M374 1148q-31 0 -61.5 17t-53.5 34t-37 17q-33 0 -34 -62h-91q3 93 31.5 136.5t84.5 43.5q39 0 88 -34.5t62 -34.5q29 0 30 62h91q-6 -179 -110 -179zM529 1050v-1050h-159q-2 48 34 155l-17 7q-33 -91 -80 -132.5t-115 -41.5q-139 0 -139 159v903h164v-870q0 -67 49 -67
q45 0 72.5 69.5t27.5 180.5v687h163z" />
    <glyph glyph-name="Umacron" unicode="&#x16a;" horiz-adv-x="653" 
d="M144 1515v123h365v-123h-365zM426 1400h168v-1153q0 -136 -66 -200t-201 -64q-137 0 -203 64t-66 200v1153h169v-1150q0 -71 24.5 -104t75.5 -33t75 33t24 104v1150z" />
    <glyph glyph-name="umacron" unicode="&#x16b;" horiz-adv-x="584" 
d="M108 1165v123h365v-123h-365zM529 1050v-1050h-159q-2 48 34 155l-17 7q-33 -91 -80 -132.5t-115 -41.5q-139 0 -139 159v903h164v-870q0 -67 49 -67q45 0 72.5 69.5t27.5 180.5v687h163z" />
    <glyph glyph-name="Ubreve" unicode="&#x16c;" horiz-adv-x="653" 
d="M397 1680h120q-3 -205 -190 -205t-190 205h120q2 -97 70 -97t70 97zM426 1400h168v-1153q0 -136 -66 -200t-201 -64q-137 0 -203 64t-66 200v1153h169v-1150q0 -71 24.5 -104t75.5 -33t75 33t24 104v1150z" />
    <glyph glyph-name="ubreve" unicode="&#x16d;" horiz-adv-x="584" 
d="M359 1401h120q-2 -141 -46 -204.5t-141 -63.5q-98 0 -142 63.5t-46 204.5h120q1 -82 16.5 -118t51.5 -36q35 0 50.5 36.5t16.5 117.5zM529 1050v-1050h-159q-2 48 34 155l-17 7q-33 -91 -80 -132.5t-115 -41.5q-139 0 -139 159v903h164v-870q0 -67 49 -67q45 0 72.5 69.5
t27.5 180.5v687h163z" />
    <glyph glyph-name="Uring" unicode="&#x16e;" horiz-adv-x="653" 
d="M327 1454q-69 0 -111 37.5t-42 98.5t42 98.5t111 37.5q68 0 110.5 -37.5t42.5 -98.5t-42.5 -98.5t-110.5 -37.5zM327 1539q25 0 40 14t15 37t-15 37t-40 14t-40 -14t-15 -37t15 -37t40 -14zM426 1400h168v-1153q0 -136 -66 -200t-201 -64q-137 0 -203 64t-66 200v1153
h169v-1150q0 -71 24.5 -104t75.5 -33t75 33t24 104v1150z" />
    <glyph glyph-name="uring" unicode="&#x16f;" horiz-adv-x="584" 
d="M291 1118q-72 0 -118 44t-46 114q0 69 46 113t118 44q73 0 119 -44t46 -113q0 -70 -46 -114t-119 -44zM291 1216q26 0 43 17t17 43t-17 42.5t-43 16.5t-42.5 -16.5t-16.5 -42.5t16.5 -43t42.5 -17zM529 1050v-1050h-159q-2 48 34 155l-17 7q-33 -91 -80 -132.5
t-115 -41.5q-139 0 -139 159v903h164v-870q0 -67 49 -67q45 0 72.5 69.5t27.5 180.5v687h163z" />
    <glyph glyph-name="Uhungarumlaut" unicode="&#x170;" horiz-adv-x="653" 
d="M163 1482l77 198h157l-109 -198h-125zM360 1482l77 198h157l-109 -198h-125zM426 1400h168v-1153q0 -136 -66 -200t-201 -64q-137 0 -203 64t-66 200v1153h169v-1150q0 -71 24.5 -104t75.5 -33t75 33t24 104v1150z" />
    <glyph glyph-name="uhungarumlaut" unicode="&#x171;" horiz-adv-x="584" 
d="M216 1400h152l-115 -268h-122zM412 1400h152l-115 -268h-122zM529 1050v-1050h-159q-2 48 34 155l-17 7q-33 -91 -80 -132.5t-115 -41.5q-139 0 -139 159v903h164v-870q0 -67 49 -67q45 0 72.5 69.5t27.5 180.5v687h163z" />
    <glyph glyph-name="Uogonek" unicode="&#x172;" horiz-adv-x="653" 
d="M426 1400h168v-1153q0 -203 -152 -249q-74 -43 -74 -97q0 -43 46 -43q18 0 41 6l-16 -118q-35 -11 -66 -11q-60 0 -92 29t-32 84q0 72 63 135q-129 4 -191.5 68t-62.5 196v1153h169v-1150q0 -71 24.5 -104t75.5 -33t75 33t24 104v1150z" />
    <glyph glyph-name="uogonek" unicode="&#x173;" horiz-adv-x="584" 
d="M529 0q-85 -43 -85 -104q0 -38 39 -38q20 0 41 6l-16 -118q-35 -11 -66 -11q-120 0 -120 114q0 92 94 151h-46q-2 48 34 155l-17 7q-33 -91 -80 -132.5t-115 -41.5q-139 0 -139 159v903h164v-870q0 -67 49 -67q45 0 72.5 69.5t27.5 180.5v687h163v-1050z" />
    <glyph glyph-name="Wcircumflex" unicode="&#x174;" horiz-adv-x="971" 
d="M296 1482l109 198h162l109 -198h-124l-66 98l-65 -98h-125zM187 0l-173 1400h168l73 -741q18 -193 26 -398h20q8 225 25 398l71 741h182l72 -741q16 -185 23 -398h20q11 218 28 398l73 741h162l-169 -1400h-198l-61 659q-23 254 -32 427h-20q-12 -213 -32 -427l-62 -659
h-196z" />
    <glyph glyph-name="wcircumflex" unicode="&#x175;" horiz-adv-x="840" 
d="M237 1132l107 268h153l106 -268h-116l-67 139l-67 -139h-116zM149 0l-140 1050h165l52 -533q12 -133 18 -262h16q7 144 20 262l57 533h171l58 -533q13 -118 20 -262h15q7 156 18 262l53 533h159l-138 -1050h-188l-53 485q-15 145 -23 298h-15q-8 -155 -23 -298l-54 -485
h-188z" />
    <glyph glyph-name="Ycircumflex" unicode="&#x176;" horiz-adv-x="603" 
d="M113 1482l109 198h162l109 -198h-124l-66 98l-65 -98h-125zM592 1400l-206 -886v-514h-169v514l-206 886h174l74 -382q21 -121 37 -292h17q14 154 37 292l72 382h170z" />
    <glyph glyph-name="ycircumflex" unicode="&#x177;" horiz-adv-x="525" 
d="M85 1132l107 268h153l106 -268h-116l-67 139l-67 -139h-116zM34 -367l-31 166l75 10q53 7 75 34t21 87l-3 81l-166 1039h168l66 -638q13 -121 22 -297h16q8 170 21 297l62 638h157l-144 -994q-29 -200 -107.5 -298t-231.5 -125z" />
    <glyph glyph-name="Ydieresis" unicode="&#x178;" horiz-adv-x="603" 
d="M122 1493v183h146v-183h-146zM338 1493v183h145v-183h-145zM592 1400l-206 -886v-514h-169v514l-206 886h174l74 -382q21 -121 37 -292h17q14 154 37 292l72 382h170z" />
    <glyph glyph-name="Zacute" unicode="&#x179;" horiz-adv-x="502" 
d="M189 1482l77 198h157l-109 -198h-125zM12 0l-3 7l245 1130q19 78 37 121l-7 9q-34 -2 -93 -2h-162v135h449l2 -7l-233 -1133q-16 -65 -37 -118l6 -9q30 2 86 2h189v-135h-479z" />
    <glyph glyph-name="zacute" unicode="&#x17a;" horiz-adv-x="466" 
d="M258 1400h152l-115 -268h-122zM16 0l-4 10l215 829q6 23 24 74l-5 9q-44 -2 -65 -2h-146v130h407l5 -10l-206 -839q-11 -33 -23 -63l5 -10q22 2 62 2h170v-130h-439z" />
    <glyph glyph-name="Zdotaccent" unicode="&#x17b;" horiz-adv-x="502" 
d="M159 1493v183h185v-183h-185zM12 0l-3 7l245 1130q19 78 37 121l-7 9q-34 -2 -93 -2h-162v135h449l2 -7l-233 -1133q-16 -65 -37 -118l6 -9q30 2 86 2h189v-135h-479z" />
    <glyph glyph-name="zdotaccent" unicode="&#x17c;" horiz-adv-x="466" 
d="M141 1169v183h185v-183h-185zM16 0l-4 10l215 829q6 23 24 74l-5 9q-44 -2 -65 -2h-146v130h407l5 -10l-206 -839q-11 -33 -23 -63l5 -10q22 2 62 2h170v-130h-439z" />
    <glyph glyph-name="Zcaron" unicode="&#x17d;" horiz-adv-x="502" 
d="M61 1680h125l65 -98l66 98h124l-109 -198h-162zM12 0l-3 7l245 1130q19 78 37 121l-7 9q-34 -2 -93 -2h-162v135h449l2 -7l-233 -1133q-16 -65 -37 -118l6 -9q30 2 86 2h189v-135h-479z" />
    <glyph glyph-name="zcaron" unicode="&#x17e;" horiz-adv-x="466" 
d="M51 1400h116l67 -139l67 139h116l-106 -268h-153zM16 0l-4 10l215 829q6 23 24 74l-5 9q-44 -2 -65 -2h-146v130h407l5 -10l-206 -839q-11 -33 -23 -63l5 -10q22 2 62 2h170v-130h-439z" />
    <glyph glyph-name="Gcaron" unicode="&#x1e6;" horiz-adv-x="663" 
d="M138 1680h125l65 -98l66 98h124l-109 -198h-162zM265 -12q-215 0 -215 319v783q0 327 281 327q270 0 270 -298v-176l-166 -34v197q0 99 -25.5 140.5t-77.5 41.5q-113 0 -113 -185v-799q0 -187 96 -187q127 0 140 504h-138v132h291v-753h-137q-4 75 34 253l-21 6
q-35 -147 -85.5 -209t-133.5 -62z" />
    <glyph glyph-name="gcaron" unicode="&#x1e7;" horiz-adv-x="530" 
d="M265 1112h-118l-78 220h85l52 -120l52 120h85zM330 219q29 -12 52 -25.5t50.5 -39t46 -56.5t31 -79t12.5 -107q0 -279 -263 -279q-251 0 -251 258q0 102 29 158.5t93 85.5v19q-93 54 -93 143q0 87 84 113v17q-83 77 -83 295q0 180 55.5 261t173.5 81q37 0 65 -7
q-27 107 11.5 174.5t141.5 87.5l28 -167l-53 -9q-44 -7 -62.5 -30.5t-9.5 -80.5q103 -68 103 -310q0 -181 -54.5 -263t-169.5 -82q-43 0 -76 10q-45 -12 -45 -45q0 -26 21 -44t83 -45zM266 948q-39 0 -54.5 -49t-15.5 -177q0 -130 15.5 -179t55.5 -49q37 0 52 49t15 179
q0 128 -15 177t-53 49zM264 -241q117 0 117 148q0 80 -32.5 124t-94.5 69l-46 19q-39 -28 -55.5 -74.5t-16.5 -125.5q0 -160 128 -160z" />
    <glyph glyph-name="uni01EA" unicode="&#x1ea;" horiz-adv-x="667" 
d="M333 1417q284 0 284 -329v-778q0 -253 -169 -310q-77 -44 -77 -99q0 -43 46 -43q19 0 41 6l-16 -118q-35 -11 -66 -11q-60 0 -92 29t-32 84q0 74 63 135q-265 10 -265 327v778q0 329 283 329zM219 296q0 -181 115 -181q114 0 114 181v805q0 185 -114 185
q-115 0 -115 -185v-805z" />
    <glyph glyph-name="uni01EB" unicode="&#x1eb;" horiz-adv-x="580" 
d="M290 1067q121 0 183 -69.5t62 -204.5v-537q0 -208 -145 -258q-74 -43 -74 -97q0 -43 46 -43q18 0 41 6l-16 -118q-35 -11 -66 -11q-60 0 -92 29t-32 84q0 74 64 136q-215 17 -215 272v537q0 274 244 274zM211 245q0 -136 79 -136q80 0 80 136v559q0 138 -80 138
q-79 0 -79 -138v-559z" />
    <glyph glyph-name="AEacute" unicode="&#x1fc;" horiz-adv-x="834" 
d="M341 1482l77 198h157l-109 -198h-125zM13 0l247 1400h532v-139h-239v-450h213v-130h-213v-542h252v-139h-421v253h-162l-46 -253h-163zM243 384h141v874h-18q-12 -146 -32 -306z" />
    <glyph glyph-name="aeacute" unicode="&#x1fd;" horiz-adv-x="866" 
d="M610 1400l-115 -268h-122l85 268h152zM818 489h-314v-250q0 -133 77 -133t77 139v135l157 -23v-122q0 -127 -61 -189.5t-174 -62.5q-85 0 -132 43.5t-53 123.5h-17q-35 -167 -182 -167q-78 0 -120 55t-42 155v72q0 66 15 118t44.5 90t61.5 63t78 52l109 63v203
q0 90 -62 90q-38 0 -54.5 -31t-16.5 -107v-156l-160 26v138q0 129 55.5 191t168.5 62q110 0 160 -79q59 79 168 79q106 0 162.5 -64t56.5 -190q0 -130 -2 -324zM584 944q-80 0 -80 -133v-204h155v217q0 120 -75 120zM342 270v243l-52 -32q-43 -27 -67 -69t-24 -116v-72
q0 -111 58 -111q39 0 62 40t23 117z" />
    <glyph glyph-name="Oslashacute" unicode="&#x1fe;" horiz-adv-x="676" 
d="M501 1680l-109 -198h-125l77 198h157zM637 1500l-60 -197q49 -79 49 -215v-778q0 -327 -288 -327q-91 0 -153 32l-35 -115h-111l60 196q-49 79 -49 214v778q0 329 288 329q90 0 153 -33l35 116h111zM219 1097v-606l220 725q-27 70 -101 70q-119 0 -119 -189zM457 299v610
l-221 -725q28 -70 102 -70q119 0 119 185z" />
    <glyph glyph-name="oslashacute" unicode="&#x1ff;" horiz-adv-x="555" 
d="M439 1400l-115 -268h-122l85 268h152zM462 999q64 -70 64 -206v-537q0 -135 -63 -204t-186 -69q-61 0 -103 16l-30 -103h-94l44 153q-65 70 -65 207v537q0 274 248 274q61 0 106 -16l29 102h94zM191 801v-415l150 522q-21 34 -64 34q-86 0 -86 -141zM277 109q87 0 87 139
v412l-150 -519q23 -32 63 -32z" />
    <glyph glyph-name="uni0218" unicode="&#x218;" horiz-adv-x="608" 
d="M308 -17q-273 0 -273 328v139l162 31v-165q0 -111 27 -158.5t87 -47.5q47 0 73 35t26 99q0 81 -31 167.5t-100 199.5l-89 149q-75 122 -110 211.5t-34 183.5q0 262 250 262q128 0 192 -72.5t64 -223.5v-128l-157 -30v152q0 94 -24.5 135t-76.5 41q-43 0 -66 -28.5
t-23 -81.5q0 -72 27 -149t94 -184l90 -147q78 -126 117.5 -226t39.5 -208q0 -139 -67.5 -211.5t-197.5 -72.5zM225 -75h160v-109q0 -83 -33 -118.5t-116 -43.5l-12 64q43 3 59 20t16 61h-74v126z" />
    <glyph glyph-name="uni0219" unicode="&#x219;" horiz-adv-x="517" 
d="M261 -16q-233 0 -233 264v80l154 37v-112q0 -78 19 -112.5t60 -34.5q69 0 69 98q0 62 -24 120.5t-81 131.5l-74 96q-117 151 -117 286q0 228 215 228q224 0 224 -239v-71l-155 -35v105q0 65 -16.5 92t-51.5 27q-64 0 -64 -79q0 -55 21.5 -105.5t76.5 -119.5l74 -93
q64 -81 97.5 -155t33.5 -168q0 -120 -58 -180.5t-170 -60.5zM177 -75h160v-109q0 -83 -33 -118.5t-116 -43.5l-12 64q43 3 59 20t16 61h-74v126z" />
    <glyph glyph-name="uni021A" unicode="&#x21a;" horiz-adv-x="557" 
d="M194 0v1261h-184v139h537v-139h-184v-1261h-169zM199 -75h160v-109q0 -83 -33 -118.5t-116 -43.5l-12 64q43 3 59 20t16 61h-74v126z" />
    <glyph glyph-name="uni021B" unicode="&#x21b;" horiz-adv-x="434" 
d="M282 -13q-89 0 -132.5 46.5t-43.5 146.5v740h-94v130h94v240l163 60v-300h149v-130h-149v-727q0 -37 14.5 -53.5t45.5 -16.5q35 0 90 21l-13 -127q-51 -30 -124 -30zM183 -75h160v-109q0 -83 -33 -118.5t-116 -43.5l-12 64q43 3 59 20t16 61h-74v126z" />
    <glyph glyph-name="uni0237" unicode="&#x237;" horiz-adv-x="272" 
d="M-66 -367l-36 166l58 7q57 7 77.5 29.5t20.5 82.5v1132h164v-1007q0 -186 -69 -284.5t-215 -125.5z" />
    <glyph glyph-name="circumflex" unicode="&#x2c6;" horiz-adv-x="366" 
d="M0 1132l107 268h153l106 -268h-116l-67 139l-67 -139h-116z" />
    <glyph glyph-name="caron" unicode="&#x2c7;" horiz-adv-x="366" 
d="M0 1400h116l67 -139l67 139h116l-106 -268h-153z" />
    <glyph glyph-name="breve" unicode="&#x2d8;" horiz-adv-x="375" 
d="M255 1400h120q-2 -141 -46 -204.5t-141 -63.5q-98 0 -142 63.5t-46 204.5h120q1 -82 16.5 -118t51.5 -36q35 0 50.5 36.5t16.5 117.5z" />
    <glyph glyph-name="dotaccent" unicode="&#x2d9;" horiz-adv-x="185" 
d="M0 1169v183h185v-183h-185z" />
    <glyph glyph-name="ring" unicode="&#x2da;" horiz-adv-x="329" 
d="M164 1118q-72 0 -118 44t-46 114q0 69 46 113t118 44q73 0 119 -44t46 -113q0 -70 -46 -114t-119 -44zM164 1216q26 0 43 17t17 43t-17 42.5t-43 16.5t-42.5 -16.5t-16.5 -42.5t16.5 -43t42.5 -17z" />
    <glyph glyph-name="ogonek" unicode="&#x2db;" horiz-adv-x="195" 
d="M104 17l96 -15q-81 -44 -81 -101q0 -43 46 -43q19 0 41 6l-16 -118q-35 -11 -66 -11q-60 0 -92 29t-32 84q0 96 104 169z" />
    <glyph glyph-name="tilde" unicode="&#x2dc;" horiz-adv-x="381" 
d="M274 1148q-31 0 -61.5 17t-53.5 34t-37 17q-33 0 -34 -62h-91q3 93 31.5 136.5t84.5 43.5q39 0 88 -34.5t62 -34.5q29 0 30 62h91q-6 -179 -110 -179z" />
    <glyph glyph-name="hungarumlaut" unicode="&#x2dd;" horiz-adv-x="433" 
d="M85 1400h152l-115 -268h-122zM281 1400h152l-115 -268h-122z" />
    <glyph glyph-name="gravecomb" unicode="&#x300;" 
d="M-85 1400l85 -268h-123l-114 268h152z" />
    <glyph glyph-name="acutecomb" unicode="&#x301;" 
d="M-152 1400h152l-115 -268h-122z" />
    <glyph glyph-name="uni0302" unicode="&#x302;" 
d="M-366 1132l107 268h153l106 -268h-116l-67 139l-67 -139h-116z" />
    <glyph glyph-name="tildecomb" unicode="&#x303;" 
d="M-107 1148q-31 0 -61.5 17t-53.5 34t-37 17q-33 0 -34 -62h-91q3 93 31.5 136.5t84.5 43.5q39 0 88 -34.5t62 -34.5q29 0 30 62h91q-6 -179 -110 -179z" />
    <glyph glyph-name="uni0304" unicode="&#x304;" 
d="M-365 1165v123h365v-123h-365z" />
    <glyph glyph-name="uni0306" unicode="&#x306;" 
d="M-120 1400h120q-2 -141 -46 -204.5t-141 -63.5q-98 0 -142 63.5t-46 204.5h120q1 -82 16.5 -118t51.5 -36q35 0 50.5 36.5t16.5 117.5z" />
    <glyph glyph-name="uni0307" unicode="&#x307;" 
d="M-185 1169v183h185v-183h-185z" />
    <glyph glyph-name="uni0308" unicode="&#x308;" 
d="M-361 1169v183h146v-183h-146zM-145 1169v183h145v-183h-145z" />
    <glyph glyph-name="uni030A" unicode="&#x30a;" 
d="M-165 1118q-72 0 -118 44t-46 114q0 69 46 113t118 44q73 0 119 -44t46 -113q0 -70 -46 -114t-119 -44zM-165 1216q26 0 43 17t17 43t-17 42.5t-43 16.5t-42.5 -16.5t-16.5 -42.5t16.5 -43t42.5 -17z" />
    <glyph glyph-name="uni030B" unicode="&#x30b;" 
d="M-348 1400h152l-115 -268h-122zM-152 1400h152l-115 -268h-122z" />
    <glyph glyph-name="uni030C" unicode="&#x30c;" 
d="M-366 1400h116l67 -139l67 139h116l-106 -268h-153z" />
    <glyph glyph-name="uni0326" unicode="&#x326;" 
d="M-160 -75h160v-109q0 -83 -33 -118.5t-116 -43.5l-12 64q43 3 59 20t16 61h-74v126z" />
    <glyph glyph-name="uni0327" unicode="&#x327;" 
d="M-147 -368q-61 0 -108 29l16 91q38 -23 77 -23q27 0 42.5 16t15.5 44q0 70 -113 90l20 131h103l-15 -86q109 -40 109 -146q0 -69 -38.5 -107.5t-108.5 -38.5z" />
    <glyph glyph-name="uni0328" unicode="&#x328;" 
d="M-111 1l111 -1q-85 -43 -85 -104q0 -38 39 -38q20 0 41 6l-16 -118q-35 -11 -66 -11q-120 0 -120 114q0 93 96 152z" />
    <glyph glyph-name="Wgrave" unicode="&#x1e80;" horiz-adv-x="971" 
d="M549 1482h-125l-109 198h157zM187 0l-173 1400h168l73 -741q18 -193 26 -398h20q8 225 25 398l71 741h182l72 -741q16 -185 23 -398h20q11 218 28 398l73 741h162l-169 -1400h-198l-61 659q-23 254 -32 427h-20q-12 -213 -32 -427l-62 -659h-196z" />
    <glyph glyph-name="wgrave" unicode="&#x1e81;" horiz-adv-x="840" 
d="M396 1400l85 -268h-123l-114 268h152zM149 0l-140 1050h165l52 -533q12 -133 18 -262h16q7 144 20 262l57 533h171l58 -533q13 -118 20 -262h15q7 156 18 262l53 533h159l-138 -1050h-188l-53 485q-15 145 -23 298h-15q-8 -155 -23 -298l-54 -485h-188z" />
    <glyph glyph-name="Wacute" unicode="&#x1e82;" horiz-adv-x="971" 
d="M424 1482l77 198h157l-109 -198h-125zM187 0l-173 1400h168l73 -741q18 -193 26 -398h20q8 225 25 398l71 741h182l72 -741q16 -185 23 -398h20q11 218 28 398l73 741h162l-169 -1400h-198l-61 659q-23 254 -32 427h-20q-12 -213 -32 -427l-62 -659h-196z" />
    <glyph glyph-name="wacute" unicode="&#x1e83;" horiz-adv-x="840" 
d="M444 1400h152l-115 -268h-122zM149 0l-140 1050h165l52 -533q12 -133 18 -262h16q7 144 20 262l57 533h171l58 -533q13 -118 20 -262h15q7 156 18 262l53 533h159l-138 -1050h-188l-53 485q-15 145 -23 298h-15q-8 -155 -23 -298l-54 -485h-188z" />
    <glyph glyph-name="Wdieresis" unicode="&#x1e84;" horiz-adv-x="971" 
d="M305 1493v183h146v-183h-146zM521 1493v183h145v-183h-145zM187 0l-173 1400h168l73 -741q18 -193 26 -398h20q8 225 25 398l71 741h182l72 -741q16 -185 23 -398h20q11 218 28 398l73 741h162l-169 -1400h-198l-61 659q-23 254 -32 427h-20q-12 -213 -32 -427l-62 -659
h-196z" />
    <glyph glyph-name="wdieresis" unicode="&#x1e85;" horiz-adv-x="840" 
d="M239 1169v183h146v-183h-146zM455 1169v183h145v-183h-145zM149 0l-140 1050h165l52 -533q12 -133 18 -262h16q7 144 20 262l57 533h171l58 -533q13 -118 20 -262h15q7 156 18 262l53 533h159l-138 -1050h-188l-53 485q-15 145 -23 298h-15q-8 -155 -23 -298l-54 -485
h-188z" />
    <glyph glyph-name="uni1E9E" unicode="&#x1e9e;" horiz-adv-x="629" 
d="M398 -9q-80 0 -131 45l35 122q34 -39 73 -39q64 0 64 102q0 87 -52 235l-33 95q-52 147 -52 230q0 60 19 118.5t42.5 97.5t42.5 87t19 89q0 118 -97 118q-106 0 -106 -144v-1147h-168v1137q0 136 70.5 208t207.5 72q122 0 184 -61.5t62 -175.5q0 -58 -30 -126t-59.5 -136
t-29.5 -125q0 -72 50 -202l33 -92q59 -156 59 -283q0 -111 -52.5 -168t-150.5 -57z" />
    <glyph glyph-name="uni1EBC" unicode="&#x1ebc;" horiz-adv-x="515" 
d="M353 1485q-33 0 -63.5 16.5t-53 33.5t-35.5 17q-17 0 -25 -14t-9 -47h-90q6 175 119 175q31 0 61 -17t52 -33.5t35 -16.5q29 0 30 61h91q-7 -175 -112 -175zM228 139h257v-139h-426v1400h414v-139h-245v-450h218v-130h-218v-542z" />
    <glyph glyph-name="uni1EBD" unicode="&#x1ebd;" horiz-adv-x="577" 
d="M221 1216q-33 0 -34 -62h-91q3 93 31.5 136.5t84.5 43.5q39 0 88 -34.5t62 -34.5q29 0 30 62h91q-6 -179 -110 -179q-31 0 -61.5 17t-53.5 34t-37 17zM373 245v135l157 -23v-122q0 -128 -62.5 -190t-178.5 -62q-243 0 -243 270v543q0 271 247 271q237 0 237 -258
q0 -228 -1 -326h-320v-243q0 -69 19 -101.5t61 -32.5q84 0 84 139zM291 944q-82 0 -82 -134v-203h158v217q0 120 -76 120z" />
    <glyph glyph-name="Ygrave" unicode="&#x1ef2;" horiz-adv-x="603" 
d="M365 1482h-125l-109 198h157zM592 1400l-206 -886v-514h-169v514l-206 886h174l74 -382q21 -121 37 -292h17q14 154 37 292l72 382h170z" />
    <glyph glyph-name="ygrave" unicode="&#x1ef3;" horiz-adv-x="525" 
d="M244 1400l85 -268h-123l-114 268h152zM34 -367l-31 166l75 10q53 7 75 34t21 87l-3 81l-166 1039h168l66 -638q13 -121 22 -297h16q8 170 21 297l62 638h157l-144 -994q-29 -200 -107.5 -298t-231.5 -125z" />
    <glyph glyph-name="uni1EF8" unicode="&#x1ef8;" horiz-adv-x="603" 
d="M385 1485q-33 0 -63.5 16.5t-53 33.5t-35.5 17q-17 0 -25 -14t-9 -47h-90q6 175 119 175q31 0 61 -17t52 -33.5t35 -16.5q29 0 30 61h91q-7 -175 -112 -175zM592 1400l-206 -886v-514h-169v514l-206 886h174l74 -382q21 -121 37 -292h17q14 154 37 292l72 382h170z" />
    <glyph glyph-name="uni1EF9" unicode="&#x1ef9;" horiz-adv-x="525" 
d="M352 1148q-31 0 -61.5 17t-53.5 34t-37 17q-33 0 -34 -62h-91q3 93 31.5 136.5t84.5 43.5q39 0 88 -34.5t62 -34.5q29 0 30 62h91q-6 -179 -110 -179zM34 -367l-31 166l75 10q53 7 75 34t21 87l-3 81l-166 1039h168l66 -638q13 -121 22 -297h16q8 170 21 297l62 638h157
l-144 -994q-29 -200 -107.5 -298t-231.5 -125z" />
    <glyph glyph-name="uni2002" unicode="&#x2002;" horiz-adv-x="1024" 
 />
    <glyph glyph-name="uni2003" unicode="&#x2003;" horiz-adv-x="2048" 
 />
    <glyph glyph-name="uni2004" unicode="&#x2004;" horiz-adv-x="683" 
 />
    <glyph glyph-name="uni2005" unicode="&#x2005;" horiz-adv-x="512" 
 />
    <glyph glyph-name="uni2006" unicode="&#x2006;" horiz-adv-x="341" 
 />
    <glyph glyph-name="uni2007" unicode="&#x2007;" horiz-adv-x="645" 
 />
    <glyph glyph-name="uni2008" unicode="&#x2008;" horiz-adv-x="280" 
 />
    <glyph glyph-name="uni2009" unicode="&#x2009;" horiz-adv-x="410" 
 />
    <glyph glyph-name="uni200A" unicode="&#x200a;" horiz-adv-x="293" 
 />
    <glyph glyph-name="endash" unicode="&#x2013;" horiz-adv-x="635" 
d="M34 608h568v-124h-568v124z" />
    <glyph glyph-name="emdash" unicode="&#x2014;" horiz-adv-x="911" 
d="M34 608h843v-124h-843v124z" />
    <glyph glyph-name="quoteleft" unicode="&#x2018;" horiz-adv-x="290" 
d="M241 987h-202v157q0 130 50.5 189.5t161.5 83.5l17 -91q-64 -18 -88 -50.5t-23 -101.5h84v-187z" />
    <glyph glyph-name="quoteright" unicode="&#x2019;" horiz-adv-x="290" 
d="M49 1400h202v-157q0 -130 -50.5 -189.5t-161.5 -83.5l-17 91q64 18 88 50.5t23 101.5h-84v187z" />
    <glyph glyph-name="quotesinglbase" unicode="&#x201a;" horiz-adv-x="280" 
d="M39 187h202v-157q0 -129 -50.5 -189t-162.5 -84l-16 92q64 18 88 50.5t23 100.5h-84v187z" />
    <glyph glyph-name="quotedblleft" unicode="&#x201c;" horiz-adv-x="526" 
d="M241 987h-202v157q0 130 50.5 189.5t161.5 83.5l17 -91q-64 -18 -88 -50.5t-23 -101.5h84v-187zM487 987h-201v157q0 130 50.5 189.5t161.5 83.5l17 -91q-64 -18 -88.5 -50.5t-23.5 -101.5h84v-187z" />
    <glyph glyph-name="quotedblright" unicode="&#x201d;" horiz-adv-x="537" 
d="M49 1400h202v-157q0 -130 -50.5 -189.5t-161.5 -83.5l-17 91q64 18 88 50.5t23 101.5h-84v187zM296 1400h202v-157q0 -130 -50.5 -189.5t-161.5 -83.5l-17 91q64 18 88 50.5t23 101.5h-84v187z" />
    <glyph glyph-name="quotedblbase" unicode="&#x201e;" horiz-adv-x="526" 
d="M39 187h202v-157q0 -129 -50.5 -189t-162.5 -84l-16 92q64 18 88 50.5t23 100.5h-84v187zM286 187h201v-157q0 -88 -24 -144t-69 -84.5t-119 -44.5l-17 92q64 18 88.5 50.5t23.5 100.5h-84v187z" />
    <glyph glyph-name="dagger" unicode="&#x2020;" horiz-adv-x="757" 
d="M363 -350q-43 612 -53 1260l-251 -17v163l251 -17l-13 361h163l-13 -361l251 17v-163l-251 17q-10 -648 -53 -1260h-31z" />
    <glyph glyph-name="daggerdbl" unicode="&#x2021;" horiz-adv-x="757" 
d="M297 -350l13 361l-251 -17v163l258 -17l12 385l-12 385l-258 -17v163l251 -17l-13 361h163l-13 -361l251 17v-163l-258 17l-12 -385l12 -385l258 17v-163l-251 17l13 -361h-163z" />
    <glyph glyph-name="bullet" unicode="&#x2022;" horiz-adv-x="460" 
d="M117 421v226h226v-226h-226z" />
    <glyph glyph-name="ellipsis" unicode="&#x2026;" horiz-adv-x="750" 
d="M39 187h181v-187h-181v187zM284 187h181v-187h-181v187zM530 187h181v-187h-181v187z" />
    <glyph glyph-name="perthousand" unicode="&#x2030;" horiz-adv-x="1555" 
d="M258 709q-212 0 -212 224v259q0 225 212 225q104 0 158.5 -56.5t54.5 -168.5v-259q0 -224 -213 -224zM217 0l484 1400h155l-484 -1400h-155zM258 824q30 0 47 26t17 76v273q0 103 -64 103q-30 0 -47 -26t-17 -77v-273q0 -50 17.5 -76t46.5 -26zM815 -10q-212 0 -212 225
v258q0 225 212 225q213 0 213 -225v-258q0 -225 -213 -225zM1296 -10q-212 0 -212 225v258q0 225 212 225q213 0 213 -225v-258q0 -225 -213 -225zM816 106q29 0 46.5 25.5t17.5 75.5v274q0 50 -17 76t-47 26q-64 0 -64 -102v-274q0 -101 64 -101zM1297 106q64 0 64 101v274
q0 102 -64 102t-64 -102v-274q0 -101 64 -101z" />
    <glyph glyph-name="guilsinglleft" unicode="&#x2039;" horiz-adv-x="401" 
d="M204 100l-158 425l160 425h149l-151 -425l151 -425h-151z" />
    <glyph glyph-name="guilsinglright" unicode="&#x203a;" horiz-adv-x="401" 
d="M197 100h-151l151 425l-151 425h149l160 -425z" />
    <glyph glyph-name="fraction" unicode="&#x2044;" horiz-adv-x="256" 
d="M-136 0l390 1400h138l-390 -1400h-138z" />
    <glyph glyph-name="Euro" unicode="&#x20ac;" horiz-adv-x="670" 
d="M459 517l166 -33v-192q0 -309 -275 -309q-278 0 -278 332v261h-61v110h61v68h-61v109h61v222q0 332 277 332q272 0 272 -311v-159l-164 -30v180q0 102 -26 146.5t-80 44.5q-111 0 -111 -187v-238h228l-25 -109h-203v-68h188l-25 -110h-163v-275q0 -187 112 -187
q54 0 80.5 45.5t26.5 146.5v211z" />
    <glyph glyph-name="trademark" unicode="&#x2122;" horiz-adv-x="1018" 
d="M114 560v730h-104v110h337v-110h-104v-730h-129zM386 560v840h203l54 -386q11 -96 22 -293h13q12 196 24 293l54 386h203v-840h-127l5 443q2 114 8 227l-18 2l-79 -672h-154l-79 673l-17 -1q5 -93 7 -229l5 -443h-124z" />
    <glyph glyph-name="uni2153" unicode="&#x2153;" horiz-adv-x="1249" 
d="M26 554v114h159v500h-150v99q110 6 139.5 27.5t37.5 105.5h117v-732h130v-114h-433zM367 0l390 1400h138l-390 -1400h-138zM1006 -14q-103 0 -154 52t-51 163v93l143 22v-110q0 -62 16 -88t48 -26q56 0 56 82v127q0 77 -71 82l-47 3v107l46 1q66 3 66 75v104q0 78 -56 78
q-31 0 -45.5 -25t-14.5 -81v-87l-141 22v69q0 106 50 156.5t151 50.5q197 0 197 -183v-93q0 -59 -24.5 -90t-74.5 -41v-15q56 -11 82.5 -44.5t26.5 -98.5v-117q0 -188 -203 -188z" />
    <glyph glyph-name="uni2154" unicode="&#x2154;" horiz-adv-x="1245" 
d="M37 554v81q144 199 203.5 333t58.5 258q-1 77 -53 77q-31 0 -44 -27.5t-13 -92.5v-97l-142 22v76q0 119 48.5 173t155.5 54q96 0 143.5 -45.5t47.5 -140.5q1 -126 -49.5 -249.5t-173.5 -302.5l5 -8q27 3 69 3h158v-114h-414zM363 0l390 1400h138l-390 -1400h-138z
M1002 -14q-103 0 -154 52t-51 163v93l143 22v-110q0 -62 16 -88t48 -26q56 0 56 82v127q0 77 -71 82l-47 3v107l46 1q66 3 66 75v104q0 78 -56 78q-31 0 -45.5 -25t-14.5 -81v-87l-141 22v69q0 106 50 156.5t151 50.5q197 0 197 -183v-93q0 -59 -24.5 -90t-74.5 -41v-15
q56 -11 82.5 -44.5t26.5 -98.5v-117q0 -188 -203 -188z" />
    <glyph glyph-name="oneeighth" unicode="&#x215b;" horiz-adv-x="1249" 
d="M26 554v114h159v500h-150v99q110 6 139.5 27.5t37.5 105.5h117v-732h130v-114h-433zM367 0l390 1400h138l-390 -1400h-138zM1004 -11q-109 0 -159.5 44.5t-50.5 137.5v122q0 120 104 141v14q-95 18 -95 133v96q0 91 48.5 135t152.5 44t152 -44t48 -135v-96
q0 -116 -96 -133v-14q105 -20 105 -141v-122q0 -93 -50 -137.5t-159 -44.5zM1004 490q59 0 59 69v123q0 69 -59 69q-60 0 -60 -69v-123q0 -69 60 -69zM1004 94q64 0 64 70v155q0 69 -64 69q-65 0 -65 -69v-155q0 -70 65 -70z" />
    <glyph glyph-name="threeeighths" unicode="&#x215c;" horiz-adv-x="1235" 
d="M247 540q-103 0 -154 52t-51 163v93l143 22v-110q0 -62 16 -88t48 -26q56 0 56 82v127q0 77 -71 82l-47 3v107l46 1q66 3 66 75v104q0 78 -56 78q-31 0 -45.5 -25t-14.5 -81v-87l-141 22v69q0 106 50 156.5t151 50.5q197 0 197 -183v-93q0 -59 -24.5 -90t-74.5 -41v-15
q56 -11 82.5 -44.5t26.5 -98.5v-117q0 -188 -203 -188zM353 0l390 1400h138l-390 -1400h-138zM990 -11q-109 0 -159.5 44.5t-50.5 137.5v122q0 120 104 141v14q-95 18 -95 133v96q0 91 48.5 135t152.5 44t152 -44t48 -135v-96q0 -116 -96 -133v-14q105 -20 105 -141v-122
q0 -93 -50 -137.5t-159 -44.5zM990 490q59 0 59 69v123q0 69 -59 69q-60 0 -60 -69v-123q0 -69 60 -69zM990 94q64 0 64 70v155q0 69 -64 69q-65 0 -65 -69v-155q0 -70 65 -70z" />
    <glyph glyph-name="fiveeighths" unicode="&#x215d;" horiz-adv-x="1235" 
d="M246 540q-105 0 -155.5 47t-50.5 150v73l143 22v-90q0 -52 15 -74t47 -22q57 0 58 87v204q0 43 -13 62t-42 19t-44.5 -21t-22.5 -78l-135 7l21 474h374v-114h-242l-11 -191q45 32 103 32q157 0 157 -176v-208q0 -104 -49.5 -153.5t-152.5 -49.5zM353 0l390 1400h138
l-390 -1400h-138zM990 -11q-109 0 -159.5 44.5t-50.5 137.5v122q0 120 104 141v14q-95 18 -95 133v96q0 91 48.5 135t152.5 44t152 -44t48 -135v-96q0 -116 -96 -133v-14q105 -20 105 -141v-122q0 -93 -50 -137.5t-159 -44.5zM990 490q59 0 59 69v123q0 69 -59 69
q-60 0 -60 -69v-123q0 -69 60 -69zM990 94q64 0 64 70v155q0 69 -64 69q-65 0 -65 -69v-155q0 -70 65 -70z" />
    <glyph glyph-name="seveneighths" unicode="&#x215e;" horiz-adv-x="1192" 
d="M164 554q5 273 37.5 430t108.5 298h-282v118h427v-97q-82 -146 -113 -304t-32 -445h-146zM310 0l390 1400h138l-390 -1400h-138zM947 -11q-109 0 -159.5 44.5t-50.5 137.5v122q0 120 104 141v14q-95 18 -95 133v96q0 91 48.5 135t152.5 44t152 -44t48 -135v-96
q0 -116 -96 -133v-14q105 -20 105 -141v-122q0 -93 -50 -137.5t-159 -44.5zM947 490q59 0 59 69v123q0 69 -59 69q-60 0 -60 -69v-123q0 -69 60 -69zM947 94q64 0 64 70v155q0 69 -64 69q-65 0 -65 -69v-155q0 -70 65 -70z" />
    <glyph glyph-name="arrowleft" unicode="&#x2190;" horiz-adv-x="744" 
d="M709 450h-279q-72 0 -137 8l-3 -13q68 -30 110 -55l79 -48v-152l-439 310v39l439 310v-153l-79 -47q-30 -19 -110 -55l3 -13q74 9 137 9h279v-140z" />
    <glyph glyph-name="arrowup" unicode="&#x2191;" horiz-adv-x="740" 
d="M300 202v279q0 74 9 137l-13 3q-30 -68 -55 -110l-48 -79h-153l310 439h40l310 -439h-154l-47 79q-25 42 -54 110l-13 -3q9 -73 9 -137v-279h-141z" />
    <glyph glyph-name="arrowright" unicode="&#x2192;" horiz-adv-x="744" 
d="M35 450v140h279q64 0 137 -9l3 13q-80 36 -110 55l-79 47v153l439 -310v-39l-439 -310v152l79 48q42 25 110 55l-3 13q-65 -8 -137 -8h-279z" />
    <glyph glyph-name="arrowdown" unicode="&#x2193;" horiz-adv-x="740" 
d="M300 871h141v-279q0 -64 -9 -138l13 -3q29 68 54 110l47 79h154l-310 -438h-40l-310 438h153l48 -79q25 -42 55 -110l13 3q-9 63 -9 138v279z" />
    <glyph glyph-name="arrowboth" unicode="&#x2194;" horiz-adv-x="1165" 
d="M40 539l439 310v-152l-79 -48q-43 -27 -110 -55l3 -13q65 8 137 8h305q73 0 137 -8l4 13q-67 29 -111 55l-79 48v152l439 -310v-39l-439 -310v153l79 47q54 31 111 55l-4 13q-72 -9 -137 -9h-305q-74 0 -137 9l-3 -13q68 -31 110 -55l79 -47v-153l-439 310v39z" />
    <glyph glyph-name="arrowupdn" unicode="&#x2195;" horiz-adv-x="740" 
d="M350 -17l-310 438h153l48 -78q28 -49 55 -111l13 3q-9 73 -9 138v304q0 75 9 138l-13 3q-27 -62 -55 -111l-48 -78h-153l310 438h40l310 -438h-154l-46 78q-25 42 -55 111l-13 -3q9 -73 9 -138v-304q0 -65 -9 -138l13 -3q33 72 55 111l47 78h153l-310 -438h-40z" />
    <glyph glyph-name="uni2196" unicode="&#x2196;" horiz-adv-x="645" 
d="M485 286l-198 197q-52 53 -91 103l-12 -6q28 -68 40 -117l22 -90l-108 -108l-91 530l28 28l529 -91l-108 -109l-89 22q-50 14 -117 40l-7 -11q52 -40 104 -92l197 -197z" />
    <glyph glyph-name="uni2197" unicode="&#x2197;" horiz-adv-x="645" 
d="M160 286l-99 99l197 197q52 52 104 92l-7 11q-67 -26 -117 -40l-89 -22l-108 109l529 91l28 -28l-91 -530l-108 108l22 90q12 49 40 117l-12 6q-39 -50 -91 -103z" />
    <glyph glyph-name="uni2198" unicode="&#x2198;" horiz-adv-x="645" 
d="M160 806l197 -198q56 -56 91 -103l12 7q-25 61 -39 117l-22 90l108 108l91 -530l-28 -28l-530 91l109 109l89 -23q48 -12 117 -39l6 11q-57 45 -103 91l-197 198z" />
    <glyph glyph-name="uni2199" unicode="&#x2199;" horiz-adv-x="645" 
d="M485 806l99 -99l-197 -198q-46 -46 -103 -91l6 -11q69 27 117 39l89 23l109 -109l-530 -91l-28 28l91 530l108 -108l-22 -90q-14 -56 -39 -117l12 -7q35 47 91 103z" />
    <glyph glyph-name="minus" unicode="&#x2212;" horiz-adv-x="522" 
d="M34 651v135h455v-135h-455z" />
    <glyph glyph-name="infinity" unicode="&#x221e;" horiz-adv-x="928" 
d="M676 1050q101 0 154 -61.5t53 -180.5v-216q0 -119 -53 -180.5t-153 -61.5q-77 0 -126 46.5t-81 128.5q-74 -175 -218 -175q-100 0 -153 61.5t-53 180.5v216q0 118 53 180t152 62q77 0 126 -46.5t82 -128.5q72 175 217 175zM738 603v194q0 114 -81 114q-27 0 -47 -16
t-36 -51t-26 -66t-25 -85q-3 -10 -4 -15q27 -91 57 -138.5t81 -47.5q81 0 81 111zM272 489q18 0 33 7t28 25.5t21.5 33t19.5 47.5t16 50t16 59q2 7 3 11q-26 91 -56 138.5t-81 47.5q-39 0 -60.5 -28.5t-21.5 -82.5v-194q0 -56 21.5 -85t60.5 -29z" />
    <glyph glyph-name="approxequal" unicode="&#x2248;" horiz-adv-x="547" 
d="M383 718q-38 0 -78.5 22t-73 43.5t-52.5 21.5q-44 0 -47 -83h-98q7 213 137 213q36 0 75.5 -21.5t72 -43.5t51.5 -22q42 0 45 81h98q-7 -211 -130 -211zM383 469q-38 0 -78.5 21.5t-73 43.5t-52.5 22q-44 0 -47 -84h-98q7 214 137 214q36 0 75.5 -22t72 -43.5t51.5 -21.5
q42 0 45 81h98q-7 -211 -130 -211z" />
    <glyph glyph-name="notequal" unicode="&#x2260;" horiz-adv-x="539" 
d="M506 757h-155l-33 -112h188v-135h-228l-50 -172h-128l50 172h-116v135h156l33 112h-189v135h228l50 171h128l-50 -171h116v-135z" />
    <glyph glyph-name="lessequal" unicode="&#x2264;" horiz-adv-x="545" 
d="M512 564l-478 133v187l478 133v-145l-183 -41q-74 -17 -173 -30v-20q88 -13 173 -31l183 -41v-145zM34 417v128h478v-128h-478z" />
    <glyph glyph-name="greaterequal" unicode="&#x2265;" horiz-adv-x="546" 
d="M34 564v145l182 41q86 18 174 31v20q-99 13 -174 30l-182 41v145l478 -133v-187zM512 417h-478v128h478v-128z" />
    <glyph glyph-name="uni2460" unicode="&#x2460;" horiz-adv-x="1600" 
d="M800 -20q-195 0 -361 96t-262.5 261.5t-96.5 362.5q0 147 57 280.5t153.5 229.5t230 153t279.5 57q196 0 361.5 -96t262 -262t96.5 -362q0 -197 -96.5 -362.5t-262 -261.5t-361.5 -96zM800 60q131 0 249 50.5t204 136t136.5 204t50.5 249.5q0 175 -85.5 322t-233 232.5
t-321.5 85.5t-321 -85.5t-233 -232.5t-86 -322t86 -322.5t233 -232.5t321 -85zM583 281v114h159v500h-150v99q110 6 139.5 27.5t37.5 105.5h117v-732h130v-114h-433z" />
    <glyph glyph-name="uni2461" unicode="&#x2461;" horiz-adv-x="1600" 
d="M800 -20q-195 0 -361 96t-262.5 261.5t-96.5 362.5q0 147 57 280.5t153.5 229.5t230 153t279.5 57q196 0 361.5 -96t262 -262t96.5 -362q0 -197 -96.5 -362.5t-262 -261.5t-361.5 -96zM800 60q131 0 249 50.5t204 136t136.5 204t50.5 249.5q0 175 -85.5 322t-233 232.5
t-321.5 85.5t-321 -85.5t-233 -232.5t-86 -322t86 -322.5t233 -232.5t321 -85zM592 277v81q144 199 203.5 333t58.5 258q-1 77 -53 77q-31 0 -44 -27.5t-13 -92.5v-97l-142 22v76q0 119 48.5 173t155.5 54q96 0 143.5 -45.5t47.5 -140.5q1 -126 -49.5 -249.5t-173.5 -302.5
l5 -8q27 3 69 3h158v-114h-414z" />
    <glyph glyph-name="uni2462" unicode="&#x2462;" horiz-adv-x="1600" 
d="M800 -20q-195 0 -361 96t-262.5 261.5t-96.5 362.5q0 147 57 280.5t153.5 229.5t230 153t279.5 57q196 0 361.5 -96t262 -262t96.5 -362q0 -197 -96.5 -362.5t-262 -261.5t-361.5 -96zM800 60q131 0 249 50.5t204 136t136.5 204t50.5 249.5q0 175 -85.5 322t-233 232.5
t-321.5 85.5t-321 -85.5t-233 -232.5t-86 -322t86 -322.5t233 -232.5t321 -85zM802 264q-103 0 -154 52t-51 163v93l143 22v-110q0 -62 16 -88t48 -26q56 0 56 82v127q0 77 -71 82l-47 3v107l46 1q66 3 66 75v104q0 78 -56 78q-31 0 -45.5 -25t-14.5 -81v-87l-141 22v69
q0 106 50 156.5t151 50.5q197 0 197 -183v-93q0 -59 -24.5 -90t-74.5 -41v-15q56 -11 82.5 -44.5t26.5 -98.5v-117q0 -188 -203 -188z" />
    <glyph glyph-name="uni2463" unicode="&#x2463;" horiz-adv-x="1600" 
d="M800 -20q-195 0 -361 96t-262.5 261.5t-96.5 362.5q0 147 57 280.5t153.5 229.5t230 153t279.5 57q196 0 361.5 -96t262 -262t96.5 -362q0 -197 -96.5 -362.5t-262 -261.5t-361.5 -96zM800 60q131 0 249 50.5t204 136t136.5 204t50.5 249.5q0 175 -85.5 322t-233 232.5
t-321.5 85.5t-321 -85.5t-233 -232.5t-86 -322t86 -322.5t233 -232.5t321 -85zM793 277v125h-241v96l155 625h230v-613h61v-108h-61v-125h-144zM679 510h114l2 252q0 91 6 229h-18q-15 -113 -38 -223z" />
    <glyph glyph-name="uni2464" unicode="&#x2464;" horiz-adv-x="1600" 
d="M800 -20q-195 0 -361 96t-262.5 261.5t-96.5 362.5q0 147 57 280.5t153.5 229.5t230 153t279.5 57q196 0 361.5 -96t262 -262t96.5 -362q0 -197 -96.5 -362.5t-262 -261.5t-361.5 -96zM800 60q131 0 249 50.5t204 136t136.5 204t50.5 249.5q0 175 -85.5 322t-233 232.5
t-321.5 85.5t-321 -85.5t-233 -232.5t-86 -322t86 -322.5t233 -232.5t321 -85zM801 263q-105 0 -155.5 47t-50.5 150v73l143 22v-90q0 -52 15 -74t47 -22q57 0 58 87v204q0 43 -13 62t-42 19t-44.5 -21t-22.5 -78l-135 7l21 474h374v-114h-242l-11 -191q45 32 103 32
q157 0 157 -176v-208q0 -104 -49.5 -153.5t-152.5 -49.5z" />
    <glyph glyph-name="uni2465" unicode="&#x2465;" horiz-adv-x="1600" 
d="M800 -20q-195 0 -361 96t-262.5 261.5t-96.5 362.5q0 147 57 280.5t153.5 229.5t230 153t279.5 57q196 0 361.5 -96t262 -262t96.5 -362q0 -197 -96.5 -362.5t-262 -261.5t-361.5 -96zM800 60q131 0 249 50.5t204 136t136.5 204t50.5 249.5q0 175 -85.5 322t-233 232.5
t-321.5 85.5t-321 -85.5t-233 -232.5t-86 -322t86 -322.5t233 -232.5t321 -85zM801 1135q203 0 203 -193v-55l-144 -22v72q0 93 -62 93q-61 0 -61 -100v-147q46 37 113 37q156 0 156 -172v-194q0 -92 -52 -140t-153 -48q-205 0 -207 211v434q0 224 207 224zM801 716
q-60 0 -60 -72v-197q0 -74 61 -74t61 73v196q0 74 -62 74z" />
    <glyph glyph-name="uni2466" unicode="&#x2466;" horiz-adv-x="1600" 
d="M800 -20q-195 0 -361 96t-262.5 261.5t-96.5 362.5q0 147 57 280.5t153.5 229.5t230 153t279.5 57q196 0 361.5 -96t262 -262t96.5 -362q0 -197 -96.5 -362.5t-262 -261.5t-361.5 -96zM800 60q131 0 249 50.5t204 136t136.5 204t50.5 249.5q0 175 -85.5 322t-233 232.5
t-321.5 85.5t-321 -85.5t-233 -232.5t-86 -322t86 -322.5t233 -232.5t321 -85zM721 277q5 273 37.5 430t108.5 298h-282v118h427v-97q-82 -146 -113 -304t-32 -445h-146z" />
    <glyph glyph-name="uni2467" unicode="&#x2467;" horiz-adv-x="1600" 
d="M800 -20q-195 0 -361 96t-262.5 261.5t-96.5 362.5q0 147 57 280.5t153.5 229.5t230 153t279.5 57q196 0 361.5 -96t262 -262t96.5 -362q0 -197 -96.5 -362.5t-262 -261.5t-361.5 -96zM800 60q131 0 249 50.5t204 136t136.5 204t50.5 249.5q0 175 -85.5 322t-233 232.5
t-321.5 85.5t-321 -85.5t-233 -232.5t-86 -322t86 -322.5t233 -232.5t321 -85zM800 266q-109 0 -159.5 44.5t-50.5 137.5v122q0 120 104 141v14q-95 18 -95 133v96q0 91 48.5 135t152.5 44t152 -44t48 -135v-96q0 -116 -96 -133v-14q105 -20 105 -141v-122q0 -93 -50 -137.5
t-159 -44.5zM800 767q59 0 59 69v123q0 69 -59 69q-60 0 -60 -69v-123q0 -69 60 -69zM800 371q64 0 64 70v155q0 69 -64 69q-65 0 -65 -69v-155q0 -70 65 -70z" />
    <glyph glyph-name="uni2468" unicode="&#x2468;" horiz-adv-x="1600" 
d="M800 -20q-195 0 -361 96t-262.5 261.5t-96.5 362.5q0 147 57 280.5t153.5 229.5t230 153t279.5 57q196 0 361.5 -96t262 -262t96.5 -362q0 -197 -96.5 -362.5t-262 -261.5t-361.5 -96zM800 60q131 0 249 50.5t204 136t136.5 204t50.5 249.5q0 175 -85.5 322t-233 232.5
t-321.5 85.5t-321 -85.5t-233 -232.5t-86 -322t86 -322.5t233 -232.5t321 -85zM800 266q-203 0 -203 193v54l143 23v-73q0 -92 62 -92q61 0 61 99v147q-46 -37 -113 -37q-155 0 -155 172v194q0 188 204 188q205 0 207 -210v-434q0 -224 -206 -224zM799 684q60 0 60 73v196
q0 74 -61 74t-61 -73v-196q0 -74 62 -74z" />
    <glyph glyph-name="uni24EA" unicode="&#x24ea;" horiz-adv-x="1600" 
d="M800 -20q-195 0 -361 96t-262.5 261.5t-96.5 362.5q0 147 57 280.5t153.5 229.5t230 153t279.5 57q196 0 361.5 -96t262 -262t96.5 -362q0 -197 -96.5 -362.5t-262 -261.5t-361.5 -96zM800 60q131 0 249 50.5t204 136t136.5 204t50.5 249.5q0 175 -85.5 322t-233 232.5
t-321.5 85.5t-321 -85.5t-233 -232.5t-86 -322t86 -322.5t233 -232.5t321 -85zM800 266q-105 0 -156 54t-51 167v425q0 112 51 166.5t156 54.5q206 0 206 -221v-425q0 -113 -50.5 -167t-155.5 -54zM800 374q61 0 61 97v456q0 99 -61 99q-62 0 -62 -99v-456q0 -97 62 -97z
" />
    <glyph glyph-name="uni24FF" unicode="&#x24ff;" horiz-adv-x="1600" 
d="M800 -20q196 0 361.5 96t262 261.5t96.5 362.5q0 196 -96.5 362t-262 262t-361.5 96q-146 0 -279.5 -57t-230 -153t-153.5 -229.5t-57 -280.5q0 -197 96.5 -362.5t262.5 -261.5t361 -96zM800 266q-105 0 -156 54t-51 167v425q0 112 51 166.5t156 54.5q206 0 206 -221
v-425q0 -113 -50.5 -167t-155.5 -54zM800 374q61 0 61 97v456q0 99 -61 99q-62 0 -62 -99v-456q0 -97 62 -97z" />
    <glyph glyph-name="filledbox" unicode="&#x25a0;" horiz-adv-x="1159" 
d="M54 0v1050h1050v-1050h-1050z" />
    <glyph glyph-name="uni25A1" unicode="&#x25a1;" horiz-adv-x="1159" 
d="M54 0v1050h1050v-1050h-1050zM134 80h890v890h-890v-890z" />
    <glyph glyph-name="lozenge" unicode="&#x25ca;" horiz-adv-x="684" 
d="M252 0l-193 700l189 700h187l189 -700l-193 -700h-179zM333 190h18q18 117 54 287l59 223l-59 223q-36 170 -54 287h-18q-28 -166 -55 -287l-58 -223l58 -223q27 -121 55 -287z" />
    <glyph glyph-name="circle" unicode="&#x25cb;" horiz-adv-x="1248" 
d="M624 -20q-111 0 -211.5 43t-173.5 116t-116 174t-43 212t43 212t116 174t173.5 116t211.5 43t211.5 -43t173.5 -116t116 -174t43 -212t-43 -212t-116 -174t-173.5 -116t-211.5 -43zM624 60q193 0 328.5 136t135.5 329t-135.5 329t-328.5 136t-328.5 -136t-135.5 -329
t135.5 -329t328.5 -136z" />
    <glyph glyph-name="uni25CF" unicode="&#x25cf;" horiz-adv-x="1248" 
d="M624 -20q-111 0 -211.5 43t-173.5 116t-116 174t-43 212t43 212t116 174t173.5 116t211.5 43t211.5 -43t173.5 -116t116 -174t43 -212t-43 -212t-116 -174t-173.5 -116t-211.5 -43z" />
    <glyph glyph-name="uni2776" unicode="&#x2776;" horiz-adv-x="1600" 
d="M800 -20q196 0 361.5 96t262 261.5t96.5 362.5q0 196 -96.5 362t-262 262t-361.5 96q-146 0 -279.5 -57t-230 -153t-153.5 -229.5t-57 -280.5q0 -197 96.5 -362.5t262.5 -261.5t361 -96zM583 281v114h159v500h-150v99q110 6 139.5 27.5t37.5 105.5h117v-732h130v-114
h-433z" />
    <glyph glyph-name="uni2777" unicode="&#x2777;" horiz-adv-x="1600" 
d="M800 -20q196 0 361.5 96t262 261.5t96.5 362.5q0 196 -96.5 362t-262 262t-361.5 96q-146 0 -279.5 -57t-230 -153t-153.5 -229.5t-57 -280.5q0 -197 96.5 -362.5t262.5 -261.5t361 -96zM592 278v81q144 198 203.5 333t58.5 259q-1 77 -53 77q-31 0 -44 -28t-13 -93v-97
l-142 22v77q0 118 49 172t156 54q190 0 191 -186q1 -125 -50 -248t-174 -303l5 -8q40 3 69 3h158v-115h-414z" />
    <glyph glyph-name="uni2778" unicode="&#x2778;" horiz-adv-x="1600" 
d="M800 -20q196 0 361.5 96t262 261.5t96.5 362.5q0 196 -96.5 362t-262 262t-361.5 96q-146 0 -279.5 -57t-230 -153t-153.5 -229.5t-57 -280.5q0 -197 96.5 -362.5t262.5 -261.5t361 -96zM802 265q-102 0 -153 51.5t-51 163.5v92l142 23v-110q0 -62 16 -88.5t48 -26.5
q56 0 56 82v127q0 78 -71 83l-46 2v107l45 2q34 1 50 19t16 55v104q0 78 -56 78q-30 0 -44.5 -25t-14.5 -81v-86l-142 21v69q0 106 50 157t151 51q198 0 198 -184v-92q0 -59 -24.5 -90t-75.5 -42v-15q56 -11 82.5 -44.5t26.5 -97.5v-117q0 -188 -203 -188z" />
    <glyph glyph-name="uni2779" unicode="&#x2779;" horiz-adv-x="1600" 
d="M800 -20q196 0 361.5 96t262 261.5t96.5 362.5q0 196 -96.5 362t-262 262t-361.5 96q-146 0 -279.5 -57t-230 -153t-153.5 -229.5t-57 -280.5q0 -197 96.5 -362.5t262.5 -261.5t361 -96zM792 277v125h-240v96l155 625h229v-613h62v-108h-62v-125h-144zM679 510h113l2 252
q1 86 6 229h-17q-20 -132 -38 -223z" />
    <glyph glyph-name="uni277A" unicode="&#x277a;" horiz-adv-x="1600" 
d="M800 -20q196 0 361.5 96t262 261.5t96.5 362.5q0 196 -96.5 362t-262 262t-361.5 96q-146 0 -279.5 -57t-230 -153t-153.5 -229.5t-57 -280.5q0 -197 96.5 -362.5t262.5 -261.5t361 -96zM801 263q-105 0 -155.5 47t-50.5 150v72l143 23v-90q0 -52 15 -74t47 -22
q57 0 58 87v204q0 43 -13 62t-42 19t-44.5 -21t-22.5 -78l-135 7l21 474h374v-114h-242l-11 -191q45 32 103 32q157 0 157 -176v-208q0 -104 -49.5 -153.5t-152.5 -49.5z" />
    <glyph glyph-name="uni277B" unicode="&#x277b;" horiz-adv-x="1600" 
d="M800 -20q196 0 361.5 96t262 261.5t96.5 362.5q0 196 -96.5 362t-262 262t-361.5 96q-146 0 -279.5 -57t-230 -153t-153.5 -229.5t-57 -280.5q0 -197 96.5 -362.5t262.5 -261.5t361 -96zM800 1134q203 0 203 -193v-54l-144 -22v72q0 92 -61 92t-61 -99v-147q44 37 113 37
q155 0 155 -172v-194q0 -188 -204 -188q-205 0 -207 211v434q0 223 206 223zM801 716q-60 0 -60 -73v-196q0 -74 60 -74q62 0 62 73v196q0 74 -62 74z" />
    <glyph glyph-name="uni277C" unicode="&#x277c;" horiz-adv-x="1600" 
d="M800 -20q196 0 361.5 96t262 261.5t96.5 362.5q0 196 -96.5 362t-262 262t-361.5 96q-146 0 -279.5 -57t-230 -153t-153.5 -229.5t-57 -280.5q0 -197 96.5 -362.5t262.5 -261.5t361 -96zM721 277q5 274 37.5 430.5t109.5 297.5h-282v118h427v-97q-82 -145 -113 -303
t-32 -446h-147z" />
    <glyph glyph-name="uni277D" unicode="&#x277d;" horiz-adv-x="1600" 
d="M800 -20q196 0 361.5 96t262 261.5t96.5 362.5q0 196 -96.5 362t-262 262t-361.5 96q-146 0 -279.5 -57t-230 -153t-153.5 -229.5t-57 -280.5q0 -197 96.5 -362.5t262.5 -261.5t361 -96zM800 266q-109 0 -159.5 44.5t-50.5 137.5v122q0 121 105 141v14q-96 18 -96 133v96
q0 92 48.5 136t152.5 44t152 -44.5t48 -135.5v-96q0 -115 -95 -133v-14q105 -20 105 -141v-122q0 -92 -50.5 -137t-159.5 -45zM800 767q60 0 60 69v123q0 69 -60 69t-60 -69v-123q0 -69 60 -69zM800 372q65 0 65 70v155q0 69 -65 69t-65 -69v-155q0 -70 65 -70z" />
    <glyph glyph-name="uni277E" unicode="&#x277e;" horiz-adv-x="1600" 
d="M800 -20q196 0 361.5 96t262 261.5t96.5 362.5q0 196 -96.5 362t-262 262t-361.5 96q-146 0 -279.5 -57t-230 -153t-153.5 -229.5t-57 -280.5q0 -197 96.5 -362.5t262.5 -261.5t361 -96zM800 266q-203 0 -203 193v54l144 22v-72q0 -93 61 -93t61 100v147
q-44 -37 -113 -37q-155 0 -155 172v194q0 92 52 140t152 48q205 0 207 -211v-434q0 -223 -206 -223zM799 684q60 0 60 72v197q0 74 -60 74q-62 0 -62 -73v-196q0 -74 62 -74z" />
    <glyph glyph-name="uni2B1B" unicode="&#x2b1b;" horiz-adv-x="1509" 
d="M54 0v1400h1400v-1400h-1400z" />
    <glyph glyph-name="uni2B1C" unicode="&#x2b1c;" horiz-adv-x="1509" 
d="M54 0v1400h1400v-1400h-1400zM134 80h1240v1240h-1240v-1240z" />
    <glyph glyph-name="uni2B24" unicode="&#x2b24;" horiz-adv-x="1600" 
d="M800 -20q196 0 361.5 96t262 261.5t96.5 362.5q0 196 -96.5 362t-262 262t-361.5 96q-146 0 -279.5 -57t-230 -153t-153.5 -229.5t-57 -280.5q0 -197 96.5 -362.5t262.5 -261.5t361 -96z" />
    <glyph glyph-name="uni2BA0" unicode="&#x2ba0;" horiz-adv-x="754" 
d="M479 190l-439 310v39l439 311v-154l-79 -47q-42 -24 -110 -55l3 -12q78 8 137 8h150v251h140v-391h-290q-72 0 -137 8l-3 -13q68 -30 110 -55l79 -48v-152z" />
    <glyph glyph-name="uni2BA1" unicode="&#x2ba1;" horiz-adv-x="755" 
d="M275 190v152l79 48q44 26 111 55l-4 13q-64 -8 -137 -8h-290v391h141v-251h149q60 0 137 -8l4 12q-67 29 -111 55l-79 47v154l439 -311v-39z" />
    <glyph glyph-name="uni2BA2" unicode="&#x2ba2;" horiz-adv-x="760" 
d="M479 869v-153l-79 -48q-45 -27 -110 -54l3 -13q65 8 137 8h290v-392h-140v252h-150q-72 0 -137 8l-3 -13q63 -27 110 -54l79 -47v-154l-439 310v40z" />
    <glyph glyph-name="uni2BA3" unicode="&#x2ba3;" horiz-adv-x="761" 
d="M281 869l439 -310v-40l-439 -310v154l79 47q48 28 111 54l-4 13q-64 -8 -137 -8h-149v-252h-141v392h290q73 0 137 -8l4 13q-64 26 -111 54l-79 48v153z" />
    <glyph glyph-name="uni2BA4" unicode="&#x2ba4;" horiz-adv-x="740" 
d="M40 432l310 439h40l310 -439h-154l-46 79q-27 44 -55 110l-13 -3q9 -73 9 -137v-150h251v-140h-392v290q0 74 9 137l-13 3q-30 -68 -55 -110l-48 -79h-153z" />
    <glyph glyph-name="uni2BA5" unicode="&#x2ba5;" horiz-adv-x="741" 
d="M700 432h-153l-48 79q-27 45 -54 110l-13 -3q8 -65 8 -137v-290h-392v140h252v150q0 72 8 137l-12 3q-31 -68 -55 -110l-47 -79h-154l310 439h40z" />
    <glyph glyph-name="uni2BA6" unicode="&#x2ba6;" horiz-adv-x="740" 
d="M40 653h153l48 -79q25 -42 55 -110l13 3q-9 63 -9 138v289h392v-140h-251v-149q0 -65 -9 -138l13 -3q28 66 55 110l46 79h154l-310 -439h-40z" />
    <glyph glyph-name="uni2BA7" unicode="&#x2ba7;" horiz-adv-x="741" 
d="M700 653l-310 -439h-40l-310 439h154l47 -79q24 -42 55 -110l12 3q-8 65 -8 138v149h-252v140h392v-289q0 -73 -8 -138l13 -3q27 65 54 110l48 79h153z" />
    <glyph glyph-name="IJacute" horiz-adv-x="869" 
d="M87 1482l78 198h156l-109 -198h-125zM664 1482l77 198h157l-109 -198h-125zM59 1400h169v-1400h-169v1400zM564 -17q-126 0 -188.5 70t-62.5 222v129l168 28v-147q0 -94 20 -133t64 -39q77 0 77 117v1170h169v-1175q0 -242 -247 -242z" />
    <glyph glyph-name="a.ss01" horiz-adv-x="587" 
d="M215 -12q-82 0 -125.5 62t-43.5 182v586q0 120 43.5 182t125.5 62q68 0 109 -39.5t73 -125.5l18 6q-34 109 -32 147h149v-1050h-149q-2 38 32 147l-18 6q-32 -86 -73 -125.5t-109 -39.5zM280 111q42 0 65.5 55t23.5 154v410q0 99 -23.5 154t-65.5 55q-70 0 -70 -137v-554
q0 -137 70 -137z" />
    <glyph glyph-name="aacute.ss01" horiz-adv-x="587" 
d="M312 1400h152l-115 -268h-122zM215 -12q-82 0 -125.5 62t-43.5 182v586q0 120 43.5 182t125.5 62q68 0 109 -39.5t73 -125.5l18 6q-34 109 -32 147h149v-1050h-149q-2 38 32 147l-18 6q-32 -86 -73 -125.5t-109 -39.5zM280 111q42 0 65.5 55t23.5 154v410q0 99 -23.5 154
t-65.5 55q-70 0 -70 -137v-554q0 -137 70 -137z" />
    <glyph glyph-name="abreve.ss01" horiz-adv-x="587" 
d="M355 1401h120q-2 -141 -46 -204.5t-141 -63.5q-98 0 -142 63.5t-46 204.5h120q1 -82 16.5 -118t51.5 -36q35 0 50.5 36.5t16.5 117.5zM215 -12q-82 0 -125.5 62t-43.5 182v586q0 120 43.5 182t125.5 62q68 0 109 -39.5t73 -125.5l18 6q-34 109 -32 147h149v-1050h-149
q-2 38 32 147l-18 6q-32 -86 -73 -125.5t-109 -39.5zM280 111q42 0 65.5 55t23.5 154v410q0 99 -23.5 154t-65.5 55q-70 0 -70 -137v-554q0 -137 70 -137z" />
    <glyph glyph-name="acircumflex.ss01" horiz-adv-x="587" 
d="M105 1132l107 268h153l106 -268h-116l-67 139l-67 -139h-116zM215 -12q-82 0 -125.5 62t-43.5 182v586q0 120 43.5 182t125.5 62q68 0 109 -39.5t73 -125.5l18 6q-34 109 -32 147h149v-1050h-149q-2 38 32 147l-18 6q-32 -86 -73 -125.5t-109 -39.5zM280 111
q42 0 65.5 55t23.5 154v410q0 99 -23.5 154t-65.5 55q-70 0 -70 -137v-554q0 -137 70 -137z" />
    <glyph glyph-name="adieresis.ss01" horiz-adv-x="587" 
d="M107 1169v183h146v-183h-146zM323 1169v183h145v-183h-145zM215 -12q-82 0 -125.5 62t-43.5 182v586q0 120 43.5 182t125.5 62q68 0 109 -39.5t73 -125.5l18 6q-34 109 -32 147h149v-1050h-149q-2 38 32 147l-18 6q-32 -86 -73 -125.5t-109 -39.5zM280 111q42 0 65.5 55
t23.5 154v410q0 99 -23.5 154t-65.5 55q-70 0 -70 -137v-554q0 -137 70 -137z" />
    <glyph glyph-name="agrave.ss01" horiz-adv-x="587" 
d="M263 1400l85 -268h-123l-114 268h152zM215 -12q-82 0 -125.5 62t-43.5 182v586q0 120 43.5 182t125.5 62q68 0 109 -39.5t73 -125.5l18 6q-34 109 -32 147h149v-1050h-149q-2 38 32 147l-18 6q-32 -86 -73 -125.5t-109 -39.5zM280 111q42 0 65.5 55t23.5 154v410
q0 99 -23.5 154t-65.5 55q-70 0 -70 -137v-554q0 -137 70 -137z" />
    <glyph glyph-name="amacron.ss01" horiz-adv-x="587" 
d="M105 1165v123h365v-123h-365zM215 -12q-82 0 -125.5 62t-43.5 182v586q0 120 43.5 182t125.5 62q68 0 109 -39.5t73 -125.5l18 6q-34 109 -32 147h149v-1050h-149q-2 38 32 147l-18 6q-32 -86 -73 -125.5t-109 -39.5zM280 111q42 0 65.5 55t23.5 154v410q0 99 -23.5 154
t-65.5 55q-70 0 -70 -137v-554q0 -137 70 -137z" />
    <glyph glyph-name="aogonek.ss01" horiz-adv-x="587" 
d="M532 0q-85 -43 -85 -104q0 -38 39 -38q20 0 41 6l-16 -118q-35 -11 -66 -11q-120 0 -120 114q0 92 94 151h-36q-2 38 32 147l-18 6q-32 -86 -73 -125.5t-109 -39.5q-82 0 -125.5 62t-43.5 182v586q0 120 43.5 182t125.5 62q68 0 109 -39.5t73 -125.5l18 6
q-34 109 -32 147h149v-1050zM369 320v410q0 99 -23.5 154t-65.5 55q-70 0 -70 -137v-554q0 -137 70 -137q42 0 65.5 55t23.5 154z" />
    <glyph glyph-name="aring.ss01" horiz-adv-x="587" 
d="M287 1118q-72 0 -118 44t-46 114q0 69 46 113t118 44q73 0 119 -44t46 -113q0 -70 -46 -114t-119 -44zM287 1216q26 0 43 17t17 43t-17 42.5t-43 16.5t-42.5 -16.5t-16.5 -42.5t16.5 -43t42.5 -17zM215 -12q-82 0 -125.5 62t-43.5 182v586q0 120 43.5 182t125.5 62
q68 0 109 -39.5t73 -125.5l18 6q-34 109 -32 147h149v-1050h-149q-2 38 32 147l-18 6q-32 -86 -73 -125.5t-109 -39.5zM280 111q42 0 65.5 55t23.5 154v410q0 99 -23.5 154t-65.5 55q-70 0 -70 -137v-554q0 -137 70 -137z" />
    <glyph glyph-name="atilde.ss01" horiz-adv-x="587" 
d="M371 1148q-31 0 -61.5 17t-53.5 34t-37 17q-33 0 -34 -62h-91q3 93 31.5 136.5t84.5 43.5q39 0 88 -34.5t62 -34.5q29 0 30 62h91q-6 -179 -110 -179zM215 -12q-82 0 -125.5 62t-43.5 182v586q0 120 43.5 182t125.5 62q68 0 109 -39.5t73 -125.5l18 6q-34 109 -32 147
h149v-1050h-149q-2 38 32 147l-18 6q-32 -86 -73 -125.5t-109 -39.5zM280 111q42 0 65.5 55t23.5 154v410q0 99 -23.5 154t-65.5 55q-70 0 -70 -137v-554q0 -137 70 -137z" />
    <glyph glyph-name="i.loclTRK" horiz-adv-x="272" 
d="M44 1169v183h185v-183h-185zM54 0v1050h164v-1050h-164z" />
    <glyph glyph-name="ijacute" horiz-adv-x="544" 
d="M123 1400h150l-75 -268h-123zM391 1400h150l-75 -268h-123zM54 0v1050h164v-1050h-164zM206 -367l-36 166l58 7q57 7 77.5 29.5t20.5 82.5v1132h164v-1007q0 -186 -69 -284.5t-215 -125.5z" />
    <glyph glyph-name="f_f" horiz-adv-x="735" 
d="M105 0v920h-93v130h93v58q0 127 63 196t194 93l23 -149l-43 -3q-46 -5 -61 -24t-15 -73v-99h164v67q0 134 66.5 206t207.5 95l24 -149l-59 -4q-47 -3 -62.5 -23t-15.5 -74v-117h132v-130h-130v-920h-163v920h-162v-920h-163z" />
    <glyph glyph-name="f_t" horiz-adv-x="748" 
d="M597 -13q-90 0 -133.5 46.5t-43.5 146.5v740h-152v-920h-163v920h-93v130h93v66q0 133 64 205t198 96l25 -148l-52 -6q-45 -5 -59.5 -23.5t-14.5 -72.5v-118h154v156l163 63v-218h150v-130h-150v-727q0 -37 14.5 -53.5t45.5 -16.5q36 0 91 21l-14 -127q-49 -30 -123 -30z
" />
    <glyph glyph-name="t_t" horiz-adv-x="797" 
d="M281 -13q-89 0 -132 47t-43 146v740h-94v130h94v216l163 59v-275h200v240l163 60v-300h150v-130h-150v-727q0 -37 14.5 -53.5t45.5 -16.5q37 0 90 21l-13 -127q-49 -30 -123 -30q-90 0 -133.5 46.5t-43.5 146.5v740h-200v-727q0 -70 59 -70q34 0 80 17l-13 -127
q-44 -26 -114 -26z" />
    <glyph glyph-name="f.calt" horiz-adv-x="387" 
d="M105 0v920h-93v130h93v66q0 134 66 206t207 95l25 -149l-61 -4q-45 -2 -60.5 -22t-15.5 -75v-117h91v-130h-89v-920h-163z" />
    <glyph glyph-name="t.calt" horiz-adv-x="405" 
d="M284 -13q-91 0 -134.5 46.5t-43.5 146.5v740h-94v130h94v240l163 60v-300h106v-130h-106v-727q0 -70 63 -70q35 0 92 21l-14 -127q-51 -30 -126 -30z" />
    <glyph glyph-name="tbar.calt" horiz-adv-x="405" 
d="M332 123q35 0 92 21l-14 -127q-51 -30 -126 -30q-91 0 -134.5 46.5t-43.5 146.5v381h-94v125h94v234h-94v130h94v240l163 60v-300h106v-130h-106v-234h133v-125h-133v-368q0 -70 63 -70z" />
    <glyph glyph-name="tcaron.calt" horiz-adv-x="405" 
d="M310 1400h137v-109q0 -79 -27 -112t-99 -40l-12 64q36 2 49 17.5t13 53.5h-61v126zM284 -13q-91 0 -134.5 46.5t-43.5 146.5v740h-94v130h94v240l163 60v-300h106v-130h-106v-727q0 -70 63 -70q35 0 92 21l-14 -127q-51 -30 -126 -30z" />
    <glyph glyph-name="uni0163.calt" horiz-adv-x="405" 
d="M410 17q-43 -25 -99 -29l-11 -64q109 -40 109 -146q0 -69 -38.5 -107.5t-108.5 -38.5q-61 0 -108 29l16 91q38 -23 77 -23q27 0 42.5 16t15.5 44q0 70 -113 90l18 118q-104 33 -104 183v740h-94v130h94v240l163 60v-300h106v-130h-106v-727q0 -70 63 -70q35 0 92 21z" />
    <glyph glyph-name="uni021B.calt" horiz-adv-x="405" 
d="M284 -13q-91 0 -134.5 46.5t-43.5 146.5v740h-94v130h94v240l163 60v-300h106v-130h-106v-727q0 -70 63 -70q35 0 92 21l-14 -127q-51 -30 -126 -30zM185 -75h160v-109q0 -83 -33 -118.5t-116 -43.5l-12 64q43 3 59 20t16 61h-74v126z" />
    <glyph glyph-name="zero.slashed" horiz-adv-x="638" 
d="M319 1417q270 0 270 -324v-786q0 -324 -270 -324q-269 0 -269 324v786q0 324 269 324zM319 1286q-103 0 -103 -179v-400l207 132v268q0 179 -104 179zM319 115q104 0 104 178v404l-207 -133v-271q0 -178 103 -178z" />
    <glyph glyph-name="zero.tf.slashed" horiz-adv-x="645" 
d="M322 1417q144 0 212 -86t68 -268v-727q0 -182 -68 -267.5t-212 -85.5q-143 0 -210.5 86t-67.5 267v727q0 182 67.5 268t210.5 86zM323 1296q-65 0 -94 -52t-29 -169v-372l245 147v225q0 117 -29 169t-93 52zM323 104q64 0 93 52.5t29 167.5v386l-245 -148v-238
q0 -115 29 -167.5t94 -52.5z" />
    <glyph glyph-name="zero.tf" horiz-adv-x="645" 
d="M322 -17q-143 0 -210.5 86t-67.5 267v727q0 182 67.5 268t210.5 86q144 0 212 -86t68 -268v-727q0 -182 -68 -267.5t-212 -85.5zM323 104q64 0 93 52.5t29 167.5v751q0 117 -29 169t-93 52q-65 0 -94 -52t-29 -169v-751q0 -115 29 -167.5t94 -52.5z" />
    <glyph glyph-name="one.tf" horiz-adv-x="645" 
d="M36 0v126h224v966h-210v103q57 3 88.5 6t61.5 12t43 20t24.5 36t15.5 53.5t8 77.5h125v-1274h197v-126h-577z" />
    <glyph glyph-name="two.tf" horiz-adv-x="646" 
d="M52 0v100q192 311 282.5 564t90.5 488q0 74 -23.5 108t-72.5 34q-56 0 -81 -52t-25 -184v-176l-158 29v158q0 185 64 267t200 82q127 0 189.5 -66.5t62.5 -205.5q0 -235 -81.5 -473.5t-257.5 -532.5l5 -9q33 3 92 3h254v-134h-541z" />
    <glyph glyph-name="three.tf" horiz-adv-x="646" 
d="M333 -18q-145 0 -215.5 79.5t-70.5 260.5v175l160 30v-191q0 -126 30.5 -177t95.5 -51q108 0 108 144v270q0 73 -31 106.5t-92 35.5l-77 4v124l75 3q58 2 86.5 33.5t28.5 96.5v234q0 136 -104 136q-59 0 -87 -49.5t-28 -169.5v-168l-155 29v151q0 175 67 252t205 77
q256 0 256 -258v-216q0 -163 -141 -201v-20q156 -37 156 -227v-242q0 -271 -267 -271z" />
    <glyph glyph-name="four.tf" horiz-adv-x="645" 
d="M376 0v262h-344v102l259 1036h237v-1014h90v-124h-90v-262h-152zM175 386h201l2 520q0 144 6 330l-20 1q-25 -187 -55 -312z" />
    <glyph glyph-name="five.tf" horiz-adv-x="646" 
d="M326 -18q-139 0 -210.5 70.5t-71.5 222.5v137l160 30v-153q0 -96 31 -138.5t92 -42.5q57 0 84.5 38.5t27.5 121.5v367q0 77 -26.5 112.5t-82.5 35.5q-54 0 -83 -40.5t-44 -151.5l-148 13l28 796h495v-134h-340l-17 -412q61 58 161 58q107 0 163 -62t56 -185v-396
q0 -287 -275 -287z" />
    <glyph glyph-name="six.tf" horiz-adv-x="645" 
d="M322 1418q277 0 277 -302v-113l-160 -30v130q0 190 -119 190q-60 0 -88 -48t-28 -151v-276q59 59 168 59q225 0 225 -262v-347q0 -286 -274 -286q-141 0 -209.5 78t-68.5 239v770q0 178 68 263.5t209 85.5zM321 755q-114 0 -114 -142v-351q0 -156 116 -156
q58 0 85.5 38.5t27.5 119.5v344q0 77 -28 112t-87 35z" />
    <glyph glyph-name="seven.tf" horiz-adv-x="645" 
d="M225 0q3 456 54.5 743t169.5 521h-416v136h580v-108q-125 -233 -176 -526t-49 -766h-163z" />
    <glyph glyph-name="eight.tf" horiz-adv-x="645" 
d="M323 -17q-146 0 -215.5 64t-69.5 194v255q0 188 155 225v20q-139 40 -139 199v228q0 126 66 187.5t203 61.5t202 -61.5t65 -187.5v-228q0 -159 -138 -199v-20q156 -37 156 -225v-255q0 -130 -70 -194t-215 -64zM323 788q114 0 114 124v262q0 64 -28 94.5t-86 30.5
t-86 -30.5t-28 -94.5v-262q0 -124 114 -124zM323 102q63 0 93.5 32.5t30.5 100.5v302q0 68 -30.5 100.5t-93.5 32.5t-93.5 -32.5t-30.5 -100.5v-302q0 -68 30.5 -100.5t93.5 -32.5z" />
    <glyph glyph-name="nine.tf" horiz-adv-x="646" 
d="M324 -18q-278 0 -278 302v113l161 30v-130q0 -190 119 -190q59 0 87.5 48.5t28.5 150.5v276q-61 -59 -169 -59q-224 0 -224 262v347q0 286 274 286q140 0 209 -78.5t69 -238.5v-770q0 -178 -68 -263.5t-209 -85.5zM324 645q115 0 115 142v351q0 156 -116 156
q-58 0 -86 -38.5t-28 -119.5v-344q0 -76 28.5 -111.5t86.5 -35.5z" />
    <glyph glyph-name="zero.dnom" horiz-adv-x="489" 
d="M245 -11q-105 0 -156 54t-51 167v425q0 112 51 166.5t156 54.5q206 0 206 -221v-425q0 -113 -50.5 -167t-155.5 -54zM245 97q61 0 61 97v456q0 99 -61 99q-62 0 -62 -99v-456q0 -97 62 -97z" />
    <glyph glyph-name="one.dnom" horiz-adv-x="489" 
d="M26 0v114h159v500h-150v99q110 6 139.5 27.5t37.5 105.5h117v-732h130v-114h-433z" />
    <glyph glyph-name="two.dnom" horiz-adv-x="489" 
d="M37 0v81q144 199 203.5 333t58.5 258q-1 77 -53 77q-31 0 -44 -27.5t-13 -92.5v-97l-142 22v76q0 119 48.5 173t155.5 54q96 0 143.5 -45.5t47.5 -140.5q1 -126 -49.5 -249.5t-173.5 -302.5l5 -8q27 3 69 3h158v-114h-414z" />
    <glyph glyph-name="three.dnom" horiz-adv-x="489" 
d="M247 -14q-103 0 -154 52t-51 163v93l143 22v-110q0 -62 16 -88t48 -26q56 0 56 82v127q0 77 -71 82l-47 3v107l46 1q66 3 66 75v104q0 78 -56 78q-31 0 -45.5 -25t-14.5 -81v-87l-141 22v69q0 106 50 156.5t151 50.5q197 0 197 -183v-93q0 -59 -24.5 -90t-74.5 -41v-15
q56 -11 82.5 -44.5t26.5 -98.5v-117q0 -188 -203 -188z" />
    <glyph glyph-name="four.dnom" horiz-adv-x="489" 
d="M261 0v125h-241v96l155 625h230v-613h61v-108h-61v-125h-144zM147 233h114l2 252q0 91 6 229h-18q-15 -113 -38 -223z" />
    <glyph glyph-name="five.dnom" horiz-adv-x="489" 
d="M246 -14q-105 0 -155.5 47t-50.5 150v73l143 22v-90q0 -52 15 -74t47 -22q57 0 58 87v204q0 43 -13 62t-42 19t-44.5 -21t-22.5 -78l-135 7l21 474h374v-114h-242l-11 -191q45 32 103 32q157 0 157 -176v-208q0 -104 -49.5 -153.5t-152.5 -49.5z" />
    <glyph glyph-name="six.dnom" horiz-adv-x="489" 
d="M244 859q203 0 203 -193v-54l-143 -23v73q0 92 -62 92q-61 0 -61 -99v-147q46 37 113 37q155 0 155 -172v-194q0 -188 -204 -188q-205 0 -207 210v434q0 224 206 224zM245 441q-60 0 -60 -73v-196q0 -74 61 -74t61 73v196q0 74 -62 74z" />
    <glyph glyph-name="seven.dnom" horiz-adv-x="489" 
d="M164 0q5 273 37.5 430t108.5 298h-282v118h427v-97q-82 -146 -113 -304t-32 -445h-146z" />
    <glyph glyph-name="eight.dnom" horiz-adv-x="489" 
d="M245 -11q-109 0 -159.5 44.5t-50.5 137.5v122q0 120 104 141v14q-95 18 -95 133v96q0 91 48.5 135t152.5 44t152 -44t48 -135v-96q0 -116 -96 -133v-14q105 -20 105 -141v-122q0 -93 -50 -137.5t-159 -44.5zM245 490q59 0 59 69v123q0 69 -59 69q-60 0 -60 -69v-123
q0 -69 60 -69zM245 94q64 0 64 70v155q0 69 -64 69q-65 0 -65 -69v-155q0 -70 65 -70z" />
    <glyph glyph-name="nine.dnom" horiz-adv-x="489" 
d="M245 -12q-203 0 -203 193v54l143 23v-73q0 -92 62 -92q61 0 61 99v147q-46 -37 -113 -37q-155 0 -155 172v194q0 188 204 188q205 0 207 -210v-434q0 -224 -206 -224zM244 406q60 0 60 73v196q0 74 -61 74t-61 -73v-196q0 -74 62 -74z" />
    <glyph glyph-name="zero.numr" horiz-adv-x="489" 
d="M245 543q-105 0 -156 54t-51 167v425q0 112 51 166.5t156 54.5q206 0 206 -221v-425q0 -113 -50.5 -167t-155.5 -54zM245 651q61 0 61 97v456q0 99 -61 99q-62 0 -62 -99v-456q0 -97 62 -97z" />
    <glyph glyph-name="one.numr" horiz-adv-x="489" 
d="M26 554v114h159v500h-150v99q110 6 139.5 27.5t37.5 105.5h117v-732h130v-114h-433z" />
    <glyph glyph-name="two.numr" horiz-adv-x="489" 
d="M37 554v81q144 199 203.5 333t58.5 258q-1 77 -53 77q-31 0 -44 -27.5t-13 -92.5v-97l-142 22v76q0 119 48.5 173t155.5 54q96 0 143.5 -45.5t47.5 -140.5q1 -126 -49.5 -249.5t-173.5 -302.5l5 -8q27 3 69 3h158v-114h-414z" />
    <glyph glyph-name="three.numr" horiz-adv-x="489" 
d="M247 540q-103 0 -154 52t-51 163v93l143 22v-110q0 -62 16 -88t48 -26q56 0 56 82v127q0 77 -71 82l-47 3v107l46 1q66 3 66 75v104q0 78 -56 78q-31 0 -45.5 -25t-14.5 -81v-87l-141 22v69q0 106 50 156.5t151 50.5q197 0 197 -183v-93q0 -59 -24.5 -90t-74.5 -41v-15
q56 -11 82.5 -44.5t26.5 -98.5v-117q0 -188 -203 -188z" />
    <glyph glyph-name="four.numr" horiz-adv-x="489" 
d="M261 554v125h-241v96l155 625h230v-613h61v-108h-61v-125h-144zM147 787h114l2 252q0 91 6 229h-18q-15 -113 -38 -223z" />
    <glyph glyph-name="five.numr" horiz-adv-x="489" 
d="M246 540q-105 0 -155.5 47t-50.5 150v73l143 22v-90q0 -52 15 -74t47 -22q57 0 58 87v204q0 43 -13 62t-42 19t-44.5 -21t-22.5 -78l-135 7l21 474h374v-114h-242l-11 -191q45 32 103 32q157 0 157 -176v-208q0 -104 -49.5 -153.5t-152.5 -49.5z" />
    <glyph glyph-name="six.numr" horiz-adv-x="489" 
d="M244 1413q203 0 203 -193v-54l-143 -23v73q0 92 -62 92q-61 0 -61 -99v-147q46 37 113 37q155 0 155 -172v-194q0 -188 -204 -188q-205 0 -207 210v434q0 224 206 224zM245 995q-60 0 -60 -73v-196q0 -74 61 -74t61 73v196q0 74 -62 74z" />
    <glyph glyph-name="seven.numr" horiz-adv-x="489" 
d="M164 554q5 273 37.5 430t108.5 298h-282v118h427v-97q-82 -146 -113 -304t-32 -445h-146z" />
    <glyph glyph-name="eight.numr" horiz-adv-x="489" 
d="M245 543q-109 0 -159.5 44.5t-50.5 137.5v122q0 120 104 141v14q-95 18 -95 133v96q0 91 48.5 135t152.5 44t152 -44t48 -135v-96q0 -116 -96 -133v-14q105 -20 105 -141v-122q0 -93 -50 -137.5t-159 -44.5zM245 1044q59 0 59 69v123q0 69 -59 69q-60 0 -60 -69v-123
q0 -69 60 -69zM245 648q64 0 64 70v155q0 69 -64 69q-65 0 -65 -69v-155q0 -70 65 -70z" />
    <glyph glyph-name="nine.numr" horiz-adv-x="489" 
d="M245 542q-203 0 -203 193v54l143 23v-73q0 -92 62 -92q61 0 61 99v147q-46 -37 -113 -37q-155 0 -155 172v194q0 188 204 188q205 0 207 -210v-434q0 -224 -206 -224zM244 960q60 0 60 73v196q0 74 -61 74t-61 -73v-196q0 -74 62 -74z" />
    <glyph glyph-name="colon.case" horiz-adv-x="280" 
d="M39 1225h202v-187h-202v187zM39 362h202v-187h-202v187z" />
    <glyph glyph-name="semicolon.case" horiz-adv-x="287" 
d="M46 1225h202v-187h-202v187zM46 362h202v-157q0 -129 -50.5 -189t-162.5 -84l-16 92q64 18 88 50.5t23 100.5h-84v187z" />
    <glyph glyph-name="bullet.case" horiz-adv-x="460" 
d="M117 587v226h226v-226h-226z" />
    <glyph glyph-name="parenleft.case" horiz-adv-x="362" 
d="M357 1450q-144 -298 -144 -749q0 -453 144 -751h-164q-143 299 -143 751q0 450 143 749h164z" />
    <glyph glyph-name="parenright.case" horiz-adv-x="362" 
d="M5 1450h164q143 -299 143 -749q0 -452 -143 -751h-164q144 298 144 751q0 451 -144 749z" />
    <glyph glyph-name="braceleft.case" horiz-adv-x="416" 
d="M400 1315h-39q-75 0 -75 -82v-325q0 -154 -111 -198v-20q111 -44 111 -198v-325q0 -82 75 -82h39v-135h-92q-185 0 -185 193v327q0 132 -97 159v142q97 27 97 159v327q0 193 178 193h99v-135z" />
    <glyph glyph-name="braceright.case" horiz-adv-x="416" 
d="M16 1315v135h99q178 0 178 -193v-327q0 -132 97 -159v-142q-97 -27 -97 -159v-327q0 -193 -185 -193h-92v135h39q75 0 75 82v325q0 154 111 198v20q-111 44 -111 198v325q0 82 -75 82h-39z" />
    <glyph glyph-name="bracketleft.case" horiz-adv-x="356" 
d="M340 1315h-117v-1230h117v-135h-281v1500h281v-135z" />
    <glyph glyph-name="bracketright.case" horiz-adv-x="356" 
d="M16 1315v135h281v-1500h-281v135h117v1230h-117z" />
    <glyph glyph-name="hyphen.case" horiz-adv-x="406" 
d="M34 768h346v-136h-346v136z" />
    <glyph glyph-name="endash.case" horiz-adv-x="635" 
d="M34 762h568v-124h-568v124z" />
    <glyph glyph-name="emdash.case" horiz-adv-x="911" 
d="M34 762h843v-124h-843v124z" />
    <glyph glyph-name="guillemotleft.case" horiz-adv-x="640" 
d="M204 275l-158 425l160 425h149l-151 -425l151 -425h-151zM442 275l-158 425l161 425h149l-151 -425l151 -425h-152z" />
    <glyph glyph-name="guillemotright.case" horiz-adv-x="640" 
d="M198 275h-152l151 425l-151 425h149l161 -425zM436 275h-151l151 425l-151 425h149l160 -425z" />
    <glyph glyph-name="guilsinglleft.case" horiz-adv-x="401" 
d="M204 275l-158 425l160 425h149l-151 -425l151 -425h-151z" />
    <glyph glyph-name="guilsinglright.case" horiz-adv-x="401" 
d="M197 275h-151l151 425l-151 425h149l160 -425z" />
    <glyph glyph-name="exclamdown.case" horiz-adv-x="295" 
d="M248 1213h-201v187h201v-187zM239 0h-183l22 1092h139z" />
    <glyph glyph-name="questiondown.case" horiz-adv-x="536" 
d="M365 1213h-202v187h202v-187zM354 1092q18 -46 22.5 -96.5t-5 -106t-23.5 -103t-37 -111.5l-52 -144q-66 -181 -66 -313q0 -108 71 -108q42 0 60 38t18 123v160l167 -29v-136q0 -144 -60.5 -213.5t-184.5 -69.5q-235 0 -235 240q0 161 88 387l59 149q31 81 43.5 137
t5.5 102.5t-37 80.5l5 13h161z" />
    <glyph glyph-name="period.tf" horiz-adv-x="323" 
d="M61 187h201v-187h-201v187z" />
    <glyph glyph-name="comma.tf" horiz-adv-x="323" 
d="M60 187h202v-157q0 -129 -50.5 -189t-161.5 -84l-17 92q64 18 88 50.5t23 100.5h-84v187z" />
    <glyph glyph-name="colon.case.tf" horiz-adv-x="323" 
d="M61 1225h201v-187h-201v187zM61 362h201v-187h-201v187z" />
    <glyph glyph-name="semicolon.case.tf" horiz-adv-x="323" 
d="M56 1225h202v-187h-202v187zM56 362h202v-157q0 -129 -50.5 -189t-161.5 -84l-17 92q64 18 88 50.5t23 100.5h-84v187z" />
    <glyph glyph-name="at.case" horiz-adv-x="1115" 
d="M564 -80q-250 0 -382.5 129t-132.5 372v548q0 245 133.5 378.5t378.5 133.5q237 0 367.5 -133.5t130.5 -378.5v-513q0 -136 -58 -216.5t-179 -80.5q-161 0 -153 170l-17 3q-18 -84 -65 -128.5t-119 -44.5q-78 0 -119.5 54t-41.5 156v73q0 66 14.5 117.5t44.5 89.5
t61.5 63.5t77.5 52.5l109 63v204q0 88 -63 88q-37 0 -53.5 -28t-15.5 -90v-177l-159 26v157q-5 234 229 234q225 0 225 -211v-658q0 -85 50 -85q80 0 80 168v512q0 181 -90.5 278.5t-255.5 97.5q-172 0 -266 -97.5t-94 -277.5v-548q0 -177 97.5 -270.5t280.5 -93.5
q146 0 295 54l29 -132q-156 -59 -339 -59zM528 288q40 0 63.5 39.5t23.5 115.5v243l-53 -31q-44 -27 -68 -68.5t-24 -113.5v-76q0 -109 58 -109z" />
    <glyph glyph-name="copyright.case" horiz-adv-x="1119" 
d="M560 -81q-244 0 -377 132t-133 373v540q0 247 133 382t377 135t377 -135t133 -382v-540q0 -241 -133 -373t-377 -132zM560 54q169 0 263 97t94 273v540q0 182 -93.5 282t-263.5 100t-264 -100t-94 -282v-540q0 -176 94 -273t264 -97zM559 158q-242 0 -242 278v531
q0 275 243 275q238 0 238 -262v-140l-162 -26v153q0 82 -18.5 117t-56.5 35q-79 0 -79 -137v-562q0 -138 79 -138q76 0 76 131v178l164 -26v-141q0 -266 -242 -266z" />
    <glyph glyph-name="whiteLargeCircle" horiz-adv-x="1600" 
d="M800 -20q-195 0 -361 96t-262.5 261.5t-96.5 362.5q0 147 57 280.5t153.5 229.5t230 153t279.5 57q196 0 361.5 -96t262 -262t96.5 -362q0 -197 -96.5 -362.5t-262 -261.5t-361.5 -96zM800 60q131 0 249 50.5t204 136t136.5 204t50.5 249.5q0 175 -85.5 322t-233 232.5
t-321.5 85.5t-321 -85.5t-233 -232.5t-86 -322t86 -322.5t233 -232.5t321 -85z" />
    <glyph glyph-name="arrowup.ss04" horiz-adv-x="639" 
d="M249 192v275h-199l-10 20l270 404h20l268 -404l-10 -20h-198v-275h-141z" />
    <glyph glyph-name="uni2197.ss04" horiz-adv-x="652" 
d="M45 374l194 194l-141 141l8 21l475 95l14 -14l-95 -475l-21 -7l-141 140l-194 -194z" />
    <glyph glyph-name="arrowright.ss04" horiz-adv-x="779" 
d="M40 598h275v199l20 10l404 -269v-20l-404 -269l-20 10v199h-275v140z" />
    <glyph glyph-name="uni2198.ss04" horiz-adv-x="653" 
d="M144 829l195 -195l140 141l22 -7l95 -476l-15 -14l-475 95l-7 22l140 140l-194 195z" />
    <glyph glyph-name="arrowdown.ss04" horiz-adv-x="639" 
d="M389 880v-275h199l10 -20l-269 -403h-20l-269 403l10 20h199v275h140z" />
    <glyph glyph-name="uni2199.ss04" horiz-adv-x="653" 
d="M509 829l99 -99l-194 -195l140 -140l-7 -22l-475 -95l-15 14l95 476l22 7l140 -141z" />
    <glyph glyph-name="arrowleft.ss04" horiz-adv-x="779" 
d="M739 598v-140h-275v-199l-20 -10l-404 269v20l404 269l20 -10v-199h275z" />
    <glyph glyph-name="uni2196.ss04" horiz-adv-x="653" 
d="M608 374l-100 -99l-194 194l-141 -140l-21 7l-95 475l14 14l476 -95l7 -21l-141 -141z" />
    <glyph glyph-name="arrowboth.ss04" horiz-adv-x="1165" 
d="M1125 518l-404 -269l-20 10v199h-237v-199l-20 -10l-404 269v20l404 269l20 -10v-199h237v199l20 10l404 -269v-20z" />
    <glyph glyph-name="arrowupdn.ss04" horiz-adv-x="639" 
d="M310 -17l-269 403l10 20h198v238h-199l-10 20l270 403h20l268 -403l-10 -20h-198v-238h199l10 -20l-269 -403h-20z" />
    <glyph glyph-name="uni2BA0.ss04" horiz-adv-x="786" 
d="M444 250l-404 269v20l404 269l20 -10v-199h141v252h141v-392h-282v-199z" />
    <glyph glyph-name="uni2BA1.ss04" horiz-adv-x="786" 
d="M342 250l-20 10v199h-282v392h141v-252h141v199l20 10l404 -269v-20z" />
    <glyph glyph-name="uni2BA6.ss04" horiz-adv-x="681" 
d="M40 587l10 20h199v282h392v-140h-251v-142h198l10 -20l-268 -403h-20z" />
    <glyph glyph-name="uni2BA4.ss04" horiz-adv-x="681" 
d="M40 520l270 403h20l268 -403l-10 -20h-198v-142h251v-140h-392v282h-199z" />
    <glyph glyph-name="uni2BA7.ss04" horiz-adv-x="682" 
d="M641 587l-269 -403h-20l-269 403l10 20h199v142h-252v140h392v-282h199z" />
    <glyph glyph-name="uni2BA5.ss04" horiz-adv-x="682" 
d="M641 520l-10 -20h-199v-282h-392v140h252v142h-199l-10 20l269 403h20z" />
    <glyph glyph-name="uni2BA2.ss04" horiz-adv-x="786" 
d="M444 807l20 -10v-199h282v-391h-141v251h-141v-199l-20 -10l-404 269v20z" />
    <glyph glyph-name="uni2BA3.ss04" horiz-adv-x="786" 
d="M342 807l404 -269v-20l-404 -269l-20 10v199h-141v-251h-141v391h282v199z" />
    <glyph glyph-name="uni0328.ae" 
d="M-105 17l96 -15q-81 -44 -81 -101q0 -43 46 -43q18 0 41 6l-16 -118q-35 -11 -66 -11q-60 0 -92 29t-32 84q0 96 104 169z" />
    <glyph glyph-name="uni030C.L.case" 
d="M-139 1400h139v-113q0 -82 -28 -118t-100 -43l-12 62q35 5 48.5 21t13.5 53h-61v138z" />
    <glyph glyph-name="uni0308.case" 
d="M-361 1493v183h146v-183h-146zM-145 1493v183h145v-183h-145z" />
    <glyph glyph-name="uni0307.case" 
d="M-185 1493v183h185v-183h-185z" />
    <glyph glyph-name="gravecomb.case" 
d="M0 1482h-125l-109 198h157z" />
    <glyph glyph-name="acutecomb.case" 
d="M-234 1482l77 198h157l-109 -198h-125z" />
    <glyph glyph-name="uni030B.case" 
d="M-431 1482l77 198h157l-109 -198h-125zM-234 1482l77 198h157l-109 -198h-125z" />
    <glyph glyph-name="uni0302.case" 
d="M-380 1482l109 198h162l109 -198h-124l-66 98l-65 -98h-125z" />
    <glyph glyph-name="uni030C.case" 
d="M-380 1680h125l65 -98l66 98h124l-109 -198h-162z" />
    <glyph glyph-name="uni0306.case" 
d="M-120 1680h120q-3 -205 -190 -205t-190 205h120q2 -97 70 -97t70 97z" />
    <glyph glyph-name="uni030A.case" 
d="M-153 1454q-69 0 -111 37.5t-42 98.5t42 98.5t111 37.5q68 0 110.5 -37.5t42.5 -98.5t-42.5 -98.5t-110.5 -37.5zM-153 1539q25 0 40 14t15 37t-15 37t-40 14t-40 -14t-15 -37t15 -37t40 -14z" />
    <glyph glyph-name="tildecomb.case" 
d="M-112 1485q-33 0 -63.5 16.5t-53 33.5t-35.5 17q-17 0 -25 -14t-9 -47h-90q6 175 119 175q31 0 61 -17t52 -33.5t35 -16.5q29 0 30 61h91q-7 -175 -112 -175z" />
    <glyph glyph-name="uni0304.case" 
d="M-365 1475v124h365v-124h-365z" />
    <glyph glyph-name="uni0326.case" 
d="M-137 1400h137v-109q0 -79 -27 -112t-99 -40l-12 64q36 2 49 17.5t13 53.5h-61v126z" />
    <glyph glyph-name="uni0302.narrow.case" 
d="M-280 1482l73 198h134l73 -198h-94l-46 105l-46 -105h-94z" />
    <glyph glyph-name="uni0308.narrow" 
d="M-262 1165v204h108v-204h-108zM-108 1165v204h108v-204h-108z" />
    <glyph glyph-name="gravecomb.narrow" 
d="M-48 1400l48 -268h-123l-75 268h150z" />
    <glyph glyph-name="acutecomb.narrow" 
d="M-150 1400h150l-75 -268h-123z" />
    <glyph glyph-name="uni0302.narrow" 
d="M-280 1130l73 270h134l73 -270h-94l-46 143l-46 -143h-94z" />
    <glyph glyph-name="uni030C.narrow" 
d="M0 1400l-73 -270h-134l-73 270h94l46 -144l46 144h94z" />
    <glyph glyph-name="tildecomb.narrow" 
d="M-74 1146q-28 0 -59 25t-41 25q-24 0 -21 -46h-65q-15 164 75 164q26 0 57.5 -25t41.5 -25q22 0 19 46h65q13 -164 -72 -164z" />
    <glyph glyph-name="uni0304.narrow" 
d="M-258 1174v114h258v-114h-258z" />
    </font>
</defs>
</svg>
