<svg width="34" height="32" viewBox="0 0 34 32" fill="none" xmlns="http://www.w3.org/2000/svg">
<path d="M13.7478 0H13.7522V0.0018698C17.5472 0.00293825 20.9836 1.49797 23.4703 3.91375C25.953 6.32606 27.4909 9.66071 27.4934 13.3437H27.4953V13.3525V13.3632H27.4934C27.492 14.8475 27.2412 16.276 26.7799 17.6081C26.7027 17.8317 26.6218 18.0465 26.5388 18.2516V18.2535C26.1411 19.2311 25.6271 20.1553 25.0132 21.0066L33.0114 27.9887L33.0163 27.993L33.0595 28.032L33.0625 28.0349C33.5141 28.4524 33.76 29.0115 33.7911 29.5788C33.8213 30.1398 33.6417 30.7135 33.2468 31.1738L33.2438 31.1781L33.1956 31.2323L33.186 31.2416L33.1459 31.2844L33.1415 31.29C32.7111 31.7286 32.1365 31.9668 31.5518 31.9968C30.9751 32.0264 30.3838 31.8525 29.9097 31.4684L29.9056 31.4655L29.8495 31.4187L29.8415 31.4123L21.661 24.2713C21.419 24.4369 21.172 24.5942 20.922 24.7428C20.5829 24.9444 20.2317 25.1343 19.8733 25.3077C18.031 26.2004 15.949 26.7026 13.7481 26.7026V26.7044H13.7437V26.7026C9.94863 26.7015 6.51168 25.2065 4.02494 22.7907C1.5415 20.3784 0.00440034 17.0432 0.00192515 13.3613H0V13.3525V13.3482H0.00192515C0.00302524 9.66231 1.54232 6.32419 4.02962 3.90894C6.51333 1.49797 9.9467 0.00427382 13.7387 0.0018698V0H13.7478ZM13.7522 2.99435V2.99622H13.7478H13.7387V2.99435C10.7998 2.99622 8.13596 4.15629 6.20751 6.02849C4.27933 7.90069 3.08382 10.4906 3.08299 13.3485H3.08492V13.3528V13.3616H3.08299C3.08492 16.2159 4.27851 18.8019 6.20696 20.6754C8.13459 22.5484 10.8012 23.7096 13.7434 23.7101V23.7082H13.7478H13.7569V23.7101C16.6957 23.7082 19.3585 22.5487 21.2875 20.6759C23.2157 18.8037 24.4112 16.2146 24.4117 13.357H24.4101V13.3528V13.3439H24.4117C24.4101 10.4896 23.2154 7.9023 21.288 6.02929C19.3604 4.15629 16.6946 2.99515 13.7522 2.99435Z" fill="#00AAFF"/>
</svg>
